<svg width="1000" height="500" viewBox="0 0 1000 500" fill="none" xmlns="http://www.w3.org/2000/svg">
<g clip-path="url(#clip0_3_38)">
<rect width="1000" height="500" fill="url(#paint0_linear_3_38)"/>
<path d="M312.996 204L303.16 173.5C303.108 173.219 303.028 172.945 302.922 172.68L283.195 111.375C282.678 109.799 281.675 108.427 280.329 107.458C278.984 106.488 277.366 105.969 275.707 105.977C274.053 105.972 272.44 106.498 271.108 107.478C269.775 108.459 268.793 109.841 268.305 111.422L249.5 169.84H190.125L171.305 111.418C170.819 109.843 169.842 108.464 168.516 107.484C167.191 106.504 165.586 105.975 163.938 105.973H163.895C162.232 105.978 160.613 106.511 159.271 107.493C157.93 108.476 156.933 109.858 156.426 111.441L136.68 172.801C136.68 172.855 136.637 172.902 136.617 172.957L126.606 204.004C125.868 206.278 125.865 208.726 126.597 211.002C127.329 213.278 128.759 215.266 130.684 216.684L217.184 280.125C217.943 280.681 218.861 280.978 219.801 280.973C220.742 280.968 221.657 280.661 222.41 280.098L308.926 216.684C310.851 215.265 312.28 213.276 313.011 211C313.742 208.723 313.736 206.274 312.996 204ZM183.699 178.801L207.813 253.707L149.934 178.801M231.824 253.723L254.945 181.91L255.941 178.785H289.738L237.371 246.516M275.781 117.168L292.723 169.836H258.809M246.625 178.766L229.828 230.945L219.805 262.023L193.023 178.766M163.856 117.168L180.832 169.836H146.953M135.891 209.461C135.482 209.159 135.178 208.737 135.024 208.253C134.869 207.769 134.87 207.249 135.027 206.766L142.449 183.719L196.984 254.262M303.727 209.461L242.625 254.242L242.828 253.973L297.148 183.703L304.57 206.75C304.73 207.233 304.733 207.755 304.58 208.24C304.426 208.725 304.123 209.15 303.715 209.453" fill="#F7F7F7"/>
<rect x="365.682" y="-23.5099" width="418" height="818.138" transform="rotate(-28.3711 365.682 -23.5099)" fill="#F7F7F7"/>
<g filter="url(#filter0_d_3_38)">
<path d="M607.828 213.68H614.836C614.695 215.977 614.062 218.016 612.938 219.797C611.828 221.578 610.273 222.969 608.273 223.969C606.289 224.969 603.898 225.469 601.102 225.469C598.914 225.469 596.953 225.094 595.219 224.344C593.484 223.578 592 222.484 590.766 221.062C589.547 219.641 588.617 217.922 587.977 215.906C587.336 213.891 587.016 211.633 587.016 209.133V206.766C587.016 204.266 587.344 202.008 588 199.992C588.672 197.961 589.625 196.234 590.859 194.812C592.109 193.391 593.602 192.297 595.336 191.531C597.07 190.766 599.008 190.383 601.148 190.383C603.992 190.383 606.391 190.898 608.344 191.93C610.312 192.961 611.836 194.383 612.914 196.195C614.008 198.008 614.664 200.07 614.883 202.383H607.852C607.773 201.008 607.5 199.844 607.031 198.891C606.562 197.922 605.852 197.195 604.898 196.711C603.961 196.211 602.711 195.961 601.148 195.961C599.977 195.961 598.953 196.18 598.078 196.617C597.203 197.055 596.469 197.719 595.875 198.609C595.281 199.5 594.836 200.625 594.539 201.984C594.258 203.328 594.117 204.906 594.117 206.719V209.133C594.117 210.898 594.25 212.453 594.516 213.797C594.781 215.125 595.188 216.25 595.734 217.172C596.297 218.078 597.016 218.766 597.891 219.234C598.781 219.688 599.852 219.914 601.102 219.914C602.57 219.914 603.781 219.68 604.734 219.211C605.688 218.742 606.414 218.047 606.914 217.125C607.43 216.203 607.734 215.055 607.828 213.68ZM632.719 219.281V207.984C632.719 207.172 632.586 206.477 632.32 205.898C632.055 205.305 631.641 204.844 631.078 204.516C630.531 204.188 629.82 204.023 628.945 204.023C628.195 204.023 627.547 204.156 627 204.422C626.453 204.672 626.031 205.039 625.734 205.523C625.438 205.992 625.289 206.547 625.289 207.188H618.539C618.539 206.109 618.789 205.086 619.289 204.117C619.789 203.148 620.516 202.297 621.469 201.562C622.422 200.812 623.555 200.227 624.867 199.805C626.195 199.383 627.68 199.172 629.32 199.172C631.289 199.172 633.039 199.5 634.57 200.156C636.102 200.812 637.305 201.797 638.18 203.109C639.07 204.422 639.516 206.062 639.516 208.031V218.883C639.516 220.273 639.602 221.414 639.773 222.305C639.945 223.18 640.195 223.945 640.523 224.602V225H633.703C633.375 224.312 633.125 223.453 632.953 222.422C632.797 221.375 632.719 220.328 632.719 219.281ZM633.609 209.555L633.656 213.375H629.883C628.992 213.375 628.219 213.477 627.562 213.68C626.906 213.883 626.367 214.172 625.945 214.547C625.523 214.906 625.211 215.328 625.008 215.812C624.82 216.297 624.727 216.828 624.727 217.406C624.727 217.984 624.859 218.508 625.125 218.977C625.391 219.43 625.773 219.789 626.273 220.055C626.773 220.305 627.359 220.43 628.031 220.43C629.047 220.43 629.93 220.227 630.68 219.82C631.43 219.414 632.008 218.914 632.414 218.32C632.836 217.727 633.055 217.164 633.07 216.633L634.852 219.492C634.602 220.133 634.258 220.797 633.82 221.484C633.398 222.172 632.859 222.82 632.203 223.43C631.547 224.023 630.758 224.516 629.836 224.906C628.914 225.281 627.82 225.469 626.555 225.469C624.945 225.469 623.484 225.148 622.172 224.508C620.875 223.852 619.844 222.953 619.078 221.812C618.328 220.656 617.953 219.344 617.953 217.875C617.953 216.547 618.203 215.367 618.703 214.336C619.203 213.305 619.938 212.438 620.906 211.734C621.891 211.016 623.117 210.477 624.586 210.117C626.055 209.742 627.758 209.555 629.695 209.555H633.609ZM651.469 205.172V225H644.719V199.641H651.07L651.469 205.172ZM659.109 199.477L658.992 205.734C658.664 205.688 658.266 205.648 657.797 205.617C657.344 205.57 656.93 205.547 656.555 205.547C655.602 205.547 654.773 205.672 654.07 205.922C653.383 206.156 652.805 206.508 652.336 206.977C651.883 207.445 651.539 208.016 651.305 208.688C651.086 209.359 650.961 210.125 650.93 210.984L649.57 210.562C649.57 208.922 649.734 207.414 650.062 206.039C650.391 204.648 650.867 203.438 651.492 202.406C652.133 201.375 652.914 200.578 653.836 200.016C654.758 199.453 655.812 199.172 657 199.172C657.375 199.172 657.758 199.203 658.148 199.266C658.539 199.312 658.859 199.383 659.109 199.477ZM675.188 219.281V207.984C675.188 207.172 675.055 206.477 674.789 205.898C674.523 205.305 674.109 204.844 673.547 204.516C673 204.188 672.289 204.023 671.414 204.023C670.664 204.023 670.016 204.156 669.469 204.422C668.922 204.672 668.5 205.039 668.203 205.523C667.906 205.992 667.758 206.547 667.758 207.188H661.008C661.008 206.109 661.258 205.086 661.758 204.117C662.258 203.148 662.984 202.297 663.938 201.562C664.891 200.812 666.023 200.227 667.336 199.805C668.664 199.383 670.148 199.172 671.789 199.172C673.758 199.172 675.508 199.5 677.039 200.156C678.57 200.812 679.773 201.797 680.648 203.109C681.539 204.422 681.984 206.062 681.984 208.031V218.883C681.984 220.273 682.07 221.414 682.242 222.305C682.414 223.18 682.664 223.945 682.992 224.602V225H676.172C675.844 224.312 675.594 223.453 675.422 222.422C675.266 221.375 675.188 220.328 675.188 219.281ZM676.078 209.555L676.125 213.375H672.352C671.461 213.375 670.688 213.477 670.031 213.68C669.375 213.883 668.836 214.172 668.414 214.547C667.992 214.906 667.68 215.328 667.477 215.812C667.289 216.297 667.195 216.828 667.195 217.406C667.195 217.984 667.328 218.508 667.594 218.977C667.859 219.43 668.242 219.789 668.742 220.055C669.242 220.305 669.828 220.43 670.5 220.43C671.516 220.43 672.398 220.227 673.148 219.82C673.898 219.414 674.477 218.914 674.883 218.32C675.305 217.727 675.523 217.164 675.539 216.633L677.32 219.492C677.07 220.133 676.727 220.797 676.289 221.484C675.867 222.172 675.328 222.82 674.672 223.43C674.016 224.023 673.227 224.516 672.305 224.906C671.383 225.281 670.289 225.469 669.023 225.469C667.414 225.469 665.953 225.148 664.641 224.508C663.344 223.852 662.312 222.953 661.547 221.812C660.797 220.656 660.422 219.344 660.422 217.875C660.422 216.547 660.672 215.367 661.172 214.336C661.672 213.305 662.406 212.438 663.375 211.734C664.359 211.016 665.586 210.477 667.055 210.117C668.523 209.742 670.227 209.555 672.164 209.555H676.078ZM712.922 210.023H704.156L704.109 205.195H711.469C712.766 205.195 713.828 205.031 714.656 204.703C715.484 204.359 716.102 203.867 716.508 203.227C716.93 202.57 717.141 201.773 717.141 200.836C717.141 199.773 716.938 198.914 716.531 198.258C716.141 197.602 715.523 197.125 714.68 196.828C713.852 196.531 712.781 196.383 711.469 196.383H706.594V225H699.562V190.875H711.469C713.453 190.875 715.227 191.062 716.789 191.438C718.367 191.812 719.703 192.383 720.797 193.148C721.891 193.914 722.727 194.883 723.305 196.055C723.883 197.211 724.172 198.586 724.172 200.18C724.172 201.586 723.852 202.883 723.211 204.07C722.586 205.258 721.594 206.227 720.234 206.977C718.891 207.727 717.133 208.141 714.961 208.219L712.922 210.023ZM712.617 225H702.234L704.977 219.516H712.617C713.852 219.516 714.859 219.32 715.641 218.93C716.422 218.523 717 217.977 717.375 217.289C717.75 216.602 717.938 215.812 717.938 214.922C717.938 213.922 717.766 213.055 717.422 212.32C717.094 211.586 716.562 211.023 715.828 210.633C715.094 210.227 714.125 210.023 712.922 210.023H706.148L706.195 205.195H714.633L716.25 207.094C718.328 207.062 720 207.43 721.266 208.195C722.547 208.945 723.477 209.922 724.055 211.125C724.648 212.328 724.945 213.617 724.945 214.992C724.945 217.18 724.469 219.023 723.516 220.523C722.562 222.008 721.164 223.125 719.32 223.875C717.492 224.625 715.258 225 712.617 225ZM736.547 205.172V225H729.797V199.641H736.148L736.547 205.172ZM744.188 199.477L744.07 205.734C743.742 205.688 743.344 205.648 742.875 205.617C742.422 205.57 742.008 205.547 741.633 205.547C740.68 205.547 739.852 205.672 739.148 205.922C738.461 206.156 737.883 206.508 737.414 206.977C736.961 207.445 736.617 208.016 736.383 208.688C736.164 209.359 736.039 210.125 736.008 210.984L734.648 210.562C734.648 208.922 734.812 207.414 735.141 206.039C735.469 204.648 735.945 203.438 736.57 202.406C737.211 201.375 737.992 200.578 738.914 200.016C739.836 199.453 740.891 199.172 742.078 199.172C742.453 199.172 742.836 199.203 743.227 199.266C743.617 199.312 743.938 199.383 744.188 199.477ZM760.266 219.281V207.984C760.266 207.172 760.133 206.477 759.867 205.898C759.602 205.305 759.188 204.844 758.625 204.516C758.078 204.188 757.367 204.023 756.492 204.023C755.742 204.023 755.094 204.156 754.547 204.422C754 204.672 753.578 205.039 753.281 205.523C752.984 205.992 752.836 206.547 752.836 207.188H746.086C746.086 206.109 746.336 205.086 746.836 204.117C747.336 203.148 748.062 202.297 749.016 201.562C749.969 200.812 751.102 200.227 752.414 199.805C753.742 199.383 755.227 199.172 756.867 199.172C758.836 199.172 760.586 199.5 762.117 200.156C763.648 200.812 764.852 201.797 765.727 203.109C766.617 204.422 767.062 206.062 767.062 208.031V218.883C767.062 220.273 767.148 221.414 767.32 222.305C767.492 223.18 767.742 223.945 768.07 224.602V225H761.25C760.922 224.312 760.672 223.453 760.5 222.422C760.344 221.375 760.266 220.328 760.266 219.281ZM761.156 209.555L761.203 213.375H757.43C756.539 213.375 755.766 213.477 755.109 213.68C754.453 213.883 753.914 214.172 753.492 214.547C753.07 214.906 752.758 215.328 752.555 215.812C752.367 216.297 752.273 216.828 752.273 217.406C752.273 217.984 752.406 218.508 752.672 218.977C752.938 219.43 753.32 219.789 753.82 220.055C754.32 220.305 754.906 220.43 755.578 220.43C756.594 220.43 757.477 220.227 758.227 219.82C758.977 219.414 759.555 218.914 759.961 218.32C760.383 217.727 760.602 217.164 760.617 216.633L762.398 219.492C762.148 220.133 761.805 220.797 761.367 221.484C760.945 222.172 760.406 222.82 759.75 223.43C759.094 224.023 758.305 224.516 757.383 224.906C756.461 225.281 755.367 225.469 754.102 225.469C752.492 225.469 751.031 225.148 749.719 224.508C748.422 223.852 747.391 222.953 746.625 221.812C745.875 220.656 745.5 219.344 745.5 217.875C745.5 216.547 745.75 215.367 746.25 214.336C746.75 213.305 747.484 212.438 748.453 211.734C749.438 211.016 750.664 210.477 752.133 210.117C753.602 209.742 755.305 209.555 757.242 209.555H761.156ZM778.875 205.055V225H772.125V199.641H778.453L778.875 205.055ZM777.891 211.43H776.062C776.062 209.555 776.305 207.867 776.789 206.367C777.273 204.852 777.953 203.562 778.828 202.5C779.703 201.422 780.742 200.602 781.945 200.039C783.164 199.461 784.523 199.172 786.023 199.172C787.211 199.172 788.297 199.344 789.281 199.688C790.266 200.031 791.109 200.578 791.812 201.328C792.531 202.078 793.078 203.07 793.453 204.305C793.844 205.539 794.039 207.047 794.039 208.828V225H787.242V208.805C787.242 207.68 787.086 206.805 786.773 206.18C786.461 205.555 786 205.117 785.391 204.867C784.797 204.602 784.062 204.469 783.188 204.469C782.281 204.469 781.492 204.648 780.82 205.008C780.164 205.367 779.617 205.867 779.18 206.508C778.758 207.133 778.438 207.867 778.219 208.711C778 209.555 777.891 210.461 777.891 211.43ZM809.648 220.195C810.477 220.195 811.211 220.039 811.852 219.727C812.492 219.398 812.992 218.945 813.352 218.367C813.727 217.773 813.922 217.078 813.938 216.281H820.289C820.273 218.062 819.797 219.648 818.859 221.039C817.922 222.414 816.664 223.5 815.086 224.297C813.508 225.078 811.742 225.469 809.789 225.469C807.82 225.469 806.102 225.141 804.633 224.484C803.18 223.828 801.969 222.922 801 221.766C800.031 220.594 799.305 219.234 798.82 217.688C798.336 216.125 798.094 214.453 798.094 212.672V211.992C798.094 210.195 798.336 208.523 798.82 206.977C799.305 205.414 800.031 204.055 801 202.898C801.969 201.727 803.18 200.812 804.633 200.156C806.086 199.5 807.789 199.172 809.742 199.172C811.82 199.172 813.641 199.57 815.203 200.367C816.781 201.164 818.016 202.305 818.906 203.789C819.812 205.258 820.273 207 820.289 209.016H813.938C813.922 208.172 813.742 207.406 813.398 206.719C813.07 206.031 812.586 205.484 811.945 205.078C811.32 204.656 810.547 204.445 809.625 204.445C808.641 204.445 807.836 204.656 807.211 205.078C806.586 205.484 806.102 206.047 805.758 206.766C805.414 207.469 805.172 208.273 805.031 209.18C804.906 210.07 804.844 211.008 804.844 211.992V212.672C804.844 213.656 804.906 214.602 805.031 215.508C805.156 216.414 805.391 217.219 805.734 217.922C806.094 218.625 806.586 219.18 807.211 219.586C807.836 219.992 808.648 220.195 809.648 220.195ZM830.789 189V225H824.039V189H830.789ZM829.828 211.43H827.977C827.992 209.664 828.227 208.039 828.68 206.555C829.133 205.055 829.781 203.758 830.625 202.664C831.469 201.555 832.477 200.695 833.648 200.086C834.836 199.477 836.148 199.172 837.586 199.172C838.836 199.172 839.969 199.352 840.984 199.711C842.016 200.055 842.898 200.617 843.633 201.398C844.383 202.164 844.961 203.172 845.367 204.422C845.773 205.672 845.977 207.188 845.977 208.969V225H839.18V208.922C839.18 207.797 839.016 206.914 838.688 206.273C838.375 205.617 837.914 205.156 837.305 204.891C836.711 204.609 835.977 204.469 835.102 204.469C834.133 204.469 833.305 204.648 832.617 205.008C831.945 205.367 831.406 205.867 831 206.508C830.594 207.133 830.297 207.867 830.109 208.711C829.922 209.555 829.828 210.461 829.828 211.43ZM858.234 199.641V225H851.461V199.641H858.234ZM851.039 193.031C851.039 192.047 851.383 191.234 852.07 190.594C852.758 189.953 853.68 189.633 854.836 189.633C855.977 189.633 856.891 189.953 857.578 190.594C858.281 191.234 858.633 192.047 858.633 193.031C858.633 194.016 858.281 194.828 857.578 195.469C856.891 196.109 855.977 196.43 854.836 196.43C853.68 196.43 852.758 196.109 852.07 195.469C851.383 194.828 851.039 194.016 851.039 193.031ZM870.422 205.055V225H863.672V199.641H870L870.422 205.055ZM869.438 211.43H867.609C867.609 209.555 867.852 207.867 868.336 206.367C868.82 204.852 869.5 203.562 870.375 202.5C871.25 201.422 872.289 200.602 873.492 200.039C874.711 199.461 876.07 199.172 877.57 199.172C878.758 199.172 879.844 199.344 880.828 199.688C881.812 200.031 882.656 200.578 883.359 201.328C884.078 202.078 884.625 203.07 885 204.305C885.391 205.539 885.586 207.047 885.586 208.828V225H878.789V208.805C878.789 207.68 878.633 206.805 878.32 206.18C878.008 205.555 877.547 205.117 876.938 204.867C876.344 204.602 875.609 204.469 874.734 204.469C873.828 204.469 873.039 204.648 872.367 205.008C871.711 205.367 871.164 205.867 870.727 206.508C870.305 207.133 869.984 207.867 869.766 208.711C869.547 209.555 869.438 210.461 869.438 211.43ZM906.773 199.641H912.891V224.156C912.891 226.469 912.375 228.43 911.344 230.039C910.328 231.664 908.906 232.891 907.078 233.719C905.25 234.562 903.125 234.984 900.703 234.984C899.641 234.984 898.516 234.844 897.328 234.562C896.156 234.281 895.031 233.844 893.953 233.25C892.891 232.656 892 231.906 891.281 231L894.258 227.016C895.039 227.922 895.945 228.625 896.977 229.125C898.008 229.641 899.148 229.898 900.398 229.898C901.617 229.898 902.648 229.672 903.492 229.219C904.336 228.781 904.984 228.133 905.438 227.273C905.891 226.43 906.117 225.406 906.117 224.203V205.5L906.773 199.641ZM889.711 212.625V212.133C889.711 210.195 889.945 208.438 890.414 206.859C890.898 205.266 891.578 203.898 892.453 202.758C893.344 201.617 894.422 200.734 895.688 200.109C896.953 199.484 898.383 199.172 899.977 199.172C901.664 199.172 903.078 199.484 904.219 200.109C905.359 200.734 906.297 201.625 907.031 202.781C907.766 203.922 908.336 205.273 908.742 206.836C909.164 208.383 909.492 210.078 909.727 211.922V213C909.492 214.766 909.141 216.406 908.672 217.922C908.203 219.438 907.586 220.766 906.82 221.906C906.055 223.031 905.102 223.906 903.961 224.531C902.836 225.156 901.492 225.469 899.93 225.469C898.367 225.469 896.953 225.148 895.688 224.508C894.438 223.867 893.367 222.969 892.477 221.812C891.586 220.656 890.898 219.297 890.414 217.734C889.945 216.172 889.711 214.469 889.711 212.625ZM896.461 212.133V212.625C896.461 213.672 896.562 214.648 896.766 215.555C896.969 216.461 897.281 217.266 897.703 217.969C898.141 218.656 898.68 219.195 899.32 219.586C899.977 219.961 900.75 220.148 901.641 220.148C902.875 220.148 903.883 219.891 904.664 219.375C905.445 218.844 906.031 218.117 906.422 217.195C906.812 216.273 907.039 215.211 907.102 214.008V210.938C907.07 209.953 906.938 209.07 906.703 208.289C906.469 207.492 906.141 206.812 905.719 206.25C905.297 205.688 904.75 205.25 904.078 204.938C903.406 204.625 902.609 204.469 901.688 204.469C900.797 204.469 900.023 204.672 899.367 205.078C898.727 205.469 898.188 206.008 897.75 206.695C897.328 207.383 897.008 208.195 896.789 209.133C896.57 210.055 896.461 211.055 896.461 212.133ZM602.602 275.469V245H609.398V281H603.281L602.602 275.469ZM586.57 268.625V268.133C586.57 266.195 586.789 264.438 587.227 262.859C587.664 261.266 588.305 259.898 589.148 258.758C589.992 257.617 591.031 256.734 592.266 256.109C593.5 255.484 594.906 255.172 596.484 255.172C597.969 255.172 599.266 255.484 600.375 256.109C601.5 256.734 602.453 257.625 603.234 258.781C604.031 259.922 604.672 261.273 605.156 262.836C605.641 264.383 605.992 266.078 606.211 267.922V269C605.992 270.766 605.641 272.406 605.156 273.922C604.672 275.438 604.031 276.766 603.234 277.906C602.453 279.031 601.5 279.906 600.375 280.531C599.25 281.156 597.938 281.469 596.438 281.469C594.859 281.469 593.453 281.148 592.219 280.508C591 279.867 589.969 278.969 589.125 277.812C588.297 276.656 587.664 275.297 587.227 273.734C586.789 272.172 586.57 270.469 586.57 268.625ZM593.32 268.133V268.625C593.32 269.672 593.398 270.648 593.555 271.555C593.727 272.461 594 273.266 594.375 273.969C594.766 274.656 595.266 275.195 595.875 275.586C596.5 275.961 597.258 276.148 598.148 276.148C599.305 276.148 600.258 275.891 601.008 275.375C601.758 274.844 602.328 274.117 602.719 273.195C603.125 272.273 603.359 271.211 603.422 270.008V266.938C603.375 265.953 603.234 265.07 603 264.289C602.781 263.492 602.453 262.812 602.016 262.25C601.594 261.688 601.062 261.25 600.422 260.938C599.797 260.625 599.055 260.469 598.195 260.469C597.32 260.469 596.57 260.672 595.945 261.078C595.32 261.469 594.812 262.008 594.422 262.695C594.047 263.383 593.766 264.195 593.578 265.133C593.406 266.055 593.32 267.055 593.32 268.133ZM621.797 255.641V281H615.023V255.641H621.797ZM614.602 249.031C614.602 248.047 614.945 247.234 615.633 246.594C616.32 245.953 617.242 245.633 618.398 245.633C619.539 245.633 620.453 245.953 621.141 246.594C621.844 247.234 622.195 248.047 622.195 249.031C622.195 250.016 621.844 250.828 621.141 251.469C620.453 252.109 619.539 252.43 618.398 252.43C617.242 252.43 616.32 252.109 615.633 251.469C614.945 250.828 614.602 250.016 614.602 249.031ZM666.797 263.164V276.688C666.266 277.328 665.445 278.023 664.336 278.773C663.227 279.508 661.797 280.141 660.047 280.672C658.297 281.203 656.18 281.469 653.695 281.469C651.492 281.469 649.484 281.109 647.672 280.391C645.859 279.656 644.297 278.586 642.984 277.18C641.688 275.773 640.688 274.055 639.984 272.023C639.281 269.977 638.93 267.641 638.93 265.016V262.883C638.93 260.258 639.266 257.922 639.938 255.875C640.625 253.828 641.602 252.102 642.867 250.695C644.133 249.289 645.641 248.219 647.391 247.484C649.141 246.75 651.086 246.383 653.227 246.383C656.195 246.383 658.633 246.867 660.539 247.836C662.445 248.789 663.898 250.117 664.898 251.82C665.914 253.508 666.539 255.445 666.773 257.633H659.953C659.781 256.477 659.453 255.469 658.969 254.609C658.484 253.75 657.789 253.078 656.883 252.594C655.992 252.109 654.836 251.867 653.414 251.867C652.242 251.867 651.195 252.109 650.273 252.594C649.367 253.062 648.602 253.758 647.977 254.68C647.352 255.602 646.875 256.742 646.547 258.102C646.219 259.461 646.055 261.039 646.055 262.836V265.016C646.055 266.797 646.227 268.375 646.57 269.75C646.914 271.109 647.422 272.258 648.094 273.195C648.781 274.117 649.625 274.812 650.625 275.281C651.625 275.75 652.789 275.984 654.117 275.984C655.227 275.984 656.148 275.891 656.883 275.703C657.633 275.516 658.234 275.289 658.688 275.023C659.156 274.742 659.516 274.477 659.766 274.227V268.18H653.344V263.164H666.797ZM679.172 255.641V281H672.398V255.641H679.172ZM671.977 249.031C671.977 248.047 672.32 247.234 673.008 246.594C673.695 245.953 674.617 245.633 675.773 245.633C676.914 245.633 677.828 245.953 678.516 246.594C679.219 247.234 679.57 248.047 679.57 249.031C679.57 250.016 679.219 250.828 678.516 251.469C677.828 252.109 676.914 252.43 675.773 252.43C674.617 252.43 673.695 252.109 673.008 251.469C672.32 250.828 671.977 250.016 671.977 249.031ZM697.172 255.641V260.422H682.406V255.641H697.172ZM686.062 249.383H692.812V273.359C692.812 274.094 692.906 274.656 693.094 275.047C693.297 275.438 693.594 275.711 693.984 275.867C694.375 276.008 694.867 276.078 695.461 276.078C695.883 276.078 696.258 276.062 696.586 276.031C696.93 275.984 697.219 275.938 697.453 275.891L697.477 280.859C696.898 281.047 696.273 281.195 695.602 281.305C694.93 281.414 694.188 281.469 693.375 281.469C691.891 281.469 690.594 281.227 689.484 280.742C688.391 280.242 687.547 279.445 686.953 278.352C686.359 277.258 686.062 275.82 686.062 274.039V249.383ZM723.375 275.516V281H706.195V275.516H723.375ZM708.469 246.875V281H701.438V246.875H708.469ZM740.672 275.281V263.984C740.672 263.172 740.539 262.477 740.273 261.898C740.008 261.305 739.594 260.844 739.031 260.516C738.484 260.188 737.773 260.023 736.898 260.023C736.148 260.023 735.5 260.156 734.953 260.422C734.406 260.672 733.984 261.039 733.688 261.523C733.391 261.992 733.242 262.547 733.242 263.188H726.492C726.492 262.109 726.742 261.086 727.242 260.117C727.742 259.148 728.469 258.297 729.422 257.562C730.375 256.812 731.508 256.227 732.82 255.805C734.148 255.383 735.633 255.172 737.273 255.172C739.242 255.172 740.992 255.5 742.523 256.156C744.055 256.812 745.258 257.797 746.133 259.109C747.023 260.422 747.469 262.062 747.469 264.031V274.883C747.469 276.273 747.555 277.414 747.727 278.305C747.898 279.18 748.148 279.945 748.477 280.602V281H741.656C741.328 280.312 741.078 279.453 740.906 278.422C740.75 277.375 740.672 276.328 740.672 275.281ZM741.562 265.555L741.609 269.375H737.836C736.945 269.375 736.172 269.477 735.516 269.68C734.859 269.883 734.32 270.172 733.898 270.547C733.477 270.906 733.164 271.328 732.961 271.812C732.773 272.297 732.68 272.828 732.68 273.406C732.68 273.984 732.812 274.508 733.078 274.977C733.344 275.43 733.727 275.789 734.227 276.055C734.727 276.305 735.312 276.43 735.984 276.43C737 276.43 737.883 276.227 738.633 275.82C739.383 275.414 739.961 274.914 740.367 274.32C740.789 273.727 741.008 273.164 741.023 272.633L742.805 275.492C742.555 276.133 742.211 276.797 741.773 277.484C741.352 278.172 740.812 278.82 740.156 279.43C739.5 280.023 738.711 280.516 737.789 280.906C736.867 281.281 735.773 281.469 734.508 281.469C732.898 281.469 731.438 281.148 730.125 280.508C728.828 279.852 727.797 278.953 727.031 277.812C726.281 276.656 725.906 275.344 725.906 273.875C725.906 272.547 726.156 271.367 726.656 270.336C727.156 269.305 727.891 268.438 728.859 267.734C729.844 267.016 731.07 266.477 732.539 266.117C734.008 265.742 735.711 265.555 737.648 265.555H741.562ZM752.672 245H759.422V275.188L758.742 281H752.672V245ZM775.477 268.062V268.555C775.477 270.445 775.273 272.18 774.867 273.758C774.477 275.336 773.867 276.703 773.039 277.859C772.211 279 771.18 279.891 769.945 280.531C768.727 281.156 767.289 281.469 765.633 281.469C764.086 281.469 762.742 281.156 761.602 280.531C760.477 279.906 759.531 279.023 758.766 277.883C758 276.742 757.383 275.406 756.914 273.875C756.445 272.344 756.094 270.672 755.859 268.859V267.781C756.094 265.969 756.445 264.297 756.914 262.766C757.383 261.234 758 259.898 758.766 258.758C759.531 257.617 760.477 256.734 761.602 256.109C762.727 255.484 764.055 255.172 765.586 255.172C767.258 255.172 768.711 255.492 769.945 256.133C771.195 256.758 772.227 257.648 773.039 258.805C773.867 259.945 774.477 261.305 774.867 262.883C775.273 264.445 775.477 266.172 775.477 268.062ZM768.727 268.555V268.062C768.727 267.031 768.648 266.062 768.492 265.156C768.352 264.234 768.102 263.43 767.742 262.742C767.383 262.039 766.891 261.484 766.266 261.078C765.656 260.672 764.867 260.469 763.898 260.469C762.977 260.469 762.195 260.625 761.555 260.938C760.914 261.25 760.383 261.688 759.961 262.25C759.555 262.812 759.25 263.484 759.047 264.266C758.844 265.031 758.719 265.875 758.672 266.797V269.867C758.719 271.102 758.922 272.195 759.281 273.148C759.656 274.086 760.219 274.828 760.969 275.375C761.734 275.906 762.727 276.172 763.945 276.172C764.898 276.172 765.688 275.984 766.312 275.609C766.938 275.234 767.422 274.703 767.766 274.016C768.125 273.328 768.375 272.523 768.516 271.602C768.656 270.664 768.727 269.648 768.727 268.555Z" fill="#FB6D27"/>
</g>
<path d="M179.672 323.562V336.594C179.188 337.234 178.43 337.938 177.398 338.703C176.383 339.453 175.031 340.102 173.344 340.648C171.656 341.195 169.555 341.469 167.039 341.469C164.898 341.469 162.938 341.109 161.156 340.391C159.375 339.656 157.836 338.586 156.539 337.18C155.258 335.773 154.266 334.062 153.562 332.047C152.859 330.016 152.508 327.703 152.508 325.109V322.742C152.508 320.164 152.828 317.867 153.469 315.852C154.125 313.82 155.062 312.102 156.281 310.695C157.5 309.289 158.969 308.227 160.688 307.508C162.422 306.773 164.383 306.406 166.57 306.406C169.367 306.406 171.68 306.875 173.508 307.812C175.352 308.734 176.773 310.016 177.773 311.656C178.773 313.297 179.406 315.172 179.672 317.281H173.906C173.719 316.094 173.352 315.031 172.805 314.094C172.273 313.156 171.508 312.422 170.508 311.891C169.523 311.344 168.242 311.07 166.664 311.07C165.305 311.07 164.109 311.328 163.078 311.844C162.047 312.359 161.188 313.117 160.5 314.117C159.828 315.117 159.32 316.336 158.977 317.773C158.633 319.211 158.461 320.852 158.461 322.695V325.109C158.461 326.984 158.656 328.648 159.047 330.102C159.453 331.555 160.031 332.781 160.781 333.781C161.547 334.781 162.477 335.539 163.57 336.055C164.664 336.555 165.898 336.805 167.273 336.805C168.617 336.805 169.719 336.695 170.578 336.477C171.438 336.242 172.117 335.969 172.617 335.656C173.133 335.328 173.531 335.016 173.812 334.719V327.945H166.711V323.562H179.672ZM191.672 315.641V341H186V315.641H191.672ZM185.625 308.984C185.625 308.125 185.906 307.414 186.469 306.852C187.047 306.273 187.844 305.984 188.859 305.984C189.859 305.984 190.648 306.273 191.227 306.852C191.805 307.414 192.094 308.125 192.094 308.984C192.094 309.828 191.805 310.531 191.227 311.094C190.648 311.656 189.859 311.938 188.859 311.938C187.844 311.938 187.047 311.656 186.469 311.094C185.906 310.531 185.625 309.828 185.625 308.984ZM209.484 315.641V319.766H195.188V315.641H209.484ZM199.312 309.43H204.961V333.992C204.961 334.773 205.07 335.375 205.289 335.797C205.523 336.203 205.844 336.477 206.25 336.617C206.656 336.758 207.133 336.828 207.68 336.828C208.07 336.828 208.445 336.805 208.805 336.758C209.164 336.711 209.453 336.664 209.672 336.617L209.695 340.93C209.227 341.07 208.68 341.195 208.055 341.305C207.445 341.414 206.742 341.469 205.945 341.469C204.648 341.469 203.5 341.242 202.5 340.789C201.5 340.32 200.719 339.562 200.156 338.516C199.594 337.469 199.312 336.078 199.312 334.344V309.43ZM235.781 336.336V341H218.648V336.336H235.781ZM220.289 306.875V341H214.406V306.875H220.289ZM254.062 335.914V323.82C254.062 322.914 253.898 322.133 253.57 321.477C253.242 320.82 252.742 320.312 252.07 319.953C251.414 319.594 250.586 319.414 249.586 319.414C248.664 319.414 247.867 319.57 247.195 319.883C246.523 320.195 246 320.617 245.625 321.148C245.25 321.68 245.062 322.281 245.062 322.953H239.438C239.438 321.953 239.68 320.984 240.164 320.047C240.648 319.109 241.352 318.273 242.273 317.539C243.195 316.805 244.297 316.227 245.578 315.805C246.859 315.383 248.297 315.172 249.891 315.172C251.797 315.172 253.484 315.492 254.953 316.133C256.438 316.773 257.602 317.742 258.445 319.039C259.305 320.32 259.734 321.93 259.734 323.867V335.141C259.734 336.297 259.812 337.336 259.969 338.258C260.141 339.164 260.383 339.953 260.695 340.625V341H254.906C254.641 340.391 254.43 339.617 254.273 338.68C254.133 337.727 254.062 336.805 254.062 335.914ZM254.883 325.578L254.93 329.07H250.875C249.828 329.07 248.906 329.172 248.109 329.375C247.312 329.562 246.648 329.844 246.117 330.219C245.586 330.594 245.188 331.047 244.922 331.578C244.656 332.109 244.523 332.711 244.523 333.383C244.523 334.055 244.68 334.672 244.992 335.234C245.305 335.781 245.758 336.211 246.352 336.523C246.961 336.836 247.695 336.992 248.555 336.992C249.711 336.992 250.719 336.758 251.578 336.289C252.453 335.805 253.141 335.219 253.641 334.531C254.141 333.828 254.406 333.164 254.438 332.539L256.266 335.047C256.078 335.688 255.758 336.375 255.305 337.109C254.852 337.844 254.258 338.547 253.523 339.219C252.805 339.875 251.938 340.414 250.922 340.836C249.922 341.258 248.766 341.469 247.453 341.469C245.797 341.469 244.32 341.141 243.023 340.484C241.727 339.812 240.711 338.914 239.977 337.789C239.242 336.648 238.875 335.359 238.875 333.922C238.875 332.578 239.125 331.391 239.625 330.359C240.141 329.312 240.891 328.438 241.875 327.734C242.875 327.031 244.094 326.5 245.531 326.141C246.969 325.766 248.609 325.578 250.453 325.578H254.883ZM265.664 305H271.312V335.586L270.773 341H265.664V305ZM287.859 328.086V328.578C287.859 330.453 287.648 332.18 287.227 333.758C286.82 335.32 286.195 336.68 285.352 337.836C284.523 338.992 283.492 339.891 282.258 340.531C281.039 341.156 279.625 341.469 278.016 341.469C276.438 341.469 275.062 341.172 273.891 340.578C272.719 339.984 271.734 339.141 270.938 338.047C270.156 336.953 269.523 335.648 269.039 334.133C268.555 332.617 268.211 330.945 268.008 329.117V327.547C268.211 325.703 268.555 324.031 269.039 322.531C269.523 321.016 270.156 319.711 270.938 318.617C271.734 317.508 272.711 316.656 273.867 316.062C275.039 315.469 276.406 315.172 277.969 315.172C279.594 315.172 281.023 315.484 282.258 316.109C283.508 316.734 284.547 317.625 285.375 318.781C286.203 319.922 286.82 321.281 287.227 322.859C287.648 324.438 287.859 326.18 287.859 328.086ZM282.211 328.578V328.086C282.211 326.945 282.117 325.875 281.93 324.875C281.742 323.859 281.43 322.969 280.992 322.203C280.57 321.438 279.992 320.836 279.258 320.398C278.539 319.945 277.641 319.719 276.562 319.719C275.562 319.719 274.703 319.891 273.984 320.234C273.266 320.578 272.664 321.047 272.18 321.641C271.695 322.234 271.312 322.922 271.031 323.703C270.766 324.484 270.586 325.328 270.492 326.234V330.477C270.633 331.648 270.93 332.727 271.383 333.711C271.852 334.68 272.508 335.461 273.352 336.055C274.195 336.633 275.281 336.922 276.609 336.922C277.656 336.922 278.539 336.711 279.258 336.289C279.977 335.867 280.547 335.281 280.969 334.531C281.406 333.766 281.719 332.875 281.906 331.859C282.109 330.844 282.211 329.75 282.211 328.578Z" fill="white"/>
</g>
<defs>
<filter id="filter0_d_3_38" x="581.57" y="189" width="336.32" height="102.469" filterUnits="userSpaceOnUse" color-interpolation-filters="sRGB">
<feFlood flood-opacity="0" result="BackgroundImageFix"/>
<feColorMatrix in="SourceAlpha" type="matrix" values="0 0 0 0 0 0 0 0 0 0 0 0 0 0 0 0 0 0 127 0" result="hardAlpha"/>
<feOffset dy="5"/>
<feGaussianBlur stdDeviation="2.5"/>
<feComposite in2="hardAlpha" operator="out"/>
<feColorMatrix type="matrix" values="0 0 0 0 0 0 0 0 0 0 0 0 0 0 0 0 0 0 0.25 0"/>
<feBlend mode="normal" in2="BackgroundImageFix" result="effect1_dropShadow_3_38"/>
<feBlend mode="normal" in="SourceGraphic" in2="effect1_dropShadow_3_38" result="shape"/>
</filter>
<linearGradient id="paint0_linear_3_38" x1="-6.00512e-06" y1="10.5" x2="1000" y2="500" gradientUnits="userSpaceOnUse">
<stop stop-color="#E14329"/>
<stop offset="1" stop-color="#FB6D27"/>
</linearGradient>
<clipPath id="clip0_3_38">
<rect width="1000" height="500" fill="white"/>
</clipPath>
</defs>
</svg>
