<svg width="1000" height="500" viewBox="0 0 1000 500" fill="none" xmlns="http://www.w3.org/2000/svg">
<g clip-path="url(#clip0_3_8)">
<rect width="1000" height="500" fill="url(#paint0_linear_3_8)"/>
<path d="M312.996 204L303.16 173.5C303.108 173.219 303.028 172.945 302.922 172.68L283.195 111.375C282.678 109.799 281.675 108.427 280.329 107.458C278.984 106.488 277.366 105.969 275.707 105.977C274.053 105.972 272.44 106.498 271.108 107.478C269.775 108.459 268.793 109.841 268.305 111.422L249.5 169.84H190.125L171.305 111.418C170.819 109.843 169.842 108.464 168.516 107.484C167.191 106.504 165.586 105.975 163.938 105.973H163.895C162.232 105.978 160.613 106.511 159.271 107.493C157.93 108.476 156.933 109.858 156.426 111.441L136.68 172.801C136.68 172.855 136.637 172.902 136.617 172.957L126.606 204.004C125.868 206.278 125.865 208.726 126.597 211.002C127.329 213.278 128.759 215.266 130.684 216.684L217.184 280.125C217.943 280.681 218.861 280.978 219.801 280.973C220.742 280.968 221.657 280.661 222.41 280.098L308.926 216.684C310.851 215.265 312.28 213.276 313.011 211C313.742 208.723 313.736 206.274 312.996 204ZM183.699 178.801L207.813 253.707L149.934 178.801M231.824 253.723L254.945 181.91L255.941 178.785H289.738L237.371 246.516M275.781 117.168L292.723 169.836H258.809M246.625 178.766L229.828 230.945L219.805 262.023L193.023 178.766M163.856 117.168L180.832 169.836H146.953M135.891 209.461C135.482 209.159 135.178 208.737 135.024 208.253C134.869 207.769 134.87 207.249 135.027 206.766L142.449 183.719L196.984 254.262M303.727 209.461L242.625 254.242L242.828 253.973L297.148 183.703L304.57 206.75C304.73 207.233 304.733 207.755 304.58 208.24C304.426 208.725 304.123 209.15 303.715 209.453" fill="#F7F7F7"/>
<rect x="365.682" y="-23.51" width="418" height="818.138" transform="rotate(-28.3711 365.682 -23.51)" fill="#F7F7F7"/>
<g filter="url(#filter0_d_3_8)">
<path d="M626.828 205.68H633.836C633.695 207.977 633.062 210.016 631.938 211.797C630.828 213.578 629.273 214.969 627.273 215.969C625.289 216.969 622.898 217.469 620.102 217.469C617.914 217.469 615.953 217.094 614.219 216.344C612.484 215.578 611 214.484 609.766 213.062C608.547 211.641 607.617 209.922 606.977 207.906C606.336 205.891 606.016 203.633 606.016 201.133V198.766C606.016 196.266 606.344 194.008 607 191.992C607.672 189.961 608.625 188.234 609.859 186.812C611.109 185.391 612.602 184.297 614.336 183.531C616.07 182.766 618.008 182.383 620.148 182.383C622.992 182.383 625.391 182.898 627.344 183.93C629.312 184.961 630.836 186.383 631.914 188.195C633.008 190.008 633.664 192.07 633.883 194.383H626.852C626.773 193.008 626.5 191.844 626.031 190.891C625.562 189.922 624.852 189.195 623.898 188.711C622.961 188.211 621.711 187.961 620.148 187.961C618.977 187.961 617.953 188.18 617.078 188.617C616.203 189.055 615.469 189.719 614.875 190.609C614.281 191.5 613.836 192.625 613.539 193.984C613.258 195.328 613.117 196.906 613.117 198.719V201.133C613.117 202.898 613.25 204.453 613.516 205.797C613.781 207.125 614.188 208.25 614.734 209.172C615.297 210.078 616.016 210.766 616.891 211.234C617.781 211.688 618.852 211.914 620.102 211.914C621.57 211.914 622.781 211.68 623.734 211.211C624.688 210.742 625.414 210.047 625.914 209.125C626.43 208.203 626.734 207.055 626.828 205.68ZM651.719 211.281V199.984C651.719 199.172 651.586 198.477 651.32 197.898C651.055 197.305 650.641 196.844 650.078 196.516C649.531 196.188 648.82 196.023 647.945 196.023C647.195 196.023 646.547 196.156 646 196.422C645.453 196.672 645.031 197.039 644.734 197.523C644.438 197.992 644.289 198.547 644.289 199.188H637.539C637.539 198.109 637.789 197.086 638.289 196.117C638.789 195.148 639.516 194.297 640.469 193.562C641.422 192.812 642.555 192.227 643.867 191.805C645.195 191.383 646.68 191.172 648.32 191.172C650.289 191.172 652.039 191.5 653.57 192.156C655.102 192.812 656.305 193.797 657.18 195.109C658.07 196.422 658.516 198.062 658.516 200.031V210.883C658.516 212.273 658.602 213.414 658.773 214.305C658.945 215.18 659.195 215.945 659.523 216.602V217H652.703C652.375 216.312 652.125 215.453 651.953 214.422C651.797 213.375 651.719 212.328 651.719 211.281ZM652.609 201.555L652.656 205.375H648.883C647.992 205.375 647.219 205.477 646.562 205.68C645.906 205.883 645.367 206.172 644.945 206.547C644.523 206.906 644.211 207.328 644.008 207.812C643.82 208.297 643.727 208.828 643.727 209.406C643.727 209.984 643.859 210.508 644.125 210.977C644.391 211.43 644.773 211.789 645.273 212.055C645.773 212.305 646.359 212.43 647.031 212.43C648.047 212.43 648.93 212.227 649.68 211.82C650.43 211.414 651.008 210.914 651.414 210.32C651.836 209.727 652.055 209.164 652.07 208.633L653.852 211.492C653.602 212.133 653.258 212.797 652.82 213.484C652.398 214.172 651.859 214.82 651.203 215.43C650.547 216.023 649.758 216.516 648.836 216.906C647.914 217.281 646.82 217.469 645.555 217.469C643.945 217.469 642.484 217.148 641.172 216.508C639.875 215.852 638.844 214.953 638.078 213.812C637.328 212.656 636.953 211.344 636.953 209.875C636.953 208.547 637.203 207.367 637.703 206.336C638.203 205.305 638.938 204.438 639.906 203.734C640.891 203.016 642.117 202.477 643.586 202.117C645.055 201.742 646.758 201.555 648.695 201.555H652.609ZM670.469 197.172V217H663.719V191.641H670.07L670.469 197.172ZM678.109 191.477L677.992 197.734C677.664 197.688 677.266 197.648 676.797 197.617C676.344 197.57 675.93 197.547 675.555 197.547C674.602 197.547 673.773 197.672 673.07 197.922C672.383 198.156 671.805 198.508 671.336 198.977C670.883 199.445 670.539 200.016 670.305 200.688C670.086 201.359 669.961 202.125 669.93 202.984L668.57 202.562C668.57 200.922 668.734 199.414 669.062 198.039C669.391 196.648 669.867 195.438 670.492 194.406C671.133 193.375 671.914 192.578 672.836 192.016C673.758 191.453 674.812 191.172 676 191.172C676.375 191.172 676.758 191.203 677.148 191.266C677.539 191.312 677.859 191.383 678.109 191.477ZM694.188 211.281V199.984C694.188 199.172 694.055 198.477 693.789 197.898C693.523 197.305 693.109 196.844 692.547 196.516C692 196.188 691.289 196.023 690.414 196.023C689.664 196.023 689.016 196.156 688.469 196.422C687.922 196.672 687.5 197.039 687.203 197.523C686.906 197.992 686.758 198.547 686.758 199.188H680.008C680.008 198.109 680.258 197.086 680.758 196.117C681.258 195.148 681.984 194.297 682.938 193.562C683.891 192.812 685.023 192.227 686.336 191.805C687.664 191.383 689.148 191.172 690.789 191.172C692.758 191.172 694.508 191.5 696.039 192.156C697.57 192.812 698.773 193.797 699.648 195.109C700.539 196.422 700.984 198.062 700.984 200.031V210.883C700.984 212.273 701.07 213.414 701.242 214.305C701.414 215.18 701.664 215.945 701.992 216.602V217H695.172C694.844 216.312 694.594 215.453 694.422 214.422C694.266 213.375 694.188 212.328 694.188 211.281ZM695.078 201.555L695.125 205.375H691.352C690.461 205.375 689.688 205.477 689.031 205.68C688.375 205.883 687.836 206.172 687.414 206.547C686.992 206.906 686.68 207.328 686.477 207.812C686.289 208.297 686.195 208.828 686.195 209.406C686.195 209.984 686.328 210.508 686.594 210.977C686.859 211.43 687.242 211.789 687.742 212.055C688.242 212.305 688.828 212.43 689.5 212.43C690.516 212.43 691.398 212.227 692.148 211.82C692.898 211.414 693.477 210.914 693.883 210.32C694.305 209.727 694.523 209.164 694.539 208.633L696.32 211.492C696.07 212.133 695.727 212.797 695.289 213.484C694.867 214.172 694.328 214.82 693.672 215.43C693.016 216.023 692.227 216.516 691.305 216.906C690.383 217.281 689.289 217.469 688.023 217.469C686.414 217.469 684.953 217.148 683.641 216.508C682.344 215.852 681.312 214.953 680.547 213.812C679.797 212.656 679.422 211.344 679.422 209.875C679.422 208.547 679.672 207.367 680.172 206.336C680.672 205.305 681.406 204.438 682.375 203.734C683.359 203.016 684.586 202.477 686.055 202.117C687.523 201.742 689.227 201.555 691.164 201.555H695.078ZM721.773 182.875H727.727L736.492 207.93L745.258 182.875H751.211L738.883 217H734.102L721.773 182.875ZM718.562 182.875H724.492L725.57 207.297V217H718.562V182.875ZM748.492 182.875H754.445V217H747.414V207.297L748.492 182.875ZM771.859 217.469C769.891 217.469 768.125 217.156 766.562 216.531C765 215.891 763.672 215.008 762.578 213.883C761.5 212.758 760.672 211.453 760.094 209.969C759.516 208.469 759.227 206.875 759.227 205.188V204.25C759.227 202.328 759.5 200.57 760.047 198.977C760.594 197.383 761.375 196 762.391 194.828C763.422 193.656 764.672 192.758 766.141 192.133C767.609 191.492 769.266 191.172 771.109 191.172C772.906 191.172 774.5 191.469 775.891 192.062C777.281 192.656 778.445 193.5 779.383 194.594C780.336 195.688 781.055 197 781.539 198.531C782.023 200.047 782.266 201.734 782.266 203.594V206.406H762.109V201.906H775.633V201.391C775.633 200.453 775.461 199.617 775.117 198.883C774.789 198.133 774.289 197.539 773.617 197.102C772.945 196.664 772.086 196.445 771.039 196.445C770.148 196.445 769.383 196.641 768.742 197.031C768.102 197.422 767.578 197.969 767.172 198.672C766.781 199.375 766.484 200.203 766.281 201.156C766.094 202.094 766 203.125 766 204.25V205.188C766 206.203 766.141 207.141 766.422 208C766.719 208.859 767.133 209.602 767.664 210.227C768.211 210.852 768.867 211.336 769.633 211.68C770.414 212.023 771.297 212.195 772.281 212.195C773.5 212.195 774.633 211.961 775.68 211.492C776.742 211.008 777.656 210.281 778.422 209.312L781.703 212.875C781.172 213.641 780.445 214.375 779.523 215.078C778.617 215.781 777.523 216.359 776.242 216.812C774.961 217.25 773.5 217.469 771.859 217.469ZM792.859 196.891V217H786.086V191.641H792.438L792.859 196.891ZM791.922 203.43H790.047C790.047 201.664 790.258 200.039 790.68 198.555C791.117 197.055 791.75 195.758 792.578 194.664C793.422 193.555 794.461 192.695 795.695 192.086C796.93 191.477 798.359 191.172 799.984 191.172C801.109 191.172 802.141 191.344 803.078 191.688C804.016 192.016 804.82 192.539 805.492 193.258C806.18 193.961 806.711 194.883 807.086 196.023C807.461 197.148 807.648 198.5 807.648 200.078V217H800.898V200.828C800.898 199.672 800.742 198.781 800.43 198.156C800.117 197.531 799.672 197.094 799.094 196.844C798.531 196.594 797.852 196.469 797.055 196.469C796.18 196.469 795.414 196.648 794.758 197.008C794.117 197.367 793.586 197.867 793.164 198.508C792.742 199.133 792.43 199.867 792.227 200.711C792.023 201.555 791.922 202.461 791.922 203.43ZM807.016 202.656L804.602 202.961C804.602 201.305 804.805 199.766 805.211 198.344C805.633 196.922 806.25 195.672 807.062 194.594C807.891 193.516 808.914 192.68 810.133 192.086C811.352 191.477 812.758 191.172 814.352 191.172C815.57 191.172 816.68 191.352 817.68 191.711C818.68 192.055 819.531 192.609 820.234 193.375C820.953 194.125 821.5 195.109 821.875 196.328C822.266 197.547 822.461 199.039 822.461 200.805V217H815.688V200.805C815.688 199.633 815.531 198.742 815.219 198.133C814.922 197.508 814.484 197.078 813.906 196.844C813.344 196.594 812.672 196.469 811.891 196.469C811.078 196.469 810.367 196.633 809.758 196.961C809.148 197.273 808.641 197.711 808.234 198.273C807.828 198.836 807.523 199.492 807.32 200.242C807.117 200.977 807.016 201.781 807.016 202.656ZM827.688 181H834.438V211.188L833.758 217H827.688V181ZM850.492 204.062V204.555C850.492 206.445 850.289 208.18 849.883 209.758C849.492 211.336 848.883 212.703 848.055 213.859C847.227 215 846.195 215.891 844.961 216.531C843.742 217.156 842.305 217.469 840.648 217.469C839.102 217.469 837.758 217.156 836.617 216.531C835.492 215.906 834.547 215.023 833.781 213.883C833.016 212.742 832.398 211.406 831.93 209.875C831.461 208.344 831.109 206.672 830.875 204.859V203.781C831.109 201.969 831.461 200.297 831.93 198.766C832.398 197.234 833.016 195.898 833.781 194.758C834.547 193.617 835.492 192.734 836.617 192.109C837.742 191.484 839.07 191.172 840.602 191.172C842.273 191.172 843.727 191.492 844.961 192.133C846.211 192.758 847.242 193.648 848.055 194.805C848.883 195.945 849.492 197.305 849.883 198.883C850.289 200.445 850.492 202.172 850.492 204.062ZM843.742 204.555V204.062C843.742 203.031 843.664 202.062 843.508 201.156C843.367 200.234 843.117 199.43 842.758 198.742C842.398 198.039 841.906 197.484 841.281 197.078C840.672 196.672 839.883 196.469 838.914 196.469C837.992 196.469 837.211 196.625 836.57 196.938C835.93 197.25 835.398 197.688 834.977 198.25C834.57 198.812 834.266 199.484 834.062 200.266C833.859 201.031 833.734 201.875 833.688 202.797V205.867C833.734 207.102 833.938 208.195 834.297 209.148C834.672 210.086 835.234 210.828 835.984 211.375C836.75 211.906 837.742 212.172 838.961 212.172C839.914 212.172 840.703 211.984 841.328 211.609C841.953 211.234 842.438 210.703 842.781 210.016C843.141 209.328 843.391 208.523 843.531 207.602C843.672 206.664 843.742 205.648 843.742 204.555ZM869.688 210.93V191.641H876.438V217H870.086L869.688 210.93ZM870.438 205.727L872.43 205.68C872.43 207.367 872.234 208.938 871.844 210.391C871.453 211.828 870.867 213.078 870.086 214.141C869.305 215.188 868.32 216.008 867.133 216.602C865.945 217.18 864.547 217.469 862.938 217.469C861.703 217.469 860.562 217.297 859.516 216.953C858.484 216.594 857.594 216.039 856.844 215.289C856.109 214.523 855.531 213.547 855.109 212.359C854.703 211.156 854.5 209.711 854.5 208.023V191.641H861.25V208.07C861.25 208.82 861.336 209.453 861.508 209.969C861.695 210.484 861.953 210.906 862.281 211.234C862.609 211.562 862.992 211.797 863.43 211.938C863.883 212.078 864.383 212.148 864.93 212.148C866.32 212.148 867.414 211.867 868.211 211.305C869.023 210.742 869.594 209.977 869.922 209.008C870.266 208.023 870.438 206.93 870.438 205.727ZM895.281 211.281V199.984C895.281 199.172 895.148 198.477 894.883 197.898C894.617 197.305 894.203 196.844 893.641 196.516C893.094 196.188 892.383 196.023 891.508 196.023C890.758 196.023 890.109 196.156 889.562 196.422C889.016 196.672 888.594 197.039 888.297 197.523C888 197.992 887.852 198.547 887.852 199.188H881.102C881.102 198.109 881.352 197.086 881.852 196.117C882.352 195.148 883.078 194.297 884.031 193.562C884.984 192.812 886.117 192.227 887.43 191.805C888.758 191.383 890.242 191.172 891.883 191.172C893.852 191.172 895.602 191.5 897.133 192.156C898.664 192.812 899.867 193.797 900.742 195.109C901.633 196.422 902.078 198.062 902.078 200.031V210.883C902.078 212.273 902.164 213.414 902.336 214.305C902.508 215.18 902.758 215.945 903.086 216.602V217H896.266C895.938 216.312 895.688 215.453 895.516 214.422C895.359 213.375 895.281 212.328 895.281 211.281ZM896.172 201.555L896.219 205.375H892.445C891.555 205.375 890.781 205.477 890.125 205.68C889.469 205.883 888.93 206.172 888.508 206.547C888.086 206.906 887.773 207.328 887.57 207.812C887.383 208.297 887.289 208.828 887.289 209.406C887.289 209.984 887.422 210.508 887.688 210.977C887.953 211.43 888.336 211.789 888.836 212.055C889.336 212.305 889.922 212.43 890.594 212.43C891.609 212.43 892.492 212.227 893.242 211.82C893.992 211.414 894.57 210.914 894.977 210.32C895.398 209.727 895.617 209.164 895.633 208.633L897.414 211.492C897.164 212.133 896.82 212.797 896.383 213.484C895.961 214.172 895.422 214.82 894.766 215.43C894.109 216.023 893.32 216.516 892.398 216.906C891.477 217.281 890.383 217.469 889.117 217.469C887.508 217.469 886.047 217.148 884.734 216.508C883.438 215.852 882.406 214.953 881.641 213.812C880.891 212.656 880.516 211.344 880.516 209.875C880.516 208.547 880.766 207.367 881.266 206.336C881.766 205.305 882.5 204.438 883.469 203.734C884.453 203.016 885.68 202.477 887.148 202.117C888.617 201.742 890.32 201.555 892.258 201.555H896.172ZM919.703 191.641V196.422H904.938V191.641H919.703ZM908.594 185.383H915.344V209.359C915.344 210.094 915.438 210.656 915.625 211.047C915.828 211.438 916.125 211.711 916.516 211.867C916.906 212.008 917.398 212.078 917.992 212.078C918.414 212.078 918.789 212.062 919.117 212.031C919.461 211.984 919.75 211.938 919.984 211.891L920.008 216.859C919.43 217.047 918.805 217.195 918.133 217.305C917.461 217.414 916.719 217.469 915.906 217.469C914.422 217.469 913.125 217.227 912.016 216.742C910.922 216.242 910.078 215.445 909.484 214.352C908.891 213.258 908.594 211.82 908.594 210.039V185.383ZM607.047 238.875H619.773C622.383 238.875 624.625 239.266 626.5 240.047C628.391 240.828 629.844 241.984 630.859 243.516C631.875 245.047 632.383 246.93 632.383 249.164C632.383 250.992 632.07 252.562 631.445 253.875C630.836 255.172 629.969 256.258 628.844 257.133C627.734 257.992 626.43 258.68 624.93 259.195L622.703 260.367H611.641L611.594 254.883H619.82C621.055 254.883 622.078 254.664 622.891 254.227C623.703 253.789 624.312 253.18 624.719 252.398C625.141 251.617 625.352 250.711 625.352 249.68C625.352 248.586 625.148 247.641 624.742 246.844C624.336 246.047 623.719 245.438 622.891 245.016C622.062 244.594 621.023 244.383 619.773 244.383H614.078V273H607.047V238.875ZM626.125 273L618.344 257.789L625.773 257.742L633.648 272.672V273H626.125ZM649.047 273.469C647.078 273.469 645.312 273.156 643.75 272.531C642.188 271.891 640.859 271.008 639.766 269.883C638.688 268.758 637.859 267.453 637.281 265.969C636.703 264.469 636.414 262.875 636.414 261.188V260.25C636.414 258.328 636.688 256.57 637.234 254.977C637.781 253.383 638.562 252 639.578 250.828C640.609 249.656 641.859 248.758 643.328 248.133C644.797 247.492 646.453 247.172 648.297 247.172C650.094 247.172 651.688 247.469 653.078 248.062C654.469 248.656 655.633 249.5 656.57 250.594C657.523 251.688 658.242 253 658.727 254.531C659.211 256.047 659.453 257.734 659.453 259.594V262.406H639.297V257.906H652.82V257.391C652.82 256.453 652.648 255.617 652.305 254.883C651.977 254.133 651.477 253.539 650.805 253.102C650.133 252.664 649.273 252.445 648.227 252.445C647.336 252.445 646.57 252.641 645.93 253.031C645.289 253.422 644.766 253.969 644.359 254.672C643.969 255.375 643.672 256.203 643.469 257.156C643.281 258.094 643.188 259.125 643.188 260.25V261.188C643.188 262.203 643.328 263.141 643.609 264C643.906 264.859 644.32 265.602 644.852 266.227C645.398 266.852 646.055 267.336 646.82 267.68C647.602 268.023 648.484 268.195 649.469 268.195C650.688 268.195 651.82 267.961 652.867 267.492C653.93 267.008 654.844 266.281 655.609 265.312L658.891 268.875C658.359 269.641 657.633 270.375 656.711 271.078C655.805 271.781 654.711 272.359 653.43 272.812C652.148 273.25 650.688 273.469 649.047 273.469ZM670.047 252.516V282.75H663.297V247.641H669.555L670.047 252.516ZM686.102 260.039V260.531C686.102 262.375 685.883 264.086 685.445 265.664C685.023 267.242 684.398 268.617 683.57 269.789C682.742 270.945 681.711 271.852 680.477 272.508C679.258 273.148 677.852 273.469 676.258 273.469C674.711 273.469 673.367 273.156 672.227 272.531C671.086 271.906 670.125 271.031 669.344 269.906C668.578 268.766 667.961 267.445 667.492 265.945C667.023 264.445 666.664 262.836 666.414 261.117V259.828C666.664 257.984 667.023 256.297 667.492 254.766C667.961 253.219 668.578 251.883 669.344 250.758C670.125 249.617 671.078 248.734 672.203 248.109C673.344 247.484 674.68 247.172 676.211 247.172C677.82 247.172 679.234 247.477 680.453 248.086C681.688 248.695 682.719 249.57 683.547 250.711C684.391 251.852 685.023 253.211 685.445 254.789C685.883 256.367 686.102 258.117 686.102 260.039ZM679.328 260.531V260.039C679.328 258.961 679.234 257.969 679.047 257.062C678.875 256.141 678.594 255.336 678.203 254.648C677.828 253.961 677.328 253.43 676.703 253.055C676.094 252.664 675.352 252.469 674.477 252.469C673.555 252.469 672.766 252.617 672.109 252.914C671.469 253.211 670.945 253.641 670.539 254.203C670.133 254.766 669.828 255.438 669.625 256.219C669.422 257 669.297 257.883 669.25 258.867V262.125C669.328 263.281 669.547 264.32 669.906 265.242C670.266 266.148 670.82 266.867 671.57 267.398C672.32 267.93 673.305 268.195 674.523 268.195C675.414 268.195 676.164 268 676.773 267.609C677.383 267.203 677.875 266.648 678.25 265.945C678.641 265.242 678.914 264.43 679.07 263.508C679.242 262.586 679.328 261.594 679.328 260.531ZM689.219 260.578V260.086C689.219 258.227 689.484 256.516 690.016 254.953C690.547 253.375 691.32 252.008 692.336 250.852C693.352 249.695 694.602 248.797 696.086 248.156C697.57 247.5 699.273 247.172 701.195 247.172C703.117 247.172 704.828 247.5 706.328 248.156C707.828 248.797 709.086 249.695 710.102 250.852C711.133 252.008 711.914 253.375 712.445 254.953C712.977 256.516 713.242 258.227 713.242 260.086V260.578C713.242 262.422 712.977 264.133 712.445 265.711C711.914 267.273 711.133 268.641 710.102 269.812C709.086 270.969 707.836 271.867 706.352 272.508C704.867 273.148 703.164 273.469 701.242 273.469C699.32 273.469 697.609 273.148 696.109 272.508C694.625 271.867 693.367 270.969 692.336 269.812C691.32 268.641 690.547 267.273 690.016 265.711C689.484 264.133 689.219 262.422 689.219 260.578ZM695.969 260.086V260.578C695.969 261.641 696.062 262.633 696.25 263.555C696.438 264.477 696.734 265.289 697.141 265.992C697.562 266.68 698.109 267.219 698.781 267.609C699.453 268 700.273 268.195 701.242 268.195C702.18 268.195 702.984 268 703.656 267.609C704.328 267.219 704.867 266.68 705.273 265.992C705.68 265.289 705.977 264.477 706.164 263.555C706.367 262.633 706.469 261.641 706.469 260.578V260.086C706.469 259.055 706.367 258.086 706.164 257.18C705.977 256.258 705.672 255.445 705.25 254.742C704.844 254.023 704.305 253.461 703.633 253.055C702.961 252.648 702.148 252.445 701.195 252.445C700.242 252.445 699.43 252.648 698.758 253.055C698.102 253.461 697.562 254.023 697.141 254.742C696.734 255.445 696.438 256.258 696.25 257.18C696.062 258.086 695.969 259.055 695.969 260.086ZM731.102 265.992C731.102 265.508 730.961 265.07 730.68 264.68C730.398 264.289 729.875 263.93 729.109 263.602C728.359 263.258 727.273 262.945 725.852 262.664C724.57 262.383 723.375 262.031 722.266 261.609C721.172 261.172 720.219 260.648 719.406 260.039C718.609 259.43 717.984 258.711 717.531 257.883C717.078 257.039 716.852 256.078 716.852 255C716.852 253.938 717.078 252.938 717.531 252C718 251.062 718.664 250.234 719.523 249.516C720.398 248.781 721.461 248.211 722.711 247.805C723.977 247.383 725.398 247.172 726.977 247.172C729.18 247.172 731.07 247.523 732.648 248.227C734.242 248.93 735.461 249.898 736.305 251.133C737.164 252.352 737.594 253.742 737.594 255.305H730.844C730.844 254.648 730.703 254.062 730.422 253.547C730.156 253.016 729.734 252.602 729.156 252.305C728.594 251.992 727.859 251.836 726.953 251.836C726.203 251.836 725.555 251.969 725.008 252.234C724.461 252.484 724.039 252.828 723.742 253.266C723.461 253.688 723.32 254.156 723.32 254.672C723.32 255.062 723.398 255.414 723.555 255.727C723.727 256.023 724 256.297 724.375 256.547C724.75 256.797 725.234 257.031 725.828 257.25C726.438 257.453 727.188 257.641 728.078 257.812C729.906 258.188 731.539 258.68 732.977 259.289C734.414 259.883 735.555 260.695 736.398 261.727C737.242 262.742 737.664 264.078 737.664 265.734C737.664 266.859 737.414 267.891 736.914 268.828C736.414 269.766 735.695 270.586 734.758 271.289C733.82 271.977 732.695 272.516 731.383 272.906C730.086 273.281 728.625 273.469 727 273.469C724.641 273.469 722.641 273.047 721 272.203C719.375 271.359 718.141 270.289 717.297 268.992C716.469 267.68 716.055 266.336 716.055 264.961H722.453C722.484 265.883 722.719 266.625 723.156 267.188C723.609 267.75 724.18 268.156 724.867 268.406C725.57 268.656 726.328 268.781 727.141 268.781C728.016 268.781 728.742 268.664 729.32 268.43C729.898 268.18 730.336 267.852 730.633 267.445C730.945 267.023 731.102 266.539 731.102 265.992ZM749.172 247.641V273H742.398V247.641H749.172ZM741.977 241.031C741.977 240.047 742.32 239.234 743.008 238.594C743.695 237.953 744.617 237.633 745.773 237.633C746.914 237.633 747.828 237.953 748.516 238.594C749.219 239.234 749.57 240.047 749.57 241.031C749.57 242.016 749.219 242.828 748.516 243.469C747.828 244.109 746.914 244.43 745.773 244.43C744.617 244.43 743.695 244.109 743.008 243.469C742.32 242.828 741.977 242.016 741.977 241.031ZM767.172 247.641V252.422H752.406V247.641H767.172ZM756.062 241.383H762.812V265.359C762.812 266.094 762.906 266.656 763.094 267.047C763.297 267.438 763.594 267.711 763.984 267.867C764.375 268.008 764.867 268.078 765.461 268.078C765.883 268.078 766.258 268.062 766.586 268.031C766.93 267.984 767.219 267.938 767.453 267.891L767.477 272.859C766.898 273.047 766.273 273.195 765.602 273.305C764.93 273.414 764.188 273.469 763.375 273.469C761.891 273.469 760.594 273.227 759.484 272.742C758.391 272.242 757.547 271.445 756.953 270.352C756.359 269.258 756.062 267.82 756.062 266.039V241.383ZM769.328 260.578V260.086C769.328 258.227 769.594 256.516 770.125 254.953C770.656 253.375 771.43 252.008 772.445 250.852C773.461 249.695 774.711 248.797 776.195 248.156C777.68 247.5 779.383 247.172 781.305 247.172C783.227 247.172 784.938 247.5 786.438 248.156C787.938 248.797 789.195 249.695 790.211 250.852C791.242 252.008 792.023 253.375 792.555 254.953C793.086 256.516 793.352 258.227 793.352 260.086V260.578C793.352 262.422 793.086 264.133 792.555 265.711C792.023 267.273 791.242 268.641 790.211 269.812C789.195 270.969 787.945 271.867 786.461 272.508C784.977 273.148 783.273 273.469 781.352 273.469C779.43 273.469 777.719 273.148 776.219 272.508C774.734 271.867 773.477 270.969 772.445 269.812C771.43 268.641 770.656 267.273 770.125 265.711C769.594 264.133 769.328 262.422 769.328 260.578ZM776.078 260.086V260.578C776.078 261.641 776.172 262.633 776.359 263.555C776.547 264.477 776.844 265.289 777.25 265.992C777.672 266.68 778.219 267.219 778.891 267.609C779.562 268 780.383 268.195 781.352 268.195C782.289 268.195 783.094 268 783.766 267.609C784.438 267.219 784.977 266.68 785.383 265.992C785.789 265.289 786.086 264.477 786.273 263.555C786.477 262.633 786.578 261.641 786.578 260.578V260.086C786.578 259.055 786.477 258.086 786.273 257.18C786.086 256.258 785.781 255.445 785.359 254.742C784.953 254.023 784.414 253.461 783.742 253.055C783.07 252.648 782.258 252.445 781.305 252.445C780.352 252.445 779.539 252.648 778.867 253.055C778.211 253.461 777.672 254.023 777.25 254.742C776.844 255.445 776.547 256.258 776.359 257.18C776.172 258.086 776.078 259.055 776.078 260.086ZM804.25 253.172V273H797.5V247.641H803.852L804.25 253.172ZM811.891 247.477L811.773 253.734C811.445 253.688 811.047 253.648 810.578 253.617C810.125 253.57 809.711 253.547 809.336 253.547C808.383 253.547 807.555 253.672 806.852 253.922C806.164 254.156 805.586 254.508 805.117 254.977C804.664 255.445 804.32 256.016 804.086 256.688C803.867 257.359 803.742 258.125 803.711 258.984L802.352 258.562C802.352 256.922 802.516 255.414 802.844 254.039C803.172 252.648 803.648 251.438 804.273 250.406C804.914 249.375 805.695 248.578 806.617 248.016C807.539 247.453 808.594 247.172 809.781 247.172C810.156 247.172 810.539 247.203 810.93 247.266C811.32 247.312 811.641 247.383 811.891 247.477ZM823.023 270.141L829.75 247.641H836.992L826.797 276.82C826.578 277.461 826.281 278.148 825.906 278.883C825.547 279.617 825.055 280.312 824.43 280.969C823.82 281.641 823.047 282.188 822.109 282.609C821.188 283.031 820.055 283.242 818.711 283.242C818.07 283.242 817.547 283.203 817.141 283.125C816.734 283.047 816.25 282.938 815.688 282.797V277.852C815.859 277.852 816.039 277.852 816.227 277.852C816.414 277.867 816.594 277.875 816.766 277.875C817.656 277.875 818.383 277.773 818.945 277.57C819.508 277.367 819.961 277.055 820.305 276.633C820.648 276.227 820.922 275.695 821.125 275.039L823.023 270.141ZM820.211 247.641L825.719 266.016L826.68 273.164L822.086 273.656L812.969 247.641H820.211ZM866.617 267.469V237H873.414V273H867.297L866.617 267.469ZM850.586 260.625V260.133C850.586 258.195 850.805 256.438 851.242 254.859C851.68 253.266 852.32 251.898 853.164 250.758C854.008 249.617 855.047 248.734 856.281 248.109C857.516 247.484 858.922 247.172 860.5 247.172C861.984 247.172 863.281 247.484 864.391 248.109C865.516 248.734 866.469 249.625 867.25 250.781C868.047 251.922 868.688 253.273 869.172 254.836C869.656 256.383 870.008 258.078 870.227 259.922V261C870.008 262.766 869.656 264.406 869.172 265.922C868.688 267.438 868.047 268.766 867.25 269.906C866.469 271.031 865.516 271.906 864.391 272.531C863.266 273.156 861.953 273.469 860.453 273.469C858.875 273.469 857.469 273.148 856.234 272.508C855.016 271.867 853.984 270.969 853.141 269.812C852.312 268.656 851.68 267.297 851.242 265.734C850.805 264.172 850.586 262.469 850.586 260.625ZM857.336 260.133V260.625C857.336 261.672 857.414 262.648 857.57 263.555C857.742 264.461 858.016 265.266 858.391 265.969C858.781 266.656 859.281 267.195 859.891 267.586C860.516 267.961 861.273 268.148 862.164 268.148C863.32 268.148 864.273 267.891 865.023 267.375C865.773 266.844 866.344 266.117 866.734 265.195C867.141 264.273 867.375 263.211 867.438 262.008V258.938C867.391 257.953 867.25 257.07 867.016 256.289C866.797 255.492 866.469 254.812 866.031 254.25C865.609 253.688 865.078 253.25 864.438 252.938C863.812 252.625 863.07 252.469 862.211 252.469C861.336 252.469 860.586 252.672 859.961 253.078C859.336 253.469 858.828 254.008 858.438 254.695C858.062 255.383 857.781 256.195 857.594 257.133C857.422 258.055 857.336 259.055 857.336 260.133ZM885.812 247.641V273H879.039V247.641H885.812ZM878.617 241.031C878.617 240.047 878.961 239.234 879.648 238.594C880.336 237.953 881.258 237.633 882.414 237.633C883.555 237.633 884.469 237.953 885.156 238.594C885.859 239.234 886.211 240.047 886.211 241.031C886.211 242.016 885.859 242.828 885.156 243.469C884.469 244.109 883.555 244.43 882.414 244.43C881.258 244.43 880.336 244.109 879.648 243.469C878.961 242.828 878.617 242.016 878.617 241.031ZM634.094 311.164V324.688C633.562 325.328 632.742 326.023 631.633 326.773C630.523 327.508 629.094 328.141 627.344 328.672C625.594 329.203 623.477 329.469 620.992 329.469C618.789 329.469 616.781 329.109 614.969 328.391C613.156 327.656 611.594 326.586 610.281 325.18C608.984 323.773 607.984 322.055 607.281 320.023C606.578 317.977 606.227 315.641 606.227 313.016V310.883C606.227 308.258 606.562 305.922 607.234 303.875C607.922 301.828 608.898 300.102 610.164 298.695C611.43 297.289 612.938 296.219 614.688 295.484C616.438 294.75 618.383 294.383 620.523 294.383C623.492 294.383 625.93 294.867 627.836 295.836C629.742 296.789 631.195 298.117 632.195 299.82C633.211 301.508 633.836 303.445 634.07 305.633H627.25C627.078 304.477 626.75 303.469 626.266 302.609C625.781 301.75 625.086 301.078 624.18 300.594C623.289 300.109 622.133 299.867 620.711 299.867C619.539 299.867 618.492 300.109 617.57 300.594C616.664 301.062 615.898 301.758 615.273 302.68C614.648 303.602 614.172 304.742 613.844 306.102C613.516 307.461 613.352 309.039 613.352 310.836V313.016C613.352 314.797 613.523 316.375 613.867 317.75C614.211 319.109 614.719 320.258 615.391 321.195C616.078 322.117 616.922 322.812 617.922 323.281C618.922 323.75 620.086 323.984 621.414 323.984C622.523 323.984 623.445 323.891 624.18 323.703C624.93 323.516 625.531 323.289 625.984 323.023C626.453 322.742 626.812 322.477 627.062 322.227V316.18H620.641V311.164H634.094ZM646.469 303.641V329H639.695V303.641H646.469ZM639.273 297.031C639.273 296.047 639.617 295.234 640.305 294.594C640.992 293.953 641.914 293.633 643.07 293.633C644.211 293.633 645.125 293.953 645.812 294.594C646.516 295.234 646.867 296.047 646.867 297.031C646.867 298.016 646.516 298.828 645.812 299.469C645.125 300.109 644.211 300.43 643.07 300.43C641.914 300.43 640.992 300.109 640.305 299.469C639.617 298.828 639.273 298.016 639.273 297.031ZM664.469 303.641V308.422H649.703V303.641H664.469ZM653.359 297.383H660.109V321.359C660.109 322.094 660.203 322.656 660.391 323.047C660.594 323.438 660.891 323.711 661.281 323.867C661.672 324.008 662.164 324.078 662.758 324.078C663.18 324.078 663.555 324.062 663.883 324.031C664.227 323.984 664.516 323.938 664.75 323.891L664.773 328.859C664.195 329.047 663.57 329.195 662.898 329.305C662.227 329.414 661.484 329.469 660.672 329.469C659.188 329.469 657.891 329.227 656.781 328.742C655.688 328.242 654.844 327.445 654.25 326.352C653.656 325.258 653.359 323.82 653.359 322.039V297.383ZM690.672 323.516V329H673.492V323.516H690.672ZM675.766 294.875V329H668.734V294.875H675.766ZM707.969 323.281V311.984C707.969 311.172 707.836 310.477 707.57 309.898C707.305 309.305 706.891 308.844 706.328 308.516C705.781 308.188 705.07 308.023 704.195 308.023C703.445 308.023 702.797 308.156 702.25 308.422C701.703 308.672 701.281 309.039 700.984 309.523C700.688 309.992 700.539 310.547 700.539 311.188H693.789C693.789 310.109 694.039 309.086 694.539 308.117C695.039 307.148 695.766 306.297 696.719 305.562C697.672 304.812 698.805 304.227 700.117 303.805C701.445 303.383 702.93 303.172 704.57 303.172C706.539 303.172 708.289 303.5 709.82 304.156C711.352 304.812 712.555 305.797 713.43 307.109C714.32 308.422 714.766 310.062 714.766 312.031V322.883C714.766 324.273 714.852 325.414 715.023 326.305C715.195 327.18 715.445 327.945 715.773 328.602V329H708.953C708.625 328.312 708.375 327.453 708.203 326.422C708.047 325.375 707.969 324.328 707.969 323.281ZM708.859 313.555L708.906 317.375H705.133C704.242 317.375 703.469 317.477 702.812 317.68C702.156 317.883 701.617 318.172 701.195 318.547C700.773 318.906 700.461 319.328 700.258 319.812C700.07 320.297 699.977 320.828 699.977 321.406C699.977 321.984 700.109 322.508 700.375 322.977C700.641 323.43 701.023 323.789 701.523 324.055C702.023 324.305 702.609 324.43 703.281 324.43C704.297 324.43 705.18 324.227 705.93 323.82C706.68 323.414 707.258 322.914 707.664 322.32C708.086 321.727 708.305 321.164 708.32 320.633L710.102 323.492C709.852 324.133 709.508 324.797 709.07 325.484C708.648 326.172 708.109 326.82 707.453 327.43C706.797 328.023 706.008 328.516 705.086 328.906C704.164 329.281 703.07 329.469 701.805 329.469C700.195 329.469 698.734 329.148 697.422 328.508C696.125 327.852 695.094 326.953 694.328 325.812C693.578 324.656 693.203 323.344 693.203 321.875C693.203 320.547 693.453 319.367 693.953 318.336C694.453 317.305 695.188 316.438 696.156 315.734C697.141 315.016 698.367 314.477 699.836 314.117C701.305 313.742 703.008 313.555 704.945 313.555H708.859ZM719.969 293H726.719V323.188L726.039 329H719.969V293ZM742.773 316.062V316.555C742.773 318.445 742.57 320.18 742.164 321.758C741.773 323.336 741.164 324.703 740.336 325.859C739.508 327 738.477 327.891 737.242 328.531C736.023 329.156 734.586 329.469 732.93 329.469C731.383 329.469 730.039 329.156 728.898 328.531C727.773 327.906 726.828 327.023 726.062 325.883C725.297 324.742 724.68 323.406 724.211 321.875C723.742 320.344 723.391 318.672 723.156 316.859V315.781C723.391 313.969 723.742 312.297 724.211 310.766C724.68 309.234 725.297 307.898 726.062 306.758C726.828 305.617 727.773 304.734 728.898 304.109C730.023 303.484 731.352 303.172 732.883 303.172C734.555 303.172 736.008 303.492 737.242 304.133C738.492 304.758 739.523 305.648 740.336 306.805C741.164 307.945 741.773 309.305 742.164 310.883C742.57 312.445 742.773 314.172 742.773 316.062ZM736.023 316.555V316.062C736.023 315.031 735.945 314.062 735.789 313.156C735.648 312.234 735.398 311.43 735.039 310.742C734.68 310.039 734.188 309.484 733.562 309.078C732.953 308.672 732.164 308.469 731.195 308.469C730.273 308.469 729.492 308.625 728.852 308.938C728.211 309.25 727.68 309.688 727.258 310.25C726.852 310.812 726.547 311.484 726.344 312.266C726.141 313.031 726.016 313.875 725.969 314.797V317.867C726.016 319.102 726.219 320.195 726.578 321.148C726.953 322.086 727.516 322.828 728.266 323.375C729.031 323.906 730.023 324.172 731.242 324.172C732.195 324.172 732.984 323.984 733.609 323.609C734.234 323.234 734.719 322.703 735.062 322.016C735.422 321.328 735.672 320.523 735.812 319.602C735.953 318.664 736.023 317.648 736.023 316.555Z" fill="#FB6D27"/>
</g>
<path d="M179.672 323.562V336.594C179.188 337.234 178.43 337.938 177.398 338.703C176.383 339.453 175.031 340.102 173.344 340.648C171.656 341.195 169.555 341.469 167.039 341.469C164.898 341.469 162.938 341.109 161.156 340.391C159.375 339.656 157.836 338.586 156.539 337.18C155.258 335.773 154.266 334.062 153.562 332.047C152.859 330.016 152.508 327.703 152.508 325.109V322.742C152.508 320.164 152.828 317.867 153.469 315.852C154.125 313.82 155.062 312.102 156.281 310.695C157.5 309.289 158.969 308.227 160.688 307.508C162.422 306.773 164.383 306.406 166.57 306.406C169.367 306.406 171.68 306.875 173.508 307.812C175.352 308.734 176.773 310.016 177.773 311.656C178.773 313.297 179.406 315.172 179.672 317.281H173.906C173.719 316.094 173.352 315.031 172.805 314.094C172.273 313.156 171.508 312.422 170.508 311.891C169.523 311.344 168.242 311.07 166.664 311.07C165.305 311.07 164.109 311.328 163.078 311.844C162.047 312.359 161.188 313.117 160.5 314.117C159.828 315.117 159.32 316.336 158.977 317.773C158.633 319.211 158.461 320.852 158.461 322.695V325.109C158.461 326.984 158.656 328.648 159.047 330.102C159.453 331.555 160.031 332.781 160.781 333.781C161.547 334.781 162.477 335.539 163.57 336.055C164.664 336.555 165.898 336.805 167.273 336.805C168.617 336.805 169.719 336.695 170.578 336.477C171.438 336.242 172.117 335.969 172.617 335.656C173.133 335.328 173.531 335.016 173.812 334.719V327.945H166.711V323.562H179.672ZM191.672 315.641V341H186V315.641H191.672ZM185.625 308.984C185.625 308.125 185.906 307.414 186.469 306.852C187.047 306.273 187.844 305.984 188.859 305.984C189.859 305.984 190.648 306.273 191.227 306.852C191.805 307.414 192.094 308.125 192.094 308.984C192.094 309.828 191.805 310.531 191.227 311.094C190.648 311.656 189.859 311.938 188.859 311.938C187.844 311.938 187.047 311.656 186.469 311.094C185.906 310.531 185.625 309.828 185.625 308.984ZM209.484 315.641V319.766H195.188V315.641H209.484ZM199.312 309.43H204.961V333.992C204.961 334.773 205.07 335.375 205.289 335.797C205.523 336.203 205.844 336.477 206.25 336.617C206.656 336.758 207.133 336.828 207.68 336.828C208.07 336.828 208.445 336.805 208.805 336.758C209.164 336.711 209.453 336.664 209.672 336.617L209.695 340.93C209.227 341.07 208.68 341.195 208.055 341.305C207.445 341.414 206.742 341.469 205.945 341.469C204.648 341.469 203.5 341.242 202.5 340.789C201.5 340.32 200.719 339.562 200.156 338.516C199.594 337.469 199.312 336.078 199.312 334.344V309.43ZM235.781 336.336V341H218.648V336.336H235.781ZM220.289 306.875V341H214.406V306.875H220.289ZM254.062 335.914V323.82C254.062 322.914 253.898 322.133 253.57 321.477C253.242 320.82 252.742 320.312 252.07 319.953C251.414 319.594 250.586 319.414 249.586 319.414C248.664 319.414 247.867 319.57 247.195 319.883C246.523 320.195 246 320.617 245.625 321.148C245.25 321.68 245.062 322.281 245.062 322.953H239.438C239.438 321.953 239.68 320.984 240.164 320.047C240.648 319.109 241.352 318.273 242.273 317.539C243.195 316.805 244.297 316.227 245.578 315.805C246.859 315.383 248.297 315.172 249.891 315.172C251.797 315.172 253.484 315.492 254.953 316.133C256.438 316.773 257.602 317.742 258.445 319.039C259.305 320.32 259.734 321.93 259.734 323.867V335.141C259.734 336.297 259.812 337.336 259.969 338.258C260.141 339.164 260.383 339.953 260.695 340.625V341H254.906C254.641 340.391 254.43 339.617 254.273 338.68C254.133 337.727 254.062 336.805 254.062 335.914ZM254.883 325.578L254.93 329.07H250.875C249.828 329.07 248.906 329.172 248.109 329.375C247.312 329.562 246.648 329.844 246.117 330.219C245.586 330.594 245.188 331.047 244.922 331.578C244.656 332.109 244.523 332.711 244.523 333.383C244.523 334.055 244.68 334.672 244.992 335.234C245.305 335.781 245.758 336.211 246.352 336.523C246.961 336.836 247.695 336.992 248.555 336.992C249.711 336.992 250.719 336.758 251.578 336.289C252.453 335.805 253.141 335.219 253.641 334.531C254.141 333.828 254.406 333.164 254.438 332.539L256.266 335.047C256.078 335.688 255.758 336.375 255.305 337.109C254.852 337.844 254.258 338.547 253.523 339.219C252.805 339.875 251.938 340.414 250.922 340.836C249.922 341.258 248.766 341.469 247.453 341.469C245.797 341.469 244.32 341.141 243.023 340.484C241.727 339.812 240.711 338.914 239.977 337.789C239.242 336.648 238.875 335.359 238.875 333.922C238.875 332.578 239.125 331.391 239.625 330.359C240.141 329.312 240.891 328.438 241.875 327.734C242.875 327.031 244.094 326.5 245.531 326.141C246.969 325.766 248.609 325.578 250.453 325.578H254.883ZM265.664 305H271.312V335.586L270.773 341H265.664V305ZM287.859 328.086V328.578C287.859 330.453 287.648 332.18 287.227 333.758C286.82 335.32 286.195 336.68 285.352 337.836C284.523 338.992 283.492 339.891 282.258 340.531C281.039 341.156 279.625 341.469 278.016 341.469C276.438 341.469 275.062 341.172 273.891 340.578C272.719 339.984 271.734 339.141 270.938 338.047C270.156 336.953 269.523 335.648 269.039 334.133C268.555 332.617 268.211 330.945 268.008 329.117V327.547C268.211 325.703 268.555 324.031 269.039 322.531C269.523 321.016 270.156 319.711 270.938 318.617C271.734 317.508 272.711 316.656 273.867 316.062C275.039 315.469 276.406 315.172 277.969 315.172C279.594 315.172 281.023 315.484 282.258 316.109C283.508 316.734 284.547 317.625 285.375 318.781C286.203 319.922 286.82 321.281 287.227 322.859C287.648 324.438 287.859 326.18 287.859 328.086ZM282.211 328.578V328.086C282.211 326.945 282.117 325.875 281.93 324.875C281.742 323.859 281.43 322.969 280.992 322.203C280.57 321.438 279.992 320.836 279.258 320.398C278.539 319.945 277.641 319.719 276.562 319.719C275.562 319.719 274.703 319.891 273.984 320.234C273.266 320.578 272.664 321.047 272.18 321.641C271.695 322.234 271.312 322.922 271.031 323.703C270.766 324.484 270.586 325.328 270.492 326.234V330.477C270.633 331.648 270.93 332.727 271.383 333.711C271.852 334.68 272.508 335.461 273.352 336.055C274.195 336.633 275.281 336.922 276.609 336.922C277.656 336.922 278.539 336.711 279.258 336.289C279.977 335.867 280.547 335.281 280.969 334.531C281.406 333.766 281.719 332.875 281.906 331.859C282.109 330.844 282.211 329.75 282.211 328.578Z" fill="white"/>
</g>
<defs>
<filter id="filter0_d_3_8" x="601.016" y="181" width="323.992" height="158.469" filterUnits="userSpaceOnUse" color-interpolation-filters="sRGB">
<feFlood flood-opacity="0" result="BackgroundImageFix"/>
<feColorMatrix in="SourceAlpha" type="matrix" values="0 0 0 0 0 0 0 0 0 0 0 0 0 0 0 0 0 0 127 0" result="hardAlpha"/>
<feOffset dy="5"/>
<feGaussianBlur stdDeviation="2.5"/>
<feComposite in2="hardAlpha" operator="out"/>
<feColorMatrix type="matrix" values="0 0 0 0 0 0 0 0 0 0 0 0 0 0 0 0 0 0 0.25 0"/>
<feBlend mode="normal" in2="BackgroundImageFix" result="effect1_dropShadow_3_8"/>
<feBlend mode="normal" in="SourceGraphic" in2="effect1_dropShadow_3_8" result="shape"/>
</filter>
<linearGradient id="paint0_linear_3_8" x1="-6.00512e-06" y1="10.5" x2="1000" y2="500" gradientUnits="userSpaceOnUse">
<stop stop-color="#E14329"/>
<stop offset="1" stop-color="#FB6D27"/>
</linearGradient>
<clipPath id="clip0_3_8">
<rect width="1000" height="500" fill="white"/>
</clipPath>
</defs>
</svg>
