<svg width="1000" height="500" viewBox="0 0 1000 500" fill="none" xmlns="http://www.w3.org/2000/svg">
<g clip-path="url(#clip0_8_8)">
<rect width="1000" height="500" fill="url(#paint0_linear_8_8)"/>
<path d="M312.996 204L303.16 173.5C303.108 173.219 303.028 172.945 302.922 172.68L283.195 111.375C282.678 109.799 281.675 108.427 280.329 107.458C278.984 106.488 277.366 105.969 275.707 105.977C274.053 105.972 272.44 106.498 271.108 107.478C269.775 108.459 268.793 109.841 268.305 111.422L249.5 169.84H190.125L171.305 111.418C170.819 109.843 169.842 108.464 168.516 107.484C167.191 106.504 165.586 105.975 163.937 105.973H163.895C162.232 105.978 160.613 106.511 159.271 107.493C157.929 108.476 156.933 109.858 156.426 111.441L136.68 172.801C136.68 172.855 136.637 172.902 136.617 172.957L126.605 204.004C125.868 206.278 125.865 208.726 126.597 211.002C127.329 213.278 128.759 215.266 130.684 216.684L217.184 280.125C217.943 280.681 218.861 280.978 219.801 280.973C220.742 280.968 221.657 280.661 222.41 280.098L308.926 216.684C310.851 215.265 312.28 213.276 313.011 211C313.742 208.723 313.736 206.274 312.996 204ZM183.699 178.801L207.812 253.707L149.934 178.801M231.824 253.723L254.945 181.91L255.941 178.785H289.738L237.371 246.516M275.781 117.168L292.723 169.836H258.809M246.625 178.766L229.828 230.945L219.805 262.023L193.023 178.766M163.855 117.168L180.832 169.836H146.953M135.891 209.461C135.482 209.159 135.178 208.737 135.023 208.253C134.868 207.769 134.87 207.249 135.027 206.766L142.449 183.719L196.984 254.262M303.727 209.461L242.625 254.242L242.828 253.973L297.148 183.703L304.57 206.75C304.73 207.233 304.733 207.755 304.579 208.24C304.426 208.725 304.123 209.15 303.715 209.453" fill="#F7F7F7"/>
<rect x="365.682" y="-23.51" width="418" height="818.138" transform="rotate(-28.3711 365.682 -23.51)" fill="#F7F7F7"/>
<g filter="url(#filter0_d_8_8)">
<path d="M597.828 214.68H604.836C604.695 216.977 604.062 219.016 602.938 220.797C601.828 222.578 600.273 223.969 598.273 224.969C596.289 225.969 593.898 226.469 591.102 226.469C588.914 226.469 586.953 226.094 585.219 225.344C583.484 224.578 582 223.484 580.766 222.062C579.547 220.641 578.617 218.922 577.977 216.906C577.336 214.891 577.016 212.633 577.016 210.133V207.766C577.016 205.266 577.344 203.008 578 200.992C578.672 198.961 579.625 197.234 580.859 195.812C582.109 194.391 583.602 193.297 585.336 192.531C587.07 191.766 589.008 191.383 591.148 191.383C593.992 191.383 596.391 191.898 598.344 192.93C600.312 193.961 601.836 195.383 602.914 197.195C604.008 199.008 604.664 201.07 604.883 203.383H597.852C597.773 202.008 597.5 200.844 597.031 199.891C596.562 198.922 595.852 198.195 594.898 197.711C593.961 197.211 592.711 196.961 591.148 196.961C589.977 196.961 588.953 197.18 588.078 197.617C587.203 198.055 586.469 198.719 585.875 199.609C585.281 200.5 584.836 201.625 584.539 202.984C584.258 204.328 584.117 205.906 584.117 207.719V210.133C584.117 211.898 584.25 213.453 584.516 214.797C584.781 216.125 585.188 217.25 585.734 218.172C586.297 219.078 587.016 219.766 587.891 220.234C588.781 220.688 589.852 220.914 591.102 220.914C592.57 220.914 593.781 220.68 594.734 220.211C595.688 219.742 596.414 219.047 596.914 218.125C597.43 217.203 597.734 216.055 597.828 214.68ZM622.719 220.281V208.984C622.719 208.172 622.586 207.477 622.32 206.898C622.055 206.305 621.641 205.844 621.078 205.516C620.531 205.188 619.82 205.023 618.945 205.023C618.195 205.023 617.547 205.156 617 205.422C616.453 205.672 616.031 206.039 615.734 206.523C615.438 206.992 615.289 207.547 615.289 208.188H608.539C608.539 207.109 608.789 206.086 609.289 205.117C609.789 204.148 610.516 203.297 611.469 202.562C612.422 201.812 613.555 201.227 614.867 200.805C616.195 200.383 617.68 200.172 619.32 200.172C621.289 200.172 623.039 200.5 624.57 201.156C626.102 201.812 627.305 202.797 628.18 204.109C629.07 205.422 629.516 207.062 629.516 209.031V219.883C629.516 221.273 629.602 222.414 629.773 223.305C629.945 224.18 630.195 224.945 630.523 225.602V226H623.703C623.375 225.312 623.125 224.453 622.953 223.422C622.797 222.375 622.719 221.328 622.719 220.281ZM623.609 210.555L623.656 214.375H619.883C618.992 214.375 618.219 214.477 617.562 214.68C616.906 214.883 616.367 215.172 615.945 215.547C615.523 215.906 615.211 216.328 615.008 216.812C614.82 217.297 614.727 217.828 614.727 218.406C614.727 218.984 614.859 219.508 615.125 219.977C615.391 220.43 615.773 220.789 616.273 221.055C616.773 221.305 617.359 221.43 618.031 221.43C619.047 221.43 619.93 221.227 620.68 220.82C621.43 220.414 622.008 219.914 622.414 219.32C622.836 218.727 623.055 218.164 623.07 217.633L624.852 220.492C624.602 221.133 624.258 221.797 623.82 222.484C623.398 223.172 622.859 223.82 622.203 224.43C621.547 225.023 620.758 225.516 619.836 225.906C618.914 226.281 617.82 226.469 616.555 226.469C614.945 226.469 613.484 226.148 612.172 225.508C610.875 224.852 609.844 223.953 609.078 222.812C608.328 221.656 607.953 220.344 607.953 218.875C607.953 217.547 608.203 216.367 608.703 215.336C609.203 214.305 609.938 213.438 610.906 212.734C611.891 212.016 613.117 211.477 614.586 211.117C616.055 210.742 617.758 210.555 619.695 210.555H623.609ZM641.469 206.172V226H634.719V200.641H641.07L641.469 206.172ZM649.109 200.477L648.992 206.734C648.664 206.688 648.266 206.648 647.797 206.617C647.344 206.57 646.93 206.547 646.555 206.547C645.602 206.547 644.773 206.672 644.07 206.922C643.383 207.156 642.805 207.508 642.336 207.977C641.883 208.445 641.539 209.016 641.305 209.688C641.086 210.359 640.961 211.125 640.93 211.984L639.57 211.562C639.57 209.922 639.734 208.414 640.062 207.039C640.391 205.648 640.867 204.438 641.492 203.406C642.133 202.375 642.914 201.578 643.836 201.016C644.758 200.453 645.812 200.172 647 200.172C647.375 200.172 647.758 200.203 648.148 200.266C648.539 200.312 648.859 200.383 649.109 200.477ZM665.188 220.281V208.984C665.188 208.172 665.055 207.477 664.789 206.898C664.523 206.305 664.109 205.844 663.547 205.516C663 205.188 662.289 205.023 661.414 205.023C660.664 205.023 660.016 205.156 659.469 205.422C658.922 205.672 658.5 206.039 658.203 206.523C657.906 206.992 657.758 207.547 657.758 208.188H651.008C651.008 207.109 651.258 206.086 651.758 205.117C652.258 204.148 652.984 203.297 653.938 202.562C654.891 201.812 656.023 201.227 657.336 200.805C658.664 200.383 660.148 200.172 661.789 200.172C663.758 200.172 665.508 200.5 667.039 201.156C668.57 201.812 669.773 202.797 670.648 204.109C671.539 205.422 671.984 207.062 671.984 209.031V219.883C671.984 221.273 672.07 222.414 672.242 223.305C672.414 224.18 672.664 224.945 672.992 225.602V226H666.172C665.844 225.312 665.594 224.453 665.422 223.422C665.266 222.375 665.188 221.328 665.188 220.281ZM666.078 210.555L666.125 214.375H662.352C661.461 214.375 660.688 214.477 660.031 214.68C659.375 214.883 658.836 215.172 658.414 215.547C657.992 215.906 657.68 216.328 657.477 216.812C657.289 217.297 657.195 217.828 657.195 218.406C657.195 218.984 657.328 219.508 657.594 219.977C657.859 220.43 658.242 220.789 658.742 221.055C659.242 221.305 659.828 221.43 660.5 221.43C661.516 221.43 662.398 221.227 663.148 220.82C663.898 220.414 664.477 219.914 664.883 219.32C665.305 218.727 665.523 218.164 665.539 217.633L667.32 220.492C667.07 221.133 666.727 221.797 666.289 222.484C665.867 223.172 665.328 223.82 664.672 224.43C664.016 225.023 663.227 225.516 662.305 225.906C661.383 226.281 660.289 226.469 659.023 226.469C657.414 226.469 655.953 226.148 654.641 225.508C653.344 224.852 652.312 223.953 651.547 222.812C650.797 221.656 650.422 220.344 650.422 218.875C650.422 217.547 650.672 216.367 651.172 215.336C651.672 214.305 652.406 213.438 653.375 212.734C654.359 212.016 655.586 211.477 657.055 211.117C658.523 210.742 660.227 210.555 662.164 210.555H666.078ZM692.773 191.875H698.727L707.492 216.93L716.258 191.875H722.211L709.883 226H705.102L692.773 191.875ZM689.562 191.875H695.492L696.57 216.297V226H689.562V191.875ZM719.492 191.875H725.445V226H718.414V216.297L719.492 191.875ZM742.859 226.469C740.891 226.469 739.125 226.156 737.562 225.531C736 224.891 734.672 224.008 733.578 222.883C732.5 221.758 731.672 220.453 731.094 218.969C730.516 217.469 730.227 215.875 730.227 214.188V213.25C730.227 211.328 730.5 209.57 731.047 207.977C731.594 206.383 732.375 205 733.391 203.828C734.422 202.656 735.672 201.758 737.141 201.133C738.609 200.492 740.266 200.172 742.109 200.172C743.906 200.172 745.5 200.469 746.891 201.062C748.281 201.656 749.445 202.5 750.383 203.594C751.336 204.688 752.055 206 752.539 207.531C753.023 209.047 753.266 210.734 753.266 212.594V215.406H733.109V210.906H746.633V210.391C746.633 209.453 746.461 208.617 746.117 207.883C745.789 207.133 745.289 206.539 744.617 206.102C743.945 205.664 743.086 205.445 742.039 205.445C741.148 205.445 740.383 205.641 739.742 206.031C739.102 206.422 738.578 206.969 738.172 207.672C737.781 208.375 737.484 209.203 737.281 210.156C737.094 211.094 737 212.125 737 213.25V214.188C737 215.203 737.141 216.141 737.422 217C737.719 217.859 738.133 218.602 738.664 219.227C739.211 219.852 739.867 220.336 740.633 220.68C741.414 221.023 742.297 221.195 743.281 221.195C744.5 221.195 745.633 220.961 746.68 220.492C747.742 220.008 748.656 219.281 749.422 218.312L752.703 221.875C752.172 222.641 751.445 223.375 750.523 224.078C749.617 224.781 748.523 225.359 747.242 225.812C745.961 226.25 744.5 226.469 742.859 226.469ZM763.719 206.055V226H756.969V200.641H763.297L763.719 206.055ZM762.734 212.43H760.906C760.906 210.555 761.148 208.867 761.633 207.367C762.117 205.852 762.797 204.562 763.672 203.5C764.547 202.422 765.586 201.602 766.789 201.039C768.008 200.461 769.367 200.172 770.867 200.172C772.055 200.172 773.141 200.344 774.125 200.688C775.109 201.031 775.953 201.578 776.656 202.328C777.375 203.078 777.922 204.07 778.297 205.305C778.688 206.539 778.883 208.047 778.883 209.828V226H772.086V209.805C772.086 208.68 771.93 207.805 771.617 207.18C771.305 206.555 770.844 206.117 770.234 205.867C769.641 205.602 768.906 205.469 768.031 205.469C767.125 205.469 766.336 205.648 765.664 206.008C765.008 206.367 764.461 206.867 764.023 207.508C763.602 208.133 763.281 208.867 763.062 209.711C762.844 210.555 762.734 211.461 762.734 212.43ZM800.07 200.641H806.188V225.156C806.188 227.469 805.672 229.43 804.641 231.039C803.625 232.664 802.203 233.891 800.375 234.719C798.547 235.562 796.422 235.984 794 235.984C792.938 235.984 791.812 235.844 790.625 235.562C789.453 235.281 788.328 234.844 787.25 234.25C786.188 233.656 785.297 232.906 784.578 232L787.555 228.016C788.336 228.922 789.242 229.625 790.273 230.125C791.305 230.641 792.445 230.898 793.695 230.898C794.914 230.898 795.945 230.672 796.789 230.219C797.633 229.781 798.281 229.133 798.734 228.273C799.188 227.43 799.414 226.406 799.414 225.203V206.5L800.07 200.641ZM783.008 213.625V213.133C783.008 211.195 783.242 209.438 783.711 207.859C784.195 206.266 784.875 204.898 785.75 203.758C786.641 202.617 787.719 201.734 788.984 201.109C790.25 200.484 791.68 200.172 793.273 200.172C794.961 200.172 796.375 200.484 797.516 201.109C798.656 201.734 799.594 202.625 800.328 203.781C801.062 204.922 801.633 206.273 802.039 207.836C802.461 209.383 802.789 211.078 803.023 212.922V214C802.789 215.766 802.438 217.406 801.969 218.922C801.5 220.438 800.883 221.766 800.117 222.906C799.352 224.031 798.398 224.906 797.258 225.531C796.133 226.156 794.789 226.469 793.227 226.469C791.664 226.469 790.25 226.148 788.984 225.508C787.734 224.867 786.664 223.969 785.773 222.812C784.883 221.656 784.195 220.297 783.711 218.734C783.242 217.172 783.008 215.469 783.008 213.625ZM789.758 213.133V213.625C789.758 214.672 789.859 215.648 790.062 216.555C790.266 217.461 790.578 218.266 791 218.969C791.438 219.656 791.977 220.195 792.617 220.586C793.273 220.961 794.047 221.148 794.938 221.148C796.172 221.148 797.18 220.891 797.961 220.375C798.742 219.844 799.328 219.117 799.719 218.195C800.109 217.273 800.336 216.211 800.398 215.008V211.938C800.367 210.953 800.234 210.07 800 209.289C799.766 208.492 799.438 207.812 799.016 207.25C798.594 206.688 798.047 206.25 797.375 205.938C796.703 205.625 795.906 205.469 794.984 205.469C794.094 205.469 793.32 205.672 792.664 206.078C792.023 206.469 791.484 207.008 791.047 207.695C790.625 208.383 790.305 209.195 790.086 210.133C789.867 211.055 789.758 212.055 789.758 213.133ZM823.109 226.469C821.141 226.469 819.375 226.156 817.812 225.531C816.25 224.891 814.922 224.008 813.828 222.883C812.75 221.758 811.922 220.453 811.344 218.969C810.766 217.469 810.477 215.875 810.477 214.188V213.25C810.477 211.328 810.75 209.57 811.297 207.977C811.844 206.383 812.625 205 813.641 203.828C814.672 202.656 815.922 201.758 817.391 201.133C818.859 200.492 820.516 200.172 822.359 200.172C824.156 200.172 825.75 200.469 827.141 201.062C828.531 201.656 829.695 202.5 830.633 203.594C831.586 204.688 832.305 206 832.789 207.531C833.273 209.047 833.516 210.734 833.516 212.594V215.406H813.359V210.906H826.883V210.391C826.883 209.453 826.711 208.617 826.367 207.883C826.039 207.133 825.539 206.539 824.867 206.102C824.195 205.664 823.336 205.445 822.289 205.445C821.398 205.445 820.633 205.641 819.992 206.031C819.352 206.422 818.828 206.969 818.422 207.672C818.031 208.375 817.734 209.203 817.531 210.156C817.344 211.094 817.25 212.125 817.25 213.25V214.188C817.25 215.203 817.391 216.141 817.672 217C817.969 217.859 818.383 218.602 818.914 219.227C819.461 219.852 820.117 220.336 820.883 220.68C821.664 221.023 822.547 221.195 823.531 221.195C824.75 221.195 825.883 220.961 826.93 220.492C827.992 220.008 828.906 219.281 829.672 218.312L832.953 221.875C832.422 222.641 831.695 223.375 830.773 224.078C829.867 224.781 828.773 225.359 827.492 225.812C826.211 226.25 824.75 226.469 823.109 226.469ZM844.484 190V226H837.711V190H844.484ZM848.984 213.578V213.086C848.984 211.227 849.25 209.516 849.781 207.953C850.312 206.375 851.086 205.008 852.102 203.852C853.117 202.695 854.367 201.797 855.852 201.156C857.336 200.5 859.039 200.172 860.961 200.172C862.883 200.172 864.594 200.5 866.094 201.156C867.594 201.797 868.852 202.695 869.867 203.852C870.898 205.008 871.68 206.375 872.211 207.953C872.742 209.516 873.008 211.227 873.008 213.086V213.578C873.008 215.422 872.742 217.133 872.211 218.711C871.68 220.273 870.898 221.641 869.867 222.812C868.852 223.969 867.602 224.867 866.117 225.508C864.633 226.148 862.93 226.469 861.008 226.469C859.086 226.469 857.375 226.148 855.875 225.508C854.391 224.867 853.133 223.969 852.102 222.812C851.086 221.641 850.312 220.273 849.781 218.711C849.25 217.133 848.984 215.422 848.984 213.578ZM855.734 213.086V213.578C855.734 214.641 855.828 215.633 856.016 216.555C856.203 217.477 856.5 218.289 856.906 218.992C857.328 219.68 857.875 220.219 858.547 220.609C859.219 221 860.039 221.195 861.008 221.195C861.945 221.195 862.75 221 863.422 220.609C864.094 220.219 864.633 219.68 865.039 218.992C865.445 218.289 865.742 217.477 865.93 216.555C866.133 215.633 866.234 214.641 866.234 213.578V213.086C866.234 212.055 866.133 211.086 865.93 210.18C865.742 209.258 865.438 208.445 865.016 207.742C864.609 207.023 864.07 206.461 863.398 206.055C862.727 205.648 861.914 205.445 860.961 205.445C860.008 205.445 859.195 205.648 858.523 206.055C857.867 206.461 857.328 207.023 856.906 207.742C856.5 208.445 856.203 209.258 856.016 210.18C855.828 211.086 855.734 212.055 855.734 213.086ZM884.281 190V226H877.508V190H884.281ZM903.547 220.281V208.984C903.547 208.172 903.414 207.477 903.148 206.898C902.883 206.305 902.469 205.844 901.906 205.516C901.359 205.188 900.648 205.023 899.773 205.023C899.023 205.023 898.375 205.156 897.828 205.422C897.281 205.672 896.859 206.039 896.562 206.523C896.266 206.992 896.117 207.547 896.117 208.188H889.367C889.367 207.109 889.617 206.086 890.117 205.117C890.617 204.148 891.344 203.297 892.297 202.562C893.25 201.812 894.383 201.227 895.695 200.805C897.023 200.383 898.508 200.172 900.148 200.172C902.117 200.172 903.867 200.5 905.398 201.156C906.93 201.812 908.133 202.797 909.008 204.109C909.898 205.422 910.344 207.062 910.344 209.031V219.883C910.344 221.273 910.43 222.414 910.602 223.305C910.773 224.18 911.023 224.945 911.352 225.602V226H904.531C904.203 225.312 903.953 224.453 903.781 223.422C903.625 222.375 903.547 221.328 903.547 220.281ZM904.438 210.555L904.484 214.375H900.711C899.82 214.375 899.047 214.477 898.391 214.68C897.734 214.883 897.195 215.172 896.773 215.547C896.352 215.906 896.039 216.328 895.836 216.812C895.648 217.297 895.555 217.828 895.555 218.406C895.555 218.984 895.688 219.508 895.953 219.977C896.219 220.43 896.602 220.789 897.102 221.055C897.602 221.305 898.188 221.43 898.859 221.43C899.875 221.43 900.758 221.227 901.508 220.82C902.258 220.414 902.836 219.914 903.242 219.32C903.664 218.727 903.883 218.164 903.898 217.633L905.68 220.492C905.43 221.133 905.086 221.797 904.648 222.484C904.227 223.172 903.688 223.82 903.031 224.43C902.375 225.023 901.586 225.516 900.664 225.906C899.742 226.281 898.648 226.469 897.383 226.469C895.773 226.469 894.312 226.148 893 225.508C891.703 224.852 890.672 223.953 889.906 222.812C889.156 221.656 888.781 220.344 888.781 218.875C888.781 217.547 889.031 216.367 889.531 215.336C890.031 214.305 890.766 213.438 891.734 212.734C892.719 212.016 893.945 211.477 895.414 211.117C896.883 210.742 898.586 210.555 900.523 210.555H904.438ZM585.523 247.875V282H578.516V247.875H585.523ZM605.398 274.992C605.398 274.508 605.258 274.07 604.977 273.68C604.695 273.289 604.172 272.93 603.406 272.602C602.656 272.258 601.57 271.945 600.148 271.664C598.867 271.383 597.672 271.031 596.562 270.609C595.469 270.172 594.516 269.648 593.703 269.039C592.906 268.43 592.281 267.711 591.828 266.883C591.375 266.039 591.148 265.078 591.148 264C591.148 262.938 591.375 261.938 591.828 261C592.297 260.062 592.961 259.234 593.82 258.516C594.695 257.781 595.758 257.211 597.008 256.805C598.273 256.383 599.695 256.172 601.273 256.172C603.477 256.172 605.367 256.523 606.945 257.227C608.539 257.93 609.758 258.898 610.602 260.133C611.461 261.352 611.891 262.742 611.891 264.305H605.141C605.141 263.648 605 263.062 604.719 262.547C604.453 262.016 604.031 261.602 603.453 261.305C602.891 260.992 602.156 260.836 601.25 260.836C600.5 260.836 599.852 260.969 599.305 261.234C598.758 261.484 598.336 261.828 598.039 262.266C597.758 262.688 597.617 263.156 597.617 263.672C597.617 264.062 597.695 264.414 597.852 264.727C598.023 265.023 598.297 265.297 598.672 265.547C599.047 265.797 599.531 266.031 600.125 266.25C600.734 266.453 601.484 266.641 602.375 266.812C604.203 267.188 605.836 267.68 607.273 268.289C608.711 268.883 609.852 269.695 610.695 270.727C611.539 271.742 611.961 273.078 611.961 274.734C611.961 275.859 611.711 276.891 611.211 277.828C610.711 278.766 609.992 279.586 609.055 280.289C608.117 280.977 606.992 281.516 605.68 281.906C604.383 282.281 602.922 282.469 601.297 282.469C598.938 282.469 596.938 282.047 595.297 281.203C593.672 280.359 592.438 279.289 591.594 277.992C590.766 276.68 590.352 275.336 590.352 273.961H596.75C596.781 274.883 597.016 275.625 597.453 276.188C597.906 276.75 598.477 277.156 599.164 277.406C599.867 277.656 600.625 277.781 601.438 277.781C602.312 277.781 603.039 277.664 603.617 277.43C604.195 277.18 604.633 276.852 604.93 276.445C605.242 276.023 605.398 275.539 605.398 274.992ZM630.055 274.992C630.055 274.508 629.914 274.07 629.633 273.68C629.352 273.289 628.828 272.93 628.062 272.602C627.312 272.258 626.227 271.945 624.805 271.664C623.523 271.383 622.328 271.031 621.219 270.609C620.125 270.172 619.172 269.648 618.359 269.039C617.562 268.43 616.938 267.711 616.484 266.883C616.031 266.039 615.805 265.078 615.805 264C615.805 262.938 616.031 261.938 616.484 261C616.953 260.062 617.617 259.234 618.477 258.516C619.352 257.781 620.414 257.211 621.664 256.805C622.93 256.383 624.352 256.172 625.93 256.172C628.133 256.172 630.023 256.523 631.602 257.227C633.195 257.93 634.414 258.898 635.258 260.133C636.117 261.352 636.547 262.742 636.547 264.305H629.797C629.797 263.648 629.656 263.062 629.375 262.547C629.109 262.016 628.688 261.602 628.109 261.305C627.547 260.992 626.812 260.836 625.906 260.836C625.156 260.836 624.508 260.969 623.961 261.234C623.414 261.484 622.992 261.828 622.695 262.266C622.414 262.688 622.273 263.156 622.273 263.672C622.273 264.062 622.352 264.414 622.508 264.727C622.68 265.023 622.953 265.297 623.328 265.547C623.703 265.797 624.188 266.031 624.781 266.25C625.391 266.453 626.141 266.641 627.031 266.812C628.859 267.188 630.492 267.68 631.93 268.289C633.367 268.883 634.508 269.695 635.352 270.727C636.195 271.742 636.617 273.078 636.617 274.734C636.617 275.859 636.367 276.891 635.867 277.828C635.367 278.766 634.648 279.586 633.711 280.289C632.773 280.977 631.648 281.516 630.336 281.906C629.039 282.281 627.578 282.469 625.953 282.469C623.594 282.469 621.594 282.047 619.953 281.203C618.328 280.359 617.094 279.289 616.25 277.992C615.422 276.68 615.008 275.336 615.008 273.961H621.406C621.438 274.883 621.672 275.625 622.109 276.188C622.562 276.75 623.133 277.156 623.82 277.406C624.523 277.656 625.281 277.781 626.094 277.781C626.969 277.781 627.695 277.664 628.273 277.43C628.852 277.18 629.289 276.852 629.586 276.445C629.898 276.023 630.055 275.539 630.055 274.992ZM656 275.93V256.641H662.75V282H656.398L656 275.93ZM656.75 270.727L658.742 270.68C658.742 272.367 658.547 273.938 658.156 275.391C657.766 276.828 657.18 278.078 656.398 279.141C655.617 280.188 654.633 281.008 653.445 281.602C652.258 282.18 650.859 282.469 649.25 282.469C648.016 282.469 646.875 282.297 645.828 281.953C644.797 281.594 643.906 281.039 643.156 280.289C642.422 279.523 641.844 278.547 641.422 277.359C641.016 276.156 640.812 274.711 640.812 273.023V256.641H647.562V273.07C647.562 273.82 647.648 274.453 647.82 274.969C648.008 275.484 648.266 275.906 648.594 276.234C648.922 276.562 649.305 276.797 649.742 276.938C650.195 277.078 650.695 277.148 651.242 277.148C652.633 277.148 653.727 276.867 654.523 276.305C655.336 275.742 655.906 274.977 656.234 274.008C656.578 273.023 656.75 271.93 656.75 270.727ZM679.578 282.469C677.609 282.469 675.844 282.156 674.281 281.531C672.719 280.891 671.391 280.008 670.297 278.883C669.219 277.758 668.391 276.453 667.812 274.969C667.234 273.469 666.945 271.875 666.945 270.188V269.25C666.945 267.328 667.219 265.57 667.766 263.977C668.312 262.383 669.094 261 670.109 259.828C671.141 258.656 672.391 257.758 673.859 257.133C675.328 256.492 676.984 256.172 678.828 256.172C680.625 256.172 682.219 256.469 683.609 257.062C685 257.656 686.164 258.5 687.102 259.594C688.055 260.688 688.773 262 689.258 263.531C689.742 265.047 689.984 266.734 689.984 268.594V271.406H669.828V266.906H683.352V266.391C683.352 265.453 683.18 264.617 682.836 263.883C682.508 263.133 682.008 262.539 681.336 262.102C680.664 261.664 679.805 261.445 678.758 261.445C677.867 261.445 677.102 261.641 676.461 262.031C675.82 262.422 675.297 262.969 674.891 263.672C674.5 264.375 674.203 265.203 674 266.156C673.812 267.094 673.719 268.125 673.719 269.25V270.188C673.719 271.203 673.859 272.141 674.141 273C674.438 273.859 674.852 274.602 675.383 275.227C675.93 275.852 676.586 276.336 677.352 276.68C678.133 277.023 679.016 277.195 680 277.195C681.219 277.195 682.352 276.961 683.398 276.492C684.461 276.008 685.375 275.281 686.141 274.312L689.422 277.875C688.891 278.641 688.164 279.375 687.242 280.078C686.336 280.781 685.242 281.359 683.961 281.812C682.68 282.25 681.219 282.469 679.578 282.469ZM720.758 276.469V246H727.555V282H721.438L720.758 276.469ZM704.727 269.625V269.133C704.727 267.195 704.945 265.438 705.383 263.859C705.82 262.266 706.461 260.898 707.305 259.758C708.148 258.617 709.188 257.734 710.422 257.109C711.656 256.484 713.062 256.172 714.641 256.172C716.125 256.172 717.422 256.484 718.531 257.109C719.656 257.734 720.609 258.625 721.391 259.781C722.188 260.922 722.828 262.273 723.312 263.836C723.797 265.383 724.148 267.078 724.367 268.922V270C724.148 271.766 723.797 273.406 723.312 274.922C722.828 276.438 722.188 277.766 721.391 278.906C720.609 280.031 719.656 280.906 718.531 281.531C717.406 282.156 716.094 282.469 714.594 282.469C713.016 282.469 711.609 282.148 710.375 281.508C709.156 280.867 708.125 279.969 707.281 278.812C706.453 277.656 705.82 276.297 705.383 274.734C704.945 273.172 704.727 271.469 704.727 269.625ZM711.477 269.133V269.625C711.477 270.672 711.555 271.648 711.711 272.555C711.883 273.461 712.156 274.266 712.531 274.969C712.922 275.656 713.422 276.195 714.031 276.586C714.656 276.961 715.414 277.148 716.305 277.148C717.461 277.148 718.414 276.891 719.164 276.375C719.914 275.844 720.484 275.117 720.875 274.195C721.281 273.273 721.516 272.211 721.578 271.008V267.938C721.531 266.953 721.391 266.07 721.156 265.289C720.938 264.492 720.609 263.812 720.172 263.25C719.75 262.688 719.219 262.25 718.578 261.938C717.953 261.625 717.211 261.469 716.352 261.469C715.477 261.469 714.727 261.672 714.102 262.078C713.477 262.469 712.969 263.008 712.578 263.695C712.203 264.383 711.922 265.195 711.734 266.133C711.562 267.055 711.477 268.055 711.477 269.133ZM739.953 256.641V282H733.18V256.641H739.953ZM732.758 250.031C732.758 249.047 733.102 248.234 733.789 247.594C734.477 246.953 735.398 246.633 736.555 246.633C737.695 246.633 738.609 246.953 739.297 247.594C740 248.234 740.352 249.047 740.352 250.031C740.352 251.016 740 251.828 739.297 252.469C738.609 253.109 737.695 253.43 736.555 253.43C735.398 253.43 734.477 253.109 733.789 252.469C733.102 251.828 732.758 251.016 732.758 250.031ZM784.953 264.164V277.688C784.422 278.328 783.602 279.023 782.492 279.773C781.383 280.508 779.953 281.141 778.203 281.672C776.453 282.203 774.336 282.469 771.852 282.469C769.648 282.469 767.641 282.109 765.828 281.391C764.016 280.656 762.453 279.586 761.141 278.18C759.844 276.773 758.844 275.055 758.141 273.023C757.438 270.977 757.086 268.641 757.086 266.016V263.883C757.086 261.258 757.422 258.922 758.094 256.875C758.781 254.828 759.758 253.102 761.023 251.695C762.289 250.289 763.797 249.219 765.547 248.484C767.297 247.75 769.242 247.383 771.383 247.383C774.352 247.383 776.789 247.867 778.695 248.836C780.602 249.789 782.055 251.117 783.055 252.82C784.07 254.508 784.695 256.445 784.93 258.633H778.109C777.938 257.477 777.609 256.469 777.125 255.609C776.641 254.75 775.945 254.078 775.039 253.594C774.148 253.109 772.992 252.867 771.57 252.867C770.398 252.867 769.352 253.109 768.43 253.594C767.523 254.062 766.758 254.758 766.133 255.68C765.508 256.602 765.031 257.742 764.703 259.102C764.375 260.461 764.211 262.039 764.211 263.836V266.016C764.211 267.797 764.383 269.375 764.727 270.75C765.07 272.109 765.578 273.258 766.25 274.195C766.938 275.117 767.781 275.812 768.781 276.281C769.781 276.75 770.945 276.984 772.273 276.984C773.383 276.984 774.305 276.891 775.039 276.703C775.789 276.516 776.391 276.289 776.844 276.023C777.312 275.742 777.672 275.477 777.922 275.227V269.18H771.5V264.164H784.953ZM797.328 256.641V282H790.555V256.641H797.328ZM790.133 250.031C790.133 249.047 790.477 248.234 791.164 247.594C791.852 246.953 792.773 246.633 793.93 246.633C795.07 246.633 795.984 246.953 796.672 247.594C797.375 248.234 797.727 249.047 797.727 250.031C797.727 251.016 797.375 251.828 796.672 252.469C795.984 253.109 795.07 253.43 793.93 253.43C792.773 253.43 791.852 253.109 791.164 252.469C790.477 251.828 790.133 251.016 790.133 250.031ZM815.328 256.641V261.422H800.562V256.641H815.328ZM804.219 250.383H810.969V274.359C810.969 275.094 811.062 275.656 811.25 276.047C811.453 276.438 811.75 276.711 812.141 276.867C812.531 277.008 813.023 277.078 813.617 277.078C814.039 277.078 814.414 277.062 814.742 277.031C815.086 276.984 815.375 276.938 815.609 276.891L815.633 281.859C815.055 282.047 814.43 282.195 813.758 282.305C813.086 282.414 812.344 282.469 811.531 282.469C810.047 282.469 808.75 282.227 807.641 281.742C806.547 281.242 805.703 280.445 805.109 279.352C804.516 278.258 804.219 276.82 804.219 275.039V250.383ZM841.531 276.516V282H824.352V276.516H841.531ZM826.625 247.875V282H819.594V247.875H826.625ZM858.828 276.281V264.984C858.828 264.172 858.695 263.477 858.43 262.898C858.164 262.305 857.75 261.844 857.188 261.516C856.641 261.188 855.93 261.023 855.055 261.023C854.305 261.023 853.656 261.156 853.109 261.422C852.562 261.672 852.141 262.039 851.844 262.523C851.547 262.992 851.398 263.547 851.398 264.188H844.648C844.648 263.109 844.898 262.086 845.398 261.117C845.898 260.148 846.625 259.297 847.578 258.562C848.531 257.812 849.664 257.227 850.977 256.805C852.305 256.383 853.789 256.172 855.43 256.172C857.398 256.172 859.148 256.5 860.68 257.156C862.211 257.812 863.414 258.797 864.289 260.109C865.18 261.422 865.625 263.062 865.625 265.031V275.883C865.625 277.273 865.711 278.414 865.883 279.305C866.055 280.18 866.305 280.945 866.633 281.602V282H859.812C859.484 281.312 859.234 280.453 859.062 279.422C858.906 278.375 858.828 277.328 858.828 276.281ZM859.719 266.555L859.766 270.375H855.992C855.102 270.375 854.328 270.477 853.672 270.68C853.016 270.883 852.477 271.172 852.055 271.547C851.633 271.906 851.32 272.328 851.117 272.812C850.93 273.297 850.836 273.828 850.836 274.406C850.836 274.984 850.969 275.508 851.234 275.977C851.5 276.43 851.883 276.789 852.383 277.055C852.883 277.305 853.469 277.43 854.141 277.43C855.156 277.43 856.039 277.227 856.789 276.82C857.539 276.414 858.117 275.914 858.523 275.32C858.945 274.727 859.164 274.164 859.18 273.633L860.961 276.492C860.711 277.133 860.367 277.797 859.93 278.484C859.508 279.172 858.969 279.82 858.312 280.43C857.656 281.023 856.867 281.516 855.945 281.906C855.023 282.281 853.93 282.469 852.664 282.469C851.055 282.469 849.594 282.148 848.281 281.508C846.984 280.852 845.953 279.953 845.188 278.812C844.438 277.656 844.062 276.344 844.062 274.875C844.062 273.547 844.312 272.367 844.812 271.336C845.312 270.305 846.047 269.438 847.016 268.734C848 268.016 849.227 267.477 850.695 267.117C852.164 266.742 853.867 266.555 855.805 266.555H859.719ZM870.828 246H877.578V276.188L876.898 282H870.828V246ZM893.633 269.062V269.555C893.633 271.445 893.43 273.18 893.023 274.758C892.633 276.336 892.023 277.703 891.195 278.859C890.367 280 889.336 280.891 888.102 281.531C886.883 282.156 885.445 282.469 883.789 282.469C882.242 282.469 880.898 282.156 879.758 281.531C878.633 280.906 877.688 280.023 876.922 278.883C876.156 277.742 875.539 276.406 875.07 274.875C874.602 273.344 874.25 271.672 874.016 269.859V268.781C874.25 266.969 874.602 265.297 875.07 263.766C875.539 262.234 876.156 260.898 876.922 259.758C877.688 258.617 878.633 257.734 879.758 257.109C880.883 256.484 882.211 256.172 883.742 256.172C885.414 256.172 886.867 256.492 888.102 257.133C889.352 257.758 890.383 258.648 891.195 259.805C892.023 260.945 892.633 262.305 893.023 263.883C893.43 265.445 893.633 267.172 893.633 269.062ZM886.883 269.555V269.062C886.883 268.031 886.805 267.062 886.648 266.156C886.508 265.234 886.258 264.43 885.898 263.742C885.539 263.039 885.047 262.484 884.422 262.078C883.812 261.672 883.023 261.469 882.055 261.469C881.133 261.469 880.352 261.625 879.711 261.938C879.07 262.25 878.539 262.688 878.117 263.25C877.711 263.812 877.406 264.484 877.203 265.266C877 266.031 876.875 266.875 876.828 267.797V270.867C876.875 272.102 877.078 273.195 877.438 274.148C877.812 275.086 878.375 275.828 879.125 276.375C879.891 276.906 880.883 277.172 882.102 277.172C883.055 277.172 883.844 276.984 884.469 276.609C885.094 276.234 885.578 275.703 885.922 275.016C886.281 274.328 886.531 273.523 886.672 272.602C886.812 271.664 886.883 270.648 886.883 269.555Z" fill="#FB6D27"/>
</g>
<path d="M179.672 323.562V336.594C179.188 337.234 178.43 337.938 177.398 338.703C176.383 339.453 175.031 340.102 173.344 340.648C171.656 341.195 169.555 341.469 167.039 341.469C164.898 341.469 162.938 341.109 161.156 340.391C159.375 339.656 157.836 338.586 156.539 337.18C155.258 335.773 154.266 334.062 153.562 332.047C152.859 330.016 152.508 327.703 152.508 325.109V322.742C152.508 320.164 152.828 317.867 153.469 315.852C154.125 313.82 155.062 312.102 156.281 310.695C157.5 309.289 158.969 308.227 160.688 307.508C162.422 306.773 164.383 306.406 166.57 306.406C169.367 306.406 171.68 306.875 173.508 307.812C175.352 308.734 176.773 310.016 177.773 311.656C178.773 313.297 179.406 315.172 179.672 317.281H173.906C173.719 316.094 173.352 315.031 172.805 314.094C172.273 313.156 171.508 312.422 170.508 311.891C169.523 311.344 168.242 311.07 166.664 311.07C165.305 311.07 164.109 311.328 163.078 311.844C162.047 312.359 161.188 313.117 160.5 314.117C159.828 315.117 159.32 316.336 158.977 317.773C158.633 319.211 158.461 320.852 158.461 322.695V325.109C158.461 326.984 158.656 328.648 159.047 330.102C159.453 331.555 160.031 332.781 160.781 333.781C161.547 334.781 162.477 335.539 163.57 336.055C164.664 336.555 165.898 336.805 167.273 336.805C168.617 336.805 169.719 336.695 170.578 336.477C171.438 336.242 172.117 335.969 172.617 335.656C173.133 335.328 173.531 335.016 173.812 334.719V327.945H166.711V323.562H179.672ZM191.672 315.641V341H186V315.641H191.672ZM185.625 308.984C185.625 308.125 185.906 307.414 186.469 306.852C187.047 306.273 187.844 305.984 188.859 305.984C189.859 305.984 190.648 306.273 191.227 306.852C191.805 307.414 192.094 308.125 192.094 308.984C192.094 309.828 191.805 310.531 191.227 311.094C190.648 311.656 189.859 311.938 188.859 311.938C187.844 311.938 187.047 311.656 186.469 311.094C185.906 310.531 185.625 309.828 185.625 308.984ZM209.484 315.641V319.766H195.188V315.641H209.484ZM199.312 309.43H204.961V333.992C204.961 334.773 205.07 335.375 205.289 335.797C205.523 336.203 205.844 336.477 206.25 336.617C206.656 336.758 207.133 336.828 207.68 336.828C208.07 336.828 208.445 336.805 208.805 336.758C209.164 336.711 209.453 336.664 209.672 336.617L209.695 340.93C209.227 341.07 208.68 341.195 208.055 341.305C207.445 341.414 206.742 341.469 205.945 341.469C204.648 341.469 203.5 341.242 202.5 340.789C201.5 340.32 200.719 339.562 200.156 338.516C199.594 337.469 199.312 336.078 199.312 334.344V309.43ZM235.781 336.336V341H218.648V336.336H235.781ZM220.289 306.875V341H214.406V306.875H220.289ZM254.062 335.914V323.82C254.062 322.914 253.898 322.133 253.57 321.477C253.242 320.82 252.742 320.312 252.07 319.953C251.414 319.594 250.586 319.414 249.586 319.414C248.664 319.414 247.867 319.57 247.195 319.883C246.523 320.195 246 320.617 245.625 321.148C245.25 321.68 245.062 322.281 245.062 322.953H239.438C239.438 321.953 239.68 320.984 240.164 320.047C240.648 319.109 241.352 318.273 242.273 317.539C243.195 316.805 244.297 316.227 245.578 315.805C246.859 315.383 248.297 315.172 249.891 315.172C251.797 315.172 253.484 315.492 254.953 316.133C256.438 316.773 257.602 317.742 258.445 319.039C259.305 320.32 259.734 321.93 259.734 323.867V335.141C259.734 336.297 259.812 337.336 259.969 338.258C260.141 339.164 260.383 339.953 260.695 340.625V341H254.906C254.641 340.391 254.43 339.617 254.273 338.68C254.133 337.727 254.062 336.805 254.062 335.914ZM254.883 325.578L254.93 329.07H250.875C249.828 329.07 248.906 329.172 248.109 329.375C247.312 329.562 246.648 329.844 246.117 330.219C245.586 330.594 245.188 331.047 244.922 331.578C244.656 332.109 244.523 332.711 244.523 333.383C244.523 334.055 244.68 334.672 244.992 335.234C245.305 335.781 245.758 336.211 246.352 336.523C246.961 336.836 247.695 336.992 248.555 336.992C249.711 336.992 250.719 336.758 251.578 336.289C252.453 335.805 253.141 335.219 253.641 334.531C254.141 333.828 254.406 333.164 254.438 332.539L256.266 335.047C256.078 335.688 255.758 336.375 255.305 337.109C254.852 337.844 254.258 338.547 253.523 339.219C252.805 339.875 251.938 340.414 250.922 340.836C249.922 341.258 248.766 341.469 247.453 341.469C245.797 341.469 244.32 341.141 243.023 340.484C241.727 339.812 240.711 338.914 239.977 337.789C239.242 336.648 238.875 335.359 238.875 333.922C238.875 332.578 239.125 331.391 239.625 330.359C240.141 329.312 240.891 328.438 241.875 327.734C242.875 327.031 244.094 326.5 245.531 326.141C246.969 325.766 248.609 325.578 250.453 325.578H254.883ZM265.664 305H271.312V335.586L270.773 341H265.664V305ZM287.859 328.086V328.578C287.859 330.453 287.648 332.18 287.227 333.758C286.82 335.32 286.195 336.68 285.352 337.836C284.523 338.992 283.492 339.891 282.258 340.531C281.039 341.156 279.625 341.469 278.016 341.469C276.438 341.469 275.062 341.172 273.891 340.578C272.719 339.984 271.734 339.141 270.938 338.047C270.156 336.953 269.523 335.648 269.039 334.133C268.555 332.617 268.211 330.945 268.008 329.117V327.547C268.211 325.703 268.555 324.031 269.039 322.531C269.523 321.016 270.156 319.711 270.938 318.617C271.734 317.508 272.711 316.656 273.867 316.062C275.039 315.469 276.406 315.172 277.969 315.172C279.594 315.172 281.023 315.484 282.258 316.109C283.508 316.734 284.547 317.625 285.375 318.781C286.203 319.922 286.82 321.281 287.227 322.859C287.648 324.438 287.859 326.18 287.859 328.086ZM282.211 328.578V328.086C282.211 326.945 282.117 325.875 281.93 324.875C281.742 323.859 281.43 322.969 280.992 322.203C280.57 321.438 279.992 320.836 279.258 320.398C278.539 319.945 277.641 319.719 276.562 319.719C275.562 319.719 274.703 319.891 273.984 320.234C273.266 320.578 272.664 321.047 272.18 321.641C271.695 322.234 271.312 322.922 271.031 323.703C270.766 324.484 270.586 325.328 270.492 326.234V330.477C270.633 331.648 270.93 332.727 271.383 333.711C271.852 334.68 272.508 335.461 273.352 336.055C274.195 336.633 275.281 336.922 276.609 336.922C277.656 336.922 278.539 336.711 279.258 336.289C279.977 335.867 280.547 335.281 280.969 334.531C281.406 333.766 281.719 332.875 281.906 331.859C282.109 330.844 282.211 329.75 282.211 328.578Z" fill="white"/>
</g>
<defs>
<filter id="filter0_d_8_8" x="572.016" y="190" width="344.336" height="102.469" filterUnits="userSpaceOnUse" color-interpolation-filters="sRGB">
<feFlood flood-opacity="0" result="BackgroundImageFix"/>
<feColorMatrix in="SourceAlpha" type="matrix" values="0 0 0 0 0 0 0 0 0 0 0 0 0 0 0 0 0 0 127 0" result="hardAlpha"/>
<feOffset dy="5"/>
<feGaussianBlur stdDeviation="2.5"/>
<feComposite in2="hardAlpha" operator="out"/>
<feColorMatrix type="matrix" values="0 0 0 0 0 0 0 0 0 0 0 0 0 0 0 0 0 0 0.25 0"/>
<feBlend mode="normal" in2="BackgroundImageFix" result="effect1_dropShadow_8_8"/>
<feBlend mode="normal" in="SourceGraphic" in2="effect1_dropShadow_8_8" result="shape"/>
</filter>
<linearGradient id="paint0_linear_8_8" x1="-6.00512e-06" y1="10.5" x2="1000" y2="500" gradientUnits="userSpaceOnUse">
<stop stop-color="#E14329"/>
<stop offset="1" stop-color="#FB6D27"/>
</linearGradient>
<clipPath id="clip0_8_8">
<rect width="1000" height="500" fill="white"/>
</clipPath>
</defs>
</svg>
