<svg width="1000" height="500" viewBox="0 0 1000 500" fill="none" xmlns="http://www.w3.org/2000/svg">
<g clip-path="url(#clip0_3_2)">
<rect width="1000" height="500" fill="url(#paint0_linear_3_2)"/>
<path d="M312.996 204L303.16 173.5C303.108 173.219 303.028 172.945 302.922 172.68L283.195 111.375C282.678 109.799 281.675 108.427 280.329 107.458C278.984 106.488 277.366 105.969 275.707 105.977C274.053 105.972 272.44 106.498 271.108 107.478C269.775 108.459 268.793 109.841 268.305 111.422L249.5 169.84H190.125L171.305 111.418C170.819 109.843 169.842 108.464 168.516 107.484C167.191 106.504 165.586 105.975 163.938 105.973H163.895C162.232 105.978 160.613 106.511 159.271 107.493C157.929 108.476 156.933 109.858 156.426 111.441L136.68 172.801C136.68 172.855 136.637 172.902 136.617 172.957L126.605 204.004C125.868 206.278 125.865 208.726 126.597 211.002C127.329 213.278 128.759 215.266 130.684 216.684L217.184 280.125C217.943 280.681 218.861 280.978 219.801 280.973C220.742 280.968 221.657 280.661 222.41 280.098L308.926 216.684C310.851 215.265 312.28 213.276 313.011 211C313.742 208.723 313.736 206.274 312.996 204ZM183.699 178.801L207.812 253.707L149.934 178.801M231.824 253.723L254.945 181.91L255.941 178.785H289.738L237.371 246.516M275.781 117.168L292.723 169.836H258.809M246.625 178.766L229.828 230.945L219.805 262.023L193.023 178.766M163.855 117.168L180.832 169.836H146.953M135.891 209.461C135.482 209.159 135.178 208.737 135.023 208.253C134.868 207.769 134.87 207.249 135.027 206.766L142.449 183.719L196.984 254.262M303.727 209.461L242.625 254.242L242.828 253.973L297.148 183.703L304.57 206.75C304.73 207.233 304.733 207.755 304.579 208.24C304.426 208.725 304.123 209.15 303.715 209.453" fill="#F7F7F7"/>
<rect x="365.682" y="-23.51" width="418" height="818.138" transform="rotate(-28.3711 365.682 -23.51)" fill="#F7F7F7"/>
<g filter="url(#filter0_d_3_2)">
<path d="M650.828 229.68H657.836C657.695 231.977 657.062 234.016 655.938 235.797C654.828 237.578 653.273 238.969 651.273 239.969C649.289 240.969 646.898 241.469 644.102 241.469C641.914 241.469 639.953 241.094 638.219 240.344C636.484 239.578 635 238.484 633.766 237.062C632.547 235.641 631.617 233.922 630.977 231.906C630.336 229.891 630.016 227.633 630.016 225.133V222.766C630.016 220.266 630.344 218.008 631 215.992C631.672 213.961 632.625 212.234 633.859 210.812C635.109 209.391 636.602 208.297 638.336 207.531C640.07 206.766 642.008 206.383 644.148 206.383C646.992 206.383 649.391 206.898 651.344 207.93C653.312 208.961 654.836 210.383 655.914 212.195C657.008 214.008 657.664 216.07 657.883 218.383H650.852C650.773 217.008 650.5 215.844 650.031 214.891C649.562 213.922 648.852 213.195 647.898 212.711C646.961 212.211 645.711 211.961 644.148 211.961C642.977 211.961 641.953 212.18 641.078 212.617C640.203 213.055 639.469 213.719 638.875 214.609C638.281 215.5 637.836 216.625 637.539 217.984C637.258 219.328 637.117 220.906 637.117 222.719V225.133C637.117 226.898 637.25 228.453 637.516 229.797C637.781 231.125 638.188 232.25 638.734 233.172C639.297 234.078 640.016 234.766 640.891 235.234C641.781 235.688 642.852 235.914 644.102 235.914C645.57 235.914 646.781 235.68 647.734 235.211C648.688 234.742 649.414 234.047 649.914 233.125C650.43 232.203 650.734 231.055 650.828 229.68ZM675.719 235.281V223.984C675.719 223.172 675.586 222.477 675.32 221.898C675.055 221.305 674.641 220.844 674.078 220.516C673.531 220.188 672.82 220.023 671.945 220.023C671.195 220.023 670.547 220.156 670 220.422C669.453 220.672 669.031 221.039 668.734 221.523C668.438 221.992 668.289 222.547 668.289 223.188H661.539C661.539 222.109 661.789 221.086 662.289 220.117C662.789 219.148 663.516 218.297 664.469 217.562C665.422 216.812 666.555 216.227 667.867 215.805C669.195 215.383 670.68 215.172 672.32 215.172C674.289 215.172 676.039 215.5 677.57 216.156C679.102 216.812 680.305 217.797 681.18 219.109C682.07 220.422 682.516 222.062 682.516 224.031V234.883C682.516 236.273 682.602 237.414 682.773 238.305C682.945 239.18 683.195 239.945 683.523 240.602V241H676.703C676.375 240.312 676.125 239.453 675.953 238.422C675.797 237.375 675.719 236.328 675.719 235.281ZM676.609 225.555L676.656 229.375H672.883C671.992 229.375 671.219 229.477 670.562 229.68C669.906 229.883 669.367 230.172 668.945 230.547C668.523 230.906 668.211 231.328 668.008 231.812C667.82 232.297 667.727 232.828 667.727 233.406C667.727 233.984 667.859 234.508 668.125 234.977C668.391 235.43 668.773 235.789 669.273 236.055C669.773 236.305 670.359 236.43 671.031 236.43C672.047 236.43 672.93 236.227 673.68 235.82C674.43 235.414 675.008 234.914 675.414 234.32C675.836 233.727 676.055 233.164 676.07 232.633L677.852 235.492C677.602 236.133 677.258 236.797 676.82 237.484C676.398 238.172 675.859 238.82 675.203 239.43C674.547 240.023 673.758 240.516 672.836 240.906C671.914 241.281 670.82 241.469 669.555 241.469C667.945 241.469 666.484 241.148 665.172 240.508C663.875 239.852 662.844 238.953 662.078 237.812C661.328 236.656 660.953 235.344 660.953 233.875C660.953 232.547 661.203 231.367 661.703 230.336C662.203 229.305 662.938 228.438 663.906 227.734C664.891 227.016 666.117 226.477 667.586 226.117C669.055 225.742 670.758 225.555 672.695 225.555H676.609ZM694.469 221.172V241H687.719V215.641H694.07L694.469 221.172ZM702.109 215.477L701.992 221.734C701.664 221.688 701.266 221.648 700.797 221.617C700.344 221.57 699.93 221.547 699.555 221.547C698.602 221.547 697.773 221.672 697.07 221.922C696.383 222.156 695.805 222.508 695.336 222.977C694.883 223.445 694.539 224.016 694.305 224.688C694.086 225.359 693.961 226.125 693.93 226.984L692.57 226.562C692.57 224.922 692.734 223.414 693.062 222.039C693.391 220.648 693.867 219.438 694.492 218.406C695.133 217.375 695.914 216.578 696.836 216.016C697.758 215.453 698.812 215.172 700 215.172C700.375 215.172 700.758 215.203 701.148 215.266C701.539 215.312 701.859 215.383 702.109 215.477ZM718.188 235.281V223.984C718.188 223.172 718.055 222.477 717.789 221.898C717.523 221.305 717.109 220.844 716.547 220.516C716 220.188 715.289 220.023 714.414 220.023C713.664 220.023 713.016 220.156 712.469 220.422C711.922 220.672 711.5 221.039 711.203 221.523C710.906 221.992 710.758 222.547 710.758 223.188H704.008C704.008 222.109 704.258 221.086 704.758 220.117C705.258 219.148 705.984 218.297 706.938 217.562C707.891 216.812 709.023 216.227 710.336 215.805C711.664 215.383 713.148 215.172 714.789 215.172C716.758 215.172 718.508 215.5 720.039 216.156C721.57 216.812 722.773 217.797 723.648 219.109C724.539 220.422 724.984 222.062 724.984 224.031V234.883C724.984 236.273 725.07 237.414 725.242 238.305C725.414 239.18 725.664 239.945 725.992 240.602V241H719.172C718.844 240.312 718.594 239.453 718.422 238.422C718.266 237.375 718.188 236.328 718.188 235.281ZM719.078 225.555L719.125 229.375H715.352C714.461 229.375 713.688 229.477 713.031 229.68C712.375 229.883 711.836 230.172 711.414 230.547C710.992 230.906 710.68 231.328 710.477 231.812C710.289 232.297 710.195 232.828 710.195 233.406C710.195 233.984 710.328 234.508 710.594 234.977C710.859 235.43 711.242 235.789 711.742 236.055C712.242 236.305 712.828 236.43 713.5 236.43C714.516 236.43 715.398 236.227 716.148 235.82C716.898 235.414 717.477 234.914 717.883 234.32C718.305 233.727 718.523 233.164 718.539 232.633L720.32 235.492C720.07 236.133 719.727 236.797 719.289 237.484C718.867 238.172 718.328 238.82 717.672 239.43C717.016 240.023 716.227 240.516 715.305 240.906C714.383 241.281 713.289 241.469 712.023 241.469C710.414 241.469 708.953 241.148 707.641 240.508C706.344 239.852 705.312 238.953 704.547 237.812C703.797 236.656 703.422 235.344 703.422 233.875C703.422 232.547 703.672 231.367 704.172 230.336C704.672 229.305 705.406 228.438 706.375 227.734C707.359 227.016 708.586 226.477 710.055 226.117C711.523 225.742 713.227 225.555 715.164 225.555H719.078ZM764.5 235.516V241H747.32V235.516H764.5ZM749.594 206.875V241H742.562V206.875H749.594ZM767.031 228.578V228.086C767.031 226.227 767.297 224.516 767.828 222.953C768.359 221.375 769.133 220.008 770.148 218.852C771.164 217.695 772.414 216.797 773.898 216.156C775.383 215.5 777.086 215.172 779.008 215.172C780.93 215.172 782.641 215.5 784.141 216.156C785.641 216.797 786.898 217.695 787.914 218.852C788.945 220.008 789.727 221.375 790.258 222.953C790.789 224.516 791.055 226.227 791.055 228.086V228.578C791.055 230.422 790.789 232.133 790.258 233.711C789.727 235.273 788.945 236.641 787.914 237.812C786.898 238.969 785.648 239.867 784.164 240.508C782.68 241.148 780.977 241.469 779.055 241.469C777.133 241.469 775.422 241.148 773.922 240.508C772.438 239.867 771.18 238.969 770.148 237.812C769.133 236.641 768.359 235.273 767.828 233.711C767.297 232.133 767.031 230.422 767.031 228.578ZM773.781 228.086V228.578C773.781 229.641 773.875 230.633 774.062 231.555C774.25 232.477 774.547 233.289 774.953 233.992C775.375 234.68 775.922 235.219 776.594 235.609C777.266 236 778.086 236.195 779.055 236.195C779.992 236.195 780.797 236 781.469 235.609C782.141 235.219 782.68 234.68 783.086 233.992C783.492 233.289 783.789 232.477 783.977 231.555C784.18 230.633 784.281 229.641 784.281 228.578V228.086C784.281 227.055 784.18 226.086 783.977 225.18C783.789 224.258 783.484 223.445 783.062 222.742C782.656 222.023 782.117 221.461 781.445 221.055C780.773 220.648 779.961 220.445 779.008 220.445C778.055 220.445 777.242 220.648 776.57 221.055C775.914 221.461 775.375 222.023 774.953 222.742C774.547 223.445 774.25 224.258 774.062 225.18C773.875 226.086 773.781 227.055 773.781 228.086ZM811.258 215.641H817.375V240.156C817.375 242.469 816.859 244.43 815.828 246.039C814.812 247.664 813.391 248.891 811.562 249.719C809.734 250.562 807.609 250.984 805.188 250.984C804.125 250.984 803 250.844 801.812 250.562C800.641 250.281 799.516 249.844 798.438 249.25C797.375 248.656 796.484 247.906 795.766 247L798.742 243.016C799.523 243.922 800.43 244.625 801.461 245.125C802.492 245.641 803.633 245.898 804.883 245.898C806.102 245.898 807.133 245.672 807.977 245.219C808.82 244.781 809.469 244.133 809.922 243.273C810.375 242.43 810.602 241.406 810.602 240.203V221.5L811.258 215.641ZM794.195 228.625V228.133C794.195 226.195 794.43 224.438 794.898 222.859C795.383 221.266 796.062 219.898 796.938 218.758C797.828 217.617 798.906 216.734 800.172 216.109C801.438 215.484 802.867 215.172 804.461 215.172C806.148 215.172 807.562 215.484 808.703 216.109C809.844 216.734 810.781 217.625 811.516 218.781C812.25 219.922 812.82 221.273 813.227 222.836C813.648 224.383 813.977 226.078 814.211 227.922V229C813.977 230.766 813.625 232.406 813.156 233.922C812.688 235.438 812.07 236.766 811.305 237.906C810.539 239.031 809.586 239.906 808.445 240.531C807.32 241.156 805.977 241.469 804.414 241.469C802.852 241.469 801.438 241.148 800.172 240.508C798.922 239.867 797.852 238.969 796.961 237.812C796.07 236.656 795.383 235.297 794.898 233.734C794.43 232.172 794.195 230.469 794.195 228.625ZM800.945 228.133V228.625C800.945 229.672 801.047 230.648 801.25 231.555C801.453 232.461 801.766 233.266 802.188 233.969C802.625 234.656 803.164 235.195 803.805 235.586C804.461 235.961 805.234 236.148 806.125 236.148C807.359 236.148 808.367 235.891 809.148 235.375C809.93 234.844 810.516 234.117 810.906 233.195C811.297 232.273 811.523 231.211 811.586 230.008V226.938C811.555 225.953 811.422 225.07 811.188 224.289C810.953 223.492 810.625 222.812 810.203 222.25C809.781 221.688 809.234 221.25 808.562 220.938C807.891 220.625 807.094 220.469 806.172 220.469C805.281 220.469 804.508 220.672 803.852 221.078C803.211 221.469 802.672 222.008 802.234 222.695C801.812 223.383 801.492 224.195 801.273 225.133C801.055 226.055 800.945 227.055 800.945 228.133ZM829.75 215.641V241H822.977V215.641H829.75ZM822.555 209.031C822.555 208.047 822.898 207.234 823.586 206.594C824.273 205.953 825.195 205.633 826.352 205.633C827.492 205.633 828.406 205.953 829.094 206.594C829.797 207.234 830.148 208.047 830.148 209.031C830.148 210.016 829.797 210.828 829.094 211.469C828.406 212.109 827.492 212.43 826.352 212.43C825.195 212.43 824.273 212.109 823.586 211.469C822.898 210.828 822.555 210.016 822.555 209.031ZM841.938 221.055V241H835.188V215.641H841.516L841.938 221.055ZM840.953 227.43H839.125C839.125 225.555 839.367 223.867 839.852 222.367C840.336 220.852 841.016 219.562 841.891 218.5C842.766 217.422 843.805 216.602 845.008 216.039C846.227 215.461 847.586 215.172 849.086 215.172C850.273 215.172 851.359 215.344 852.344 215.688C853.328 216.031 854.172 216.578 854.875 217.328C855.594 218.078 856.141 219.07 856.516 220.305C856.906 221.539 857.102 223.047 857.102 224.828V241H850.305V224.805C850.305 223.68 850.148 222.805 849.836 222.18C849.523 221.555 849.062 221.117 848.453 220.867C847.859 220.602 847.125 220.469 846.25 220.469C845.344 220.469 844.555 220.648 843.883 221.008C843.227 221.367 842.68 221.867 842.242 222.508C841.82 223.133 841.5 223.867 841.281 224.711C841.062 225.555 840.953 226.461 840.953 227.43ZM645.602 291.469V261H652.398V297H646.281L645.602 291.469ZM629.57 284.625V284.133C629.57 282.195 629.789 280.438 630.227 278.859C630.664 277.266 631.305 275.898 632.148 274.758C632.992 273.617 634.031 272.734 635.266 272.109C636.5 271.484 637.906 271.172 639.484 271.172C640.969 271.172 642.266 271.484 643.375 272.109C644.5 272.734 645.453 273.625 646.234 274.781C647.031 275.922 647.672 277.273 648.156 278.836C648.641 280.383 648.992 282.078 649.211 283.922V285C648.992 286.766 648.641 288.406 648.156 289.922C647.672 291.438 647.031 292.766 646.234 293.906C645.453 295.031 644.5 295.906 643.375 296.531C642.25 297.156 640.938 297.469 639.438 297.469C637.859 297.469 636.453 297.148 635.219 296.508C634 295.867 632.969 294.969 632.125 293.812C631.297 292.656 630.664 291.297 630.227 289.734C629.789 288.172 629.57 286.469 629.57 284.625ZM636.32 284.133V284.625C636.32 285.672 636.398 286.648 636.555 287.555C636.727 288.461 637 289.266 637.375 289.969C637.766 290.656 638.266 291.195 638.875 291.586C639.5 291.961 640.258 292.148 641.148 292.148C642.305 292.148 643.258 291.891 644.008 291.375C644.758 290.844 645.328 290.117 645.719 289.195C646.125 288.273 646.359 287.211 646.422 286.008V282.938C646.375 281.953 646.234 281.07 646 280.289C645.781 279.492 645.453 278.812 645.016 278.25C644.594 277.688 644.062 277.25 643.422 276.938C642.797 276.625 642.055 276.469 641.195 276.469C640.32 276.469 639.57 276.672 638.945 277.078C638.32 277.469 637.812 278.008 637.422 278.695C637.047 279.383 636.766 280.195 636.578 281.133C636.406 282.055 636.32 283.055 636.32 284.133ZM664.797 271.641V297H658.023V271.641H664.797ZM657.602 265.031C657.602 264.047 657.945 263.234 658.633 262.594C659.32 261.953 660.242 261.633 661.398 261.633C662.539 261.633 663.453 261.953 664.141 262.594C664.844 263.234 665.195 264.047 665.195 265.031C665.195 266.016 664.844 266.828 664.141 267.469C663.453 268.109 662.539 268.43 661.398 268.43C660.242 268.43 659.32 268.109 658.633 267.469C657.945 266.828 657.602 266.016 657.602 265.031ZM709.797 279.164V292.688C709.266 293.328 708.445 294.023 707.336 294.773C706.227 295.508 704.797 296.141 703.047 296.672C701.297 297.203 699.18 297.469 696.695 297.469C694.492 297.469 692.484 297.109 690.672 296.391C688.859 295.656 687.297 294.586 685.984 293.18C684.688 291.773 683.688 290.055 682.984 288.023C682.281 285.977 681.93 283.641 681.93 281.016V278.883C681.93 276.258 682.266 273.922 682.938 271.875C683.625 269.828 684.602 268.102 685.867 266.695C687.133 265.289 688.641 264.219 690.391 263.484C692.141 262.75 694.086 262.383 696.227 262.383C699.195 262.383 701.633 262.867 703.539 263.836C705.445 264.789 706.898 266.117 707.898 267.82C708.914 269.508 709.539 271.445 709.773 273.633H702.953C702.781 272.477 702.453 271.469 701.969 270.609C701.484 269.75 700.789 269.078 699.883 268.594C698.992 268.109 697.836 267.867 696.414 267.867C695.242 267.867 694.195 268.109 693.273 268.594C692.367 269.062 691.602 269.758 690.977 270.68C690.352 271.602 689.875 272.742 689.547 274.102C689.219 275.461 689.055 277.039 689.055 278.836V281.016C689.055 282.797 689.227 284.375 689.57 285.75C689.914 287.109 690.422 288.258 691.094 289.195C691.781 290.117 692.625 290.812 693.625 291.281C694.625 291.75 695.789 291.984 697.117 291.984C698.227 291.984 699.148 291.891 699.883 291.703C700.633 291.516 701.234 291.289 701.688 291.023C702.156 290.742 702.516 290.477 702.766 290.227V284.18H696.344V279.164H709.797ZM722.172 271.641V297H715.398V271.641H722.172ZM714.977 265.031C714.977 264.047 715.32 263.234 716.008 262.594C716.695 261.953 717.617 261.633 718.773 261.633C719.914 261.633 720.828 261.953 721.516 262.594C722.219 263.234 722.57 264.047 722.57 265.031C722.57 266.016 722.219 266.828 721.516 267.469C720.828 268.109 719.914 268.43 718.773 268.43C717.617 268.43 716.695 268.109 716.008 267.469C715.32 266.828 714.977 266.016 714.977 265.031ZM740.172 271.641V276.422H725.406V271.641H740.172ZM729.062 265.383H735.812V289.359C735.812 290.094 735.906 290.656 736.094 291.047C736.297 291.438 736.594 291.711 736.984 291.867C737.375 292.008 737.867 292.078 738.461 292.078C738.883 292.078 739.258 292.062 739.586 292.031C739.93 291.984 740.219 291.938 740.453 291.891L740.477 296.859C739.898 297.047 739.273 297.195 738.602 297.305C737.93 297.414 737.188 297.469 736.375 297.469C734.891 297.469 733.594 297.227 732.484 296.742C731.391 296.242 730.547 295.445 729.953 294.352C729.359 293.258 729.062 291.82 729.062 290.039V265.383ZM766.375 291.516V297H749.195V291.516H766.375ZM751.469 262.875V297H744.438V262.875H751.469ZM783.672 291.281V279.984C783.672 279.172 783.539 278.477 783.273 277.898C783.008 277.305 782.594 276.844 782.031 276.516C781.484 276.188 780.773 276.023 779.898 276.023C779.148 276.023 778.5 276.156 777.953 276.422C777.406 276.672 776.984 277.039 776.688 277.523C776.391 277.992 776.242 278.547 776.242 279.188H769.492C769.492 278.109 769.742 277.086 770.242 276.117C770.742 275.148 771.469 274.297 772.422 273.562C773.375 272.812 774.508 272.227 775.82 271.805C777.148 271.383 778.633 271.172 780.273 271.172C782.242 271.172 783.992 271.5 785.523 272.156C787.055 272.812 788.258 273.797 789.133 275.109C790.023 276.422 790.469 278.062 790.469 280.031V290.883C790.469 292.273 790.555 293.414 790.727 294.305C790.898 295.18 791.148 295.945 791.477 296.602V297H784.656C784.328 296.312 784.078 295.453 783.906 294.422C783.75 293.375 783.672 292.328 783.672 291.281ZM784.562 281.555L784.609 285.375H780.836C779.945 285.375 779.172 285.477 778.516 285.68C777.859 285.883 777.32 286.172 776.898 286.547C776.477 286.906 776.164 287.328 775.961 287.812C775.773 288.297 775.68 288.828 775.68 289.406C775.68 289.984 775.812 290.508 776.078 290.977C776.344 291.43 776.727 291.789 777.227 292.055C777.727 292.305 778.312 292.43 778.984 292.43C780 292.43 780.883 292.227 781.633 291.82C782.383 291.414 782.961 290.914 783.367 290.32C783.789 289.727 784.008 289.164 784.023 288.633L785.805 291.492C785.555 292.133 785.211 292.797 784.773 293.484C784.352 294.172 783.812 294.82 783.156 295.43C782.5 296.023 781.711 296.516 780.789 296.906C779.867 297.281 778.773 297.469 777.508 297.469C775.898 297.469 774.438 297.148 773.125 296.508C771.828 295.852 770.797 294.953 770.031 293.812C769.281 292.656 768.906 291.344 768.906 289.875C768.906 288.547 769.156 287.367 769.656 286.336C770.156 285.305 770.891 284.438 771.859 283.734C772.844 283.016 774.07 282.477 775.539 282.117C777.008 281.742 778.711 281.555 780.648 281.555H784.562ZM795.672 261H802.422V291.188L801.742 297H795.672V261ZM818.477 284.062V284.555C818.477 286.445 818.273 288.18 817.867 289.758C817.477 291.336 816.867 292.703 816.039 293.859C815.211 295 814.18 295.891 812.945 296.531C811.727 297.156 810.289 297.469 808.633 297.469C807.086 297.469 805.742 297.156 804.602 296.531C803.477 295.906 802.531 295.023 801.766 293.883C801 292.742 800.383 291.406 799.914 289.875C799.445 288.344 799.094 286.672 798.859 284.859V283.781C799.094 281.969 799.445 280.297 799.914 278.766C800.383 277.234 801 275.898 801.766 274.758C802.531 273.617 803.477 272.734 804.602 272.109C805.727 271.484 807.055 271.172 808.586 271.172C810.258 271.172 811.711 271.492 812.945 272.133C814.195 272.758 815.227 273.648 816.039 274.805C816.867 275.945 817.477 277.305 817.867 278.883C818.273 280.445 818.477 282.172 818.477 284.062ZM811.727 284.555V284.062C811.727 283.031 811.648 282.062 811.492 281.156C811.352 280.234 811.102 279.43 810.742 278.742C810.383 278.039 809.891 277.484 809.266 277.078C808.656 276.672 807.867 276.469 806.898 276.469C805.977 276.469 805.195 276.625 804.555 276.938C803.914 277.25 803.383 277.688 802.961 278.25C802.555 278.812 802.25 279.484 802.047 280.266C801.844 281.031 801.719 281.875 801.672 282.797V285.867C801.719 287.102 801.922 288.195 802.281 289.148C802.656 290.086 803.219 290.828 803.969 291.375C804.734 291.906 805.727 292.172 806.945 292.172C807.898 292.172 808.688 291.984 809.312 291.609C809.938 291.234 810.422 290.703 810.766 290.016C811.125 289.328 811.375 288.523 811.516 287.602C811.656 286.664 811.727 285.648 811.727 284.555Z" fill="#FB6D27"/>
</g>
<path d="M179.672 323.562V336.594C179.188 337.234 178.43 337.938 177.398 338.703C176.383 339.453 175.031 340.102 173.344 340.648C171.656 341.195 169.555 341.469 167.039 341.469C164.898 341.469 162.938 341.109 161.156 340.391C159.375 339.656 157.836 338.586 156.539 337.18C155.258 335.773 154.266 334.062 153.562 332.047C152.859 330.016 152.508 327.703 152.508 325.109V322.742C152.508 320.164 152.828 317.867 153.469 315.852C154.125 313.82 155.062 312.102 156.281 310.695C157.5 309.289 158.969 308.227 160.688 307.508C162.422 306.773 164.383 306.406 166.57 306.406C169.367 306.406 171.68 306.875 173.508 307.812C175.352 308.734 176.773 310.016 177.773 311.656C178.773 313.297 179.406 315.172 179.672 317.281H173.906C173.719 316.094 173.352 315.031 172.805 314.094C172.273 313.156 171.508 312.422 170.508 311.891C169.523 311.344 168.242 311.07 166.664 311.07C165.305 311.07 164.109 311.328 163.078 311.844C162.047 312.359 161.188 313.117 160.5 314.117C159.828 315.117 159.32 316.336 158.977 317.773C158.633 319.211 158.461 320.852 158.461 322.695V325.109C158.461 326.984 158.656 328.648 159.047 330.102C159.453 331.555 160.031 332.781 160.781 333.781C161.547 334.781 162.477 335.539 163.57 336.055C164.664 336.555 165.898 336.805 167.273 336.805C168.617 336.805 169.719 336.695 170.578 336.477C171.438 336.242 172.117 335.969 172.617 335.656C173.133 335.328 173.531 335.016 173.812 334.719V327.945H166.711V323.562H179.672ZM191.672 315.641V341H186V315.641H191.672ZM185.625 308.984C185.625 308.125 185.906 307.414 186.469 306.852C187.047 306.273 187.844 305.984 188.859 305.984C189.859 305.984 190.648 306.273 191.227 306.852C191.805 307.414 192.094 308.125 192.094 308.984C192.094 309.828 191.805 310.531 191.227 311.094C190.648 311.656 189.859 311.938 188.859 311.938C187.844 311.938 187.047 311.656 186.469 311.094C185.906 310.531 185.625 309.828 185.625 308.984ZM209.484 315.641V319.766H195.188V315.641H209.484ZM199.312 309.43H204.961V333.992C204.961 334.773 205.07 335.375 205.289 335.797C205.523 336.203 205.844 336.477 206.25 336.617C206.656 336.758 207.133 336.828 207.68 336.828C208.07 336.828 208.445 336.805 208.805 336.758C209.164 336.711 209.453 336.664 209.672 336.617L209.695 340.93C209.227 341.07 208.68 341.195 208.055 341.305C207.445 341.414 206.742 341.469 205.945 341.469C204.648 341.469 203.5 341.242 202.5 340.789C201.5 340.32 200.719 339.562 200.156 338.516C199.594 337.469 199.312 336.078 199.312 334.344V309.43ZM235.781 336.336V341H218.648V336.336H235.781ZM220.289 306.875V341H214.406V306.875H220.289ZM254.062 335.914V323.82C254.062 322.914 253.898 322.133 253.57 321.477C253.242 320.82 252.742 320.312 252.07 319.953C251.414 319.594 250.586 319.414 249.586 319.414C248.664 319.414 247.867 319.57 247.195 319.883C246.523 320.195 246 320.617 245.625 321.148C245.25 321.68 245.062 322.281 245.062 322.953H239.438C239.438 321.953 239.68 320.984 240.164 320.047C240.648 319.109 241.352 318.273 242.273 317.539C243.195 316.805 244.297 316.227 245.578 315.805C246.859 315.383 248.297 315.172 249.891 315.172C251.797 315.172 253.484 315.492 254.953 316.133C256.438 316.773 257.602 317.742 258.445 319.039C259.305 320.32 259.734 321.93 259.734 323.867V335.141C259.734 336.297 259.812 337.336 259.969 338.258C260.141 339.164 260.383 339.953 260.695 340.625V341H254.906C254.641 340.391 254.43 339.617 254.273 338.68C254.133 337.727 254.062 336.805 254.062 335.914ZM254.883 325.578L254.93 329.07H250.875C249.828 329.07 248.906 329.172 248.109 329.375C247.312 329.562 246.648 329.844 246.117 330.219C245.586 330.594 245.188 331.047 244.922 331.578C244.656 332.109 244.523 332.711 244.523 333.383C244.523 334.055 244.68 334.672 244.992 335.234C245.305 335.781 245.758 336.211 246.352 336.523C246.961 336.836 247.695 336.992 248.555 336.992C249.711 336.992 250.719 336.758 251.578 336.289C252.453 335.805 253.141 335.219 253.641 334.531C254.141 333.828 254.406 333.164 254.438 332.539L256.266 335.047C256.078 335.688 255.758 336.375 255.305 337.109C254.852 337.844 254.258 338.547 253.523 339.219C252.805 339.875 251.938 340.414 250.922 340.836C249.922 341.258 248.766 341.469 247.453 341.469C245.797 341.469 244.32 341.141 243.023 340.484C241.727 339.812 240.711 338.914 239.977 337.789C239.242 336.648 238.875 335.359 238.875 333.922C238.875 332.578 239.125 331.391 239.625 330.359C240.141 329.312 240.891 328.438 241.875 327.734C242.875 327.031 244.094 326.5 245.531 326.141C246.969 325.766 248.609 325.578 250.453 325.578H254.883ZM265.664 305H271.312V335.586L270.773 341H265.664V305ZM287.859 328.086V328.578C287.859 330.453 287.648 332.18 287.227 333.758C286.82 335.32 286.195 336.68 285.352 337.836C284.523 338.992 283.492 339.891 282.258 340.531C281.039 341.156 279.625 341.469 278.016 341.469C276.438 341.469 275.062 341.172 273.891 340.578C272.719 339.984 271.734 339.141 270.938 338.047C270.156 336.953 269.523 335.648 269.039 334.133C268.555 332.617 268.211 330.945 268.008 329.117V327.547C268.211 325.703 268.555 324.031 269.039 322.531C269.523 321.016 270.156 319.711 270.938 318.617C271.734 317.508 272.711 316.656 273.867 316.062C275.039 315.469 276.406 315.172 277.969 315.172C279.594 315.172 281.023 315.484 282.258 316.109C283.508 316.734 284.547 317.625 285.375 318.781C286.203 319.922 286.82 321.281 287.227 322.859C287.648 324.438 287.859 326.18 287.859 328.086ZM282.211 328.578V328.086C282.211 326.945 282.117 325.875 281.93 324.875C281.742 323.859 281.43 322.969 280.992 322.203C280.57 321.438 279.992 320.836 279.258 320.398C278.539 319.945 277.641 319.719 276.562 319.719C275.562 319.719 274.703 319.891 273.984 320.234C273.266 320.578 272.664 321.047 272.18 321.641C271.695 322.234 271.312 322.922 271.031 323.703C270.766 324.484 270.586 325.328 270.492 326.234V330.477C270.633 331.648 270.93 332.727 271.383 333.711C271.852 334.68 272.508 335.461 273.352 336.055C274.195 336.633 275.281 336.922 276.609 336.922C277.656 336.922 278.539 336.711 279.258 336.289C279.977 335.867 280.547 335.281 280.969 334.531C281.406 333.766 281.719 332.875 281.906 331.859C282.109 330.844 282.211 329.75 282.211 328.578Z" fill="white"/>
</g>
<defs>
<filter id="filter0_d_3_2" x="624.57" y="205.633" width="237.531" height="101.836" filterUnits="userSpaceOnUse" color-interpolation-filters="sRGB">
<feFlood flood-opacity="0" result="BackgroundImageFix"/>
<feColorMatrix in="SourceAlpha" type="matrix" values="0 0 0 0 0 0 0 0 0 0 0 0 0 0 0 0 0 0 127 0" result="hardAlpha"/>
<feOffset dy="5"/>
<feGaussianBlur stdDeviation="2.5"/>
<feComposite in2="hardAlpha" operator="out"/>
<feColorMatrix type="matrix" values="0 0 0 0 0 0 0 0 0 0 0 0 0 0 0 0 0 0 0.25 0"/>
<feBlend mode="normal" in2="BackgroundImageFix" result="effect1_dropShadow_3_2"/>
<feBlend mode="normal" in="SourceGraphic" in2="effect1_dropShadow_3_2" result="shape"/>
</filter>
<linearGradient id="paint0_linear_3_2" x1="-6.00512e-06" y1="10.5" x2="1000" y2="500" gradientUnits="userSpaceOnUse">
<stop stop-color="#E14329"/>
<stop offset="1" stop-color="#FB6D27"/>
</linearGradient>
<clipPath id="clip0_3_2">
<rect width="1000" height="500" fill="white"/>
</clipPath>
</defs>
</svg>
