<svg width="1000" height="500" viewBox="0 0 1000 500" fill="none" xmlns="http://www.w3.org/2000/svg">
<g clip-path="url(#clip0_8_2)">
<rect width="1000" height="500" fill="url(#paint0_linear_8_2)"/>
<path d="M312.996 204L303.16 173.5C303.108 173.219 303.028 172.945 302.922 172.68L283.195 111.375C282.678 109.799 281.675 108.427 280.329 107.458C278.984 106.488 277.366 105.969 275.707 105.977C274.053 105.972 272.44 106.498 271.108 107.478C269.775 108.459 268.793 109.841 268.305 111.422L249.5 169.84H190.125L171.305 111.418C170.819 109.843 169.842 108.464 168.516 107.484C167.191 106.504 165.586 105.975 163.938 105.973H163.895C162.232 105.978 160.613 106.511 159.271 107.493C157.929 108.476 156.933 109.858 156.426 111.441L136.68 172.801C136.68 172.855 136.637 172.902 136.617 172.957L126.605 204.004C125.868 206.278 125.865 208.726 126.597 211.002C127.329 213.278 128.759 215.266 130.684 216.684L217.184 280.125C217.943 280.681 218.861 280.978 219.801 280.973C220.742 280.968 221.657 280.661 222.41 280.098L308.926 216.684C310.851 215.265 312.28 213.276 313.011 211C313.742 208.723 313.736 206.274 312.996 204ZM183.699 178.801L207.813 253.707L149.934 178.801M231.824 253.723L254.945 181.91L255.941 178.785H289.738L237.371 246.516M275.781 117.168L292.723 169.836H258.809M246.625 178.766L229.828 230.945L219.805 262.023L193.023 178.766M163.855 117.168L180.832 169.836H146.953M135.891 209.461C135.482 209.159 135.178 208.737 135.023 208.253C134.868 207.769 134.87 207.249 135.027 206.766L142.449 183.719L196.984 254.262M303.727 209.461L242.625 254.242L242.828 253.973L297.148 183.703L304.57 206.75C304.73 207.233 304.733 207.755 304.579 208.24C304.426 208.725 304.123 209.15 303.715 209.453" fill="#F7F7F7"/>
<rect x="365.682" y="-23.51" width="418" height="818.138" transform="rotate(-28.3711 365.682 -23.51)" fill="#F7F7F7"/>
<g filter="url(#filter0_d_8_2)">
<path d="M597.828 214.68H604.836C604.695 216.977 604.062 219.016 602.938 220.797C601.828 222.578 600.273 223.969 598.273 224.969C596.289 225.969 593.898 226.469 591.102 226.469C588.914 226.469 586.953 226.094 585.219 225.344C583.484 224.578 582 223.484 580.766 222.062C579.547 220.641 578.617 218.922 577.977 216.906C577.336 214.891 577.016 212.633 577.016 210.133V207.766C577.016 205.266 577.344 203.008 578 200.992C578.672 198.961 579.625 197.234 580.859 195.812C582.109 194.391 583.602 193.297 585.336 192.531C587.07 191.766 589.008 191.383 591.148 191.383C593.992 191.383 596.391 191.898 598.344 192.93C600.312 193.961 601.836 195.383 602.914 197.195C604.008 199.008 604.664 201.07 604.883 203.383H597.852C597.773 202.008 597.5 200.844 597.031 199.891C596.562 198.922 595.852 198.195 594.898 197.711C593.961 197.211 592.711 196.961 591.148 196.961C589.977 196.961 588.953 197.18 588.078 197.617C587.203 198.055 586.469 198.719 585.875 199.609C585.281 200.5 584.836 201.625 584.539 202.984C584.258 204.328 584.117 205.906 584.117 207.719V210.133C584.117 211.898 584.25 213.453 584.516 214.797C584.781 216.125 585.188 217.25 585.734 218.172C586.297 219.078 587.016 219.766 587.891 220.234C588.781 220.688 589.852 220.914 591.102 220.914C592.57 220.914 593.781 220.68 594.734 220.211C595.688 219.742 596.414 219.047 596.914 218.125C597.43 217.203 597.734 216.055 597.828 214.68ZM622.719 220.281V208.984C622.719 208.172 622.586 207.477 622.32 206.898C622.055 206.305 621.641 205.844 621.078 205.516C620.531 205.188 619.82 205.023 618.945 205.023C618.195 205.023 617.547 205.156 617 205.422C616.453 205.672 616.031 206.039 615.734 206.523C615.438 206.992 615.289 207.547 615.289 208.188H608.539C608.539 207.109 608.789 206.086 609.289 205.117C609.789 204.148 610.516 203.297 611.469 202.562C612.422 201.812 613.555 201.227 614.867 200.805C616.195 200.383 617.68 200.172 619.32 200.172C621.289 200.172 623.039 200.5 624.57 201.156C626.102 201.812 627.305 202.797 628.18 204.109C629.07 205.422 629.516 207.062 629.516 209.031V219.883C629.516 221.273 629.602 222.414 629.773 223.305C629.945 224.18 630.195 224.945 630.523 225.602V226H623.703C623.375 225.312 623.125 224.453 622.953 223.422C622.797 222.375 622.719 221.328 622.719 220.281ZM623.609 210.555L623.656 214.375H619.883C618.992 214.375 618.219 214.477 617.562 214.68C616.906 214.883 616.367 215.172 615.945 215.547C615.523 215.906 615.211 216.328 615.008 216.812C614.82 217.297 614.727 217.828 614.727 218.406C614.727 218.984 614.859 219.508 615.125 219.977C615.391 220.43 615.773 220.789 616.273 221.055C616.773 221.305 617.359 221.43 618.031 221.43C619.047 221.43 619.93 221.227 620.68 220.82C621.43 220.414 622.008 219.914 622.414 219.32C622.836 218.727 623.055 218.164 623.07 217.633L624.852 220.492C624.602 221.133 624.258 221.797 623.82 222.484C623.398 223.172 622.859 223.82 622.203 224.43C621.547 225.023 620.758 225.516 619.836 225.906C618.914 226.281 617.82 226.469 616.555 226.469C614.945 226.469 613.484 226.148 612.172 225.508C610.875 224.852 609.844 223.953 609.078 222.812C608.328 221.656 607.953 220.344 607.953 218.875C607.953 217.547 608.203 216.367 608.703 215.336C609.203 214.305 609.938 213.438 610.906 212.734C611.891 212.016 613.117 211.477 614.586 211.117C616.055 210.742 617.758 210.555 619.695 210.555H623.609ZM641.469 206.172V226H634.719V200.641H641.07L641.469 206.172ZM649.109 200.477L648.992 206.734C648.664 206.688 648.266 206.648 647.797 206.617C647.344 206.57 646.93 206.547 646.555 206.547C645.602 206.547 644.773 206.672 644.07 206.922C643.383 207.156 642.805 207.508 642.336 207.977C641.883 208.445 641.539 209.016 641.305 209.688C641.086 210.359 640.961 211.125 640.93 211.984L639.57 211.562C639.57 209.922 639.734 208.414 640.062 207.039C640.391 205.648 640.867 204.438 641.492 203.406C642.133 202.375 642.914 201.578 643.836 201.016C644.758 200.453 645.812 200.172 647 200.172C647.375 200.172 647.758 200.203 648.148 200.266C648.539 200.312 648.859 200.383 649.109 200.477ZM665.188 220.281V208.984C665.188 208.172 665.055 207.477 664.789 206.898C664.523 206.305 664.109 205.844 663.547 205.516C663 205.188 662.289 205.023 661.414 205.023C660.664 205.023 660.016 205.156 659.469 205.422C658.922 205.672 658.5 206.039 658.203 206.523C657.906 206.992 657.758 207.547 657.758 208.188H651.008C651.008 207.109 651.258 206.086 651.758 205.117C652.258 204.148 652.984 203.297 653.938 202.562C654.891 201.812 656.023 201.227 657.336 200.805C658.664 200.383 660.148 200.172 661.789 200.172C663.758 200.172 665.508 200.5 667.039 201.156C668.57 201.812 669.773 202.797 670.648 204.109C671.539 205.422 671.984 207.062 671.984 209.031V219.883C671.984 221.273 672.07 222.414 672.242 223.305C672.414 224.18 672.664 224.945 672.992 225.602V226H666.172C665.844 225.312 665.594 224.453 665.422 223.422C665.266 222.375 665.188 221.328 665.188 220.281ZM666.078 210.555L666.125 214.375H662.352C661.461 214.375 660.688 214.477 660.031 214.68C659.375 214.883 658.836 215.172 658.414 215.547C657.992 215.906 657.68 216.328 657.477 216.812C657.289 217.297 657.195 217.828 657.195 218.406C657.195 218.984 657.328 219.508 657.594 219.977C657.859 220.43 658.242 220.789 658.742 221.055C659.242 221.305 659.828 221.43 660.5 221.43C661.516 221.43 662.398 221.227 663.148 220.82C663.898 220.414 664.477 219.914 664.883 219.32C665.305 218.727 665.523 218.164 665.539 217.633L667.32 220.492C667.07 221.133 666.727 221.797 666.289 222.484C665.867 223.172 665.328 223.82 664.672 224.43C664.016 225.023 663.227 225.516 662.305 225.906C661.383 226.281 660.289 226.469 659.023 226.469C657.414 226.469 655.953 226.148 654.641 225.508C653.344 224.852 652.312 223.953 651.547 222.812C650.797 221.656 650.422 220.344 650.422 218.875C650.422 217.547 650.672 216.367 651.172 215.336C651.672 214.305 652.406 213.438 653.375 212.734C654.359 212.016 655.586 211.477 657.055 211.117C658.523 210.742 660.227 210.555 662.164 210.555H666.078ZM692.773 191.875H698.727L707.492 216.93L716.258 191.875H722.211L709.883 226H705.102L692.773 191.875ZM689.562 191.875H695.492L696.57 216.297V226H689.562V191.875ZM719.492 191.875H725.445V226H718.414V216.297L719.492 191.875ZM742.859 226.469C740.891 226.469 739.125 226.156 737.562 225.531C736 224.891 734.672 224.008 733.578 222.883C732.5 221.758 731.672 220.453 731.094 218.969C730.516 217.469 730.227 215.875 730.227 214.188V213.25C730.227 211.328 730.5 209.57 731.047 207.977C731.594 206.383 732.375 205 733.391 203.828C734.422 202.656 735.672 201.758 737.141 201.133C738.609 200.492 740.266 200.172 742.109 200.172C743.906 200.172 745.5 200.469 746.891 201.062C748.281 201.656 749.445 202.5 750.383 203.594C751.336 204.688 752.055 206 752.539 207.531C753.023 209.047 753.266 210.734 753.266 212.594V215.406H733.109V210.906H746.633V210.391C746.633 209.453 746.461 208.617 746.117 207.883C745.789 207.133 745.289 206.539 744.617 206.102C743.945 205.664 743.086 205.445 742.039 205.445C741.148 205.445 740.383 205.641 739.742 206.031C739.102 206.422 738.578 206.969 738.172 207.672C737.781 208.375 737.484 209.203 737.281 210.156C737.094 211.094 737 212.125 737 213.25V214.188C737 215.203 737.141 216.141 737.422 217C737.719 217.859 738.133 218.602 738.664 219.227C739.211 219.852 739.867 220.336 740.633 220.68C741.414 221.023 742.297 221.195 743.281 221.195C744.5 221.195 745.633 220.961 746.68 220.492C747.742 220.008 748.656 219.281 749.422 218.312L752.703 221.875C752.172 222.641 751.445 223.375 750.523 224.078C749.617 224.781 748.523 225.359 747.242 225.812C745.961 226.25 744.5 226.469 742.859 226.469ZM763.859 205.891V226H757.086V200.641H763.438L763.859 205.891ZM762.922 212.43H761.047C761.047 210.664 761.258 209.039 761.68 207.555C762.117 206.055 762.75 204.758 763.578 203.664C764.422 202.555 765.461 201.695 766.695 201.086C767.93 200.477 769.359 200.172 770.984 200.172C772.109 200.172 773.141 200.344 774.078 200.688C775.016 201.016 775.82 201.539 776.492 202.258C777.18 202.961 777.711 203.883 778.086 205.023C778.461 206.148 778.648 207.5 778.648 209.078V226H771.898V209.828C771.898 208.672 771.742 207.781 771.43 207.156C771.117 206.531 770.672 206.094 770.094 205.844C769.531 205.594 768.852 205.469 768.055 205.469C767.18 205.469 766.414 205.648 765.758 206.008C765.117 206.367 764.586 206.867 764.164 207.508C763.742 208.133 763.43 208.867 763.227 209.711C763.023 210.555 762.922 211.461 762.922 212.43ZM778.016 211.656L775.602 211.961C775.602 210.305 775.805 208.766 776.211 207.344C776.633 205.922 777.25 204.672 778.062 203.594C778.891 202.516 779.914 201.68 781.133 201.086C782.352 200.477 783.758 200.172 785.352 200.172C786.57 200.172 787.68 200.352 788.68 200.711C789.68 201.055 790.531 201.609 791.234 202.375C791.953 203.125 792.5 204.109 792.875 205.328C793.266 206.547 793.461 208.039 793.461 209.805V226H786.688V209.805C786.688 208.633 786.531 207.742 786.219 207.133C785.922 206.508 785.484 206.078 784.906 205.844C784.344 205.594 783.672 205.469 782.891 205.469C782.078 205.469 781.367 205.633 780.758 205.961C780.148 206.273 779.641 206.711 779.234 207.273C778.828 207.836 778.523 208.492 778.32 209.242C778.117 209.977 778.016 210.781 778.016 211.656ZM798.688 190H805.438V220.188L804.758 226H798.688V190ZM821.492 213.062V213.555C821.492 215.445 821.289 217.18 820.883 218.758C820.492 220.336 819.883 221.703 819.055 222.859C818.227 224 817.195 224.891 815.961 225.531C814.742 226.156 813.305 226.469 811.648 226.469C810.102 226.469 808.758 226.156 807.617 225.531C806.492 224.906 805.547 224.023 804.781 222.883C804.016 221.742 803.398 220.406 802.93 218.875C802.461 217.344 802.109 215.672 801.875 213.859V212.781C802.109 210.969 802.461 209.297 802.93 207.766C803.398 206.234 804.016 204.898 804.781 203.758C805.547 202.617 806.492 201.734 807.617 201.109C808.742 200.484 810.07 200.172 811.602 200.172C813.273 200.172 814.727 200.492 815.961 201.133C817.211 201.758 818.242 202.648 819.055 203.805C819.883 204.945 820.492 206.305 820.883 207.883C821.289 209.445 821.492 211.172 821.492 213.062ZM814.742 213.555V213.062C814.742 212.031 814.664 211.062 814.508 210.156C814.367 209.234 814.117 208.43 813.758 207.742C813.398 207.039 812.906 206.484 812.281 206.078C811.672 205.672 810.883 205.469 809.914 205.469C808.992 205.469 808.211 205.625 807.57 205.938C806.93 206.25 806.398 206.688 805.977 207.25C805.57 207.812 805.266 208.484 805.062 209.266C804.859 210.031 804.734 210.875 804.688 211.797V214.867C804.734 216.102 804.938 217.195 805.297 218.148C805.672 219.086 806.234 219.828 806.984 220.375C807.75 220.906 808.742 221.172 809.961 221.172C810.914 221.172 811.703 220.984 812.328 220.609C812.953 220.234 813.438 219.703 813.781 219.016C814.141 218.328 814.391 217.523 814.531 216.602C814.672 215.664 814.742 214.648 814.742 213.555ZM840.688 219.93V200.641H847.438V226H841.086L840.688 219.93ZM841.438 214.727L843.43 214.68C843.43 216.367 843.234 217.938 842.844 219.391C842.453 220.828 841.867 222.078 841.086 223.141C840.305 224.188 839.32 225.008 838.133 225.602C836.945 226.18 835.547 226.469 833.938 226.469C832.703 226.469 831.562 226.297 830.516 225.953C829.484 225.594 828.594 225.039 827.844 224.289C827.109 223.523 826.531 222.547 826.109 221.359C825.703 220.156 825.5 218.711 825.5 217.023V200.641H832.25V217.07C832.25 217.82 832.336 218.453 832.508 218.969C832.695 219.484 832.953 219.906 833.281 220.234C833.609 220.562 833.992 220.797 834.43 220.938C834.883 221.078 835.383 221.148 835.93 221.148C837.32 221.148 838.414 220.867 839.211 220.305C840.023 219.742 840.594 218.977 840.922 218.008C841.266 217.023 841.438 215.93 841.438 214.727ZM866.281 220.281V208.984C866.281 208.172 866.148 207.477 865.883 206.898C865.617 206.305 865.203 205.844 864.641 205.516C864.094 205.188 863.383 205.023 862.508 205.023C861.758 205.023 861.109 205.156 860.562 205.422C860.016 205.672 859.594 206.039 859.297 206.523C859 206.992 858.852 207.547 858.852 208.188H852.102C852.102 207.109 852.352 206.086 852.852 205.117C853.352 204.148 854.078 203.297 855.031 202.562C855.984 201.812 857.117 201.227 858.43 200.805C859.758 200.383 861.242 200.172 862.883 200.172C864.852 200.172 866.602 200.5 868.133 201.156C869.664 201.812 870.867 202.797 871.742 204.109C872.633 205.422 873.078 207.062 873.078 209.031V219.883C873.078 221.273 873.164 222.414 873.336 223.305C873.508 224.18 873.758 224.945 874.086 225.602V226H867.266C866.938 225.312 866.688 224.453 866.516 223.422C866.359 222.375 866.281 221.328 866.281 220.281ZM867.172 210.555L867.219 214.375H863.445C862.555 214.375 861.781 214.477 861.125 214.68C860.469 214.883 859.93 215.172 859.508 215.547C859.086 215.906 858.773 216.328 858.57 216.812C858.383 217.297 858.289 217.828 858.289 218.406C858.289 218.984 858.422 219.508 858.688 219.977C858.953 220.43 859.336 220.789 859.836 221.055C860.336 221.305 860.922 221.43 861.594 221.43C862.609 221.43 863.492 221.227 864.242 220.82C864.992 220.414 865.57 219.914 865.977 219.32C866.398 218.727 866.617 218.164 866.633 217.633L868.414 220.492C868.164 221.133 867.82 221.797 867.383 222.484C866.961 223.172 866.422 223.82 865.766 224.43C865.109 225.023 864.32 225.516 863.398 225.906C862.477 226.281 861.383 226.469 860.117 226.469C858.508 226.469 857.047 226.148 855.734 225.508C854.438 224.852 853.406 223.953 852.641 222.812C851.891 221.656 851.516 220.344 851.516 218.875C851.516 217.547 851.766 216.367 852.266 215.336C852.766 214.305 853.5 213.438 854.469 212.734C855.453 212.016 856.68 211.477 858.148 211.117C859.617 210.742 861.32 210.555 863.258 210.555H867.172ZM890.703 200.641V205.422H875.938V200.641H890.703ZM879.594 194.383H886.344V218.359C886.344 219.094 886.438 219.656 886.625 220.047C886.828 220.438 887.125 220.711 887.516 220.867C887.906 221.008 888.398 221.078 888.992 221.078C889.414 221.078 889.789 221.062 890.117 221.031C890.461 220.984 890.75 220.938 890.984 220.891L891.008 225.859C890.43 226.047 889.805 226.195 889.133 226.305C888.461 226.414 887.719 226.469 886.906 226.469C885.422 226.469 884.125 226.227 883.016 225.742C881.922 225.242 881.078 224.445 880.484 223.352C879.891 222.258 879.594 220.82 879.594 219.039V194.383ZM581.258 247.875H587.211L595.977 272.93L604.742 247.875H610.695L598.367 282H593.586L581.258 247.875ZM578.047 247.875H583.977L585.055 272.297V282H578.047V247.875ZM607.977 247.875H613.93V282H606.898V272.297L607.977 247.875ZM631.344 282.469C629.375 282.469 627.609 282.156 626.047 281.531C624.484 280.891 623.156 280.008 622.062 278.883C620.984 277.758 620.156 276.453 619.578 274.969C619 273.469 618.711 271.875 618.711 270.188V269.25C618.711 267.328 618.984 265.57 619.531 263.977C620.078 262.383 620.859 261 621.875 259.828C622.906 258.656 624.156 257.758 625.625 257.133C627.094 256.492 628.75 256.172 630.594 256.172C632.391 256.172 633.984 256.469 635.375 257.062C636.766 257.656 637.93 258.5 638.867 259.594C639.82 260.688 640.539 262 641.023 263.531C641.508 265.047 641.75 266.734 641.75 268.594V271.406H621.594V266.906H635.117V266.391C635.117 265.453 634.945 264.617 634.602 263.883C634.273 263.133 633.773 262.539 633.102 262.102C632.43 261.664 631.57 261.445 630.523 261.445C629.633 261.445 628.867 261.641 628.227 262.031C627.586 262.422 627.062 262.969 626.656 263.672C626.266 264.375 625.969 265.203 625.766 266.156C625.578 267.094 625.484 268.125 625.484 269.25V270.188C625.484 271.203 625.625 272.141 625.906 273C626.203 273.859 626.617 274.602 627.148 275.227C627.695 275.852 628.352 276.336 629.117 276.68C629.898 277.023 630.781 277.195 631.766 277.195C632.984 277.195 634.117 276.961 635.164 276.492C636.227 276.008 637.141 275.281 637.906 274.312L641.188 277.875C640.656 278.641 639.93 279.375 639.008 280.078C638.102 280.781 637.008 281.359 635.727 281.812C634.445 282.25 632.984 282.469 631.344 282.469ZM652.344 262.172V282H645.594V256.641H651.945L652.344 262.172ZM659.984 256.477L659.867 262.734C659.539 262.688 659.141 262.648 658.672 262.617C658.219 262.57 657.805 262.547 657.43 262.547C656.477 262.547 655.648 262.672 654.945 262.922C654.258 263.156 653.68 263.508 653.211 263.977C652.758 264.445 652.414 265.016 652.18 265.688C651.961 266.359 651.836 267.125 651.805 267.984L650.445 267.562C650.445 265.922 650.609 264.414 650.938 263.039C651.266 261.648 651.742 260.438 652.367 259.406C653.008 258.375 653.789 257.578 654.711 257.016C655.633 256.453 656.688 256.172 657.875 256.172C658.25 256.172 658.633 256.203 659.023 256.266C659.414 256.312 659.734 256.383 659.984 256.477ZM678.758 256.641H684.875V281.156C684.875 283.469 684.359 285.43 683.328 287.039C682.312 288.664 680.891 289.891 679.062 290.719C677.234 291.562 675.109 291.984 672.688 291.984C671.625 291.984 670.5 291.844 669.312 291.562C668.141 291.281 667.016 290.844 665.938 290.25C664.875 289.656 663.984 288.906 663.266 288L666.242 284.016C667.023 284.922 667.93 285.625 668.961 286.125C669.992 286.641 671.133 286.898 672.383 286.898C673.602 286.898 674.633 286.672 675.477 286.219C676.32 285.781 676.969 285.133 677.422 284.273C677.875 283.43 678.102 282.406 678.102 281.203V262.5L678.758 256.641ZM661.695 269.625V269.133C661.695 267.195 661.93 265.438 662.398 263.859C662.883 262.266 663.562 260.898 664.438 259.758C665.328 258.617 666.406 257.734 667.672 257.109C668.938 256.484 670.367 256.172 671.961 256.172C673.648 256.172 675.062 256.484 676.203 257.109C677.344 257.734 678.281 258.625 679.016 259.781C679.75 260.922 680.32 262.273 680.727 263.836C681.148 265.383 681.477 267.078 681.711 268.922V270C681.477 271.766 681.125 273.406 680.656 274.922C680.188 276.438 679.57 277.766 678.805 278.906C678.039 280.031 677.086 280.906 675.945 281.531C674.82 282.156 673.477 282.469 671.914 282.469C670.352 282.469 668.938 282.148 667.672 281.508C666.422 280.867 665.352 279.969 664.461 278.812C663.57 277.656 662.883 276.297 662.398 274.734C661.93 273.172 661.695 271.469 661.695 269.625ZM668.445 269.133V269.625C668.445 270.672 668.547 271.648 668.75 272.555C668.953 273.461 669.266 274.266 669.688 274.969C670.125 275.656 670.664 276.195 671.305 276.586C671.961 276.961 672.734 277.148 673.625 277.148C674.859 277.148 675.867 276.891 676.648 276.375C677.43 275.844 678.016 275.117 678.406 274.195C678.797 273.273 679.023 272.211 679.086 271.008V267.938C679.055 266.953 678.922 266.07 678.688 265.289C678.453 264.492 678.125 263.812 677.703 263.25C677.281 262.688 676.734 262.25 676.062 261.938C675.391 261.625 674.594 261.469 673.672 261.469C672.781 261.469 672.008 261.672 671.352 262.078C670.711 262.469 670.172 263.008 669.734 263.695C669.312 264.383 668.992 265.195 668.773 266.133C668.555 267.055 668.445 268.055 668.445 269.133ZM701.797 282.469C699.828 282.469 698.062 282.156 696.5 281.531C694.938 280.891 693.609 280.008 692.516 278.883C691.438 277.758 690.609 276.453 690.031 274.969C689.453 273.469 689.164 271.875 689.164 270.188V269.25C689.164 267.328 689.438 265.57 689.984 263.977C690.531 262.383 691.312 261 692.328 259.828C693.359 258.656 694.609 257.758 696.078 257.133C697.547 256.492 699.203 256.172 701.047 256.172C702.844 256.172 704.438 256.469 705.828 257.062C707.219 257.656 708.383 258.5 709.32 259.594C710.273 260.688 710.992 262 711.477 263.531C711.961 265.047 712.203 266.734 712.203 268.594V271.406H692.047V266.906H705.57V266.391C705.57 265.453 705.398 264.617 705.055 263.883C704.727 263.133 704.227 262.539 703.555 262.102C702.883 261.664 702.023 261.445 700.977 261.445C700.086 261.445 699.32 261.641 698.68 262.031C698.039 262.422 697.516 262.969 697.109 263.672C696.719 264.375 696.422 265.203 696.219 266.156C696.031 267.094 695.938 268.125 695.938 269.25V270.188C695.938 271.203 696.078 272.141 696.359 273C696.656 273.859 697.07 274.602 697.602 275.227C698.148 275.852 698.805 276.336 699.57 276.68C700.352 277.023 701.234 277.195 702.219 277.195C703.438 277.195 704.57 276.961 705.617 276.492C706.68 276.008 707.594 275.281 708.359 274.312L711.641 277.875C711.109 278.641 710.383 279.375 709.461 280.078C708.555 280.781 707.461 281.359 706.18 281.812C704.898 282.25 703.438 282.469 701.797 282.469ZM728.422 247.875H741.148C743.758 247.875 746 248.266 747.875 249.047C749.766 249.828 751.219 250.984 752.234 252.516C753.25 254.047 753.758 255.93 753.758 258.164C753.758 259.992 753.445 261.562 752.82 262.875C752.211 264.172 751.344 265.258 750.219 266.133C749.109 266.992 747.805 267.68 746.305 268.195L744.078 269.367H733.016L732.969 263.883H741.195C742.43 263.883 743.453 263.664 744.266 263.227C745.078 262.789 745.688 262.18 746.094 261.398C746.516 260.617 746.727 259.711 746.727 258.68C746.727 257.586 746.523 256.641 746.117 255.844C745.711 255.047 745.094 254.438 744.266 254.016C743.438 253.594 742.398 253.383 741.148 253.383H735.453V282H728.422V247.875ZM747.5 282L739.719 266.789L747.148 266.742L755.023 281.672V282H747.5ZM770.422 282.469C768.453 282.469 766.688 282.156 765.125 281.531C763.562 280.891 762.234 280.008 761.141 278.883C760.062 277.758 759.234 276.453 758.656 274.969C758.078 273.469 757.789 271.875 757.789 270.188V269.25C757.789 267.328 758.062 265.57 758.609 263.977C759.156 262.383 759.938 261 760.953 259.828C761.984 258.656 763.234 257.758 764.703 257.133C766.172 256.492 767.828 256.172 769.672 256.172C771.469 256.172 773.062 256.469 774.453 257.062C775.844 257.656 777.008 258.5 777.945 259.594C778.898 260.688 779.617 262 780.102 263.531C780.586 265.047 780.828 266.734 780.828 268.594V271.406H760.672V266.906H774.195V266.391C774.195 265.453 774.023 264.617 773.68 263.883C773.352 263.133 772.852 262.539 772.18 262.102C771.508 261.664 770.648 261.445 769.602 261.445C768.711 261.445 767.945 261.641 767.305 262.031C766.664 262.422 766.141 262.969 765.734 263.672C765.344 264.375 765.047 265.203 764.844 266.156C764.656 267.094 764.562 268.125 764.562 269.25V270.188C764.562 271.203 764.703 272.141 764.984 273C765.281 273.859 765.695 274.602 766.227 275.227C766.773 275.852 767.43 276.336 768.195 276.68C768.977 277.023 769.859 277.195 770.844 277.195C772.062 277.195 773.195 276.961 774.242 276.492C775.305 276.008 776.219 275.281 776.984 274.312L780.266 277.875C779.734 278.641 779.008 279.375 778.086 280.078C777.18 280.781 776.086 281.359 774.805 281.812C773.523 282.25 772.062 282.469 770.422 282.469ZM799.648 291.75V261.82L800.516 256.641H806.445V291.75H799.648ZM783.617 269.578V269.086C783.617 267.148 783.828 265.391 784.25 263.812C784.688 262.219 785.328 260.859 786.172 259.734C787.016 258.594 788.047 257.719 789.266 257.109C790.5 256.484 791.922 256.172 793.531 256.172C795.078 256.172 796.414 256.484 797.539 257.109C798.664 257.734 799.609 258.617 800.375 259.758C801.156 260.898 801.781 262.242 802.25 263.789C802.719 265.336 803.078 267.031 803.328 268.875V269.953C803.094 271.719 802.734 273.359 802.25 274.875C801.781 276.391 801.156 277.719 800.375 278.859C799.609 280 798.656 280.891 797.516 281.531C796.391 282.156 795.047 282.469 793.484 282.469C791.906 282.469 790.5 282.148 789.266 281.508C788.047 280.852 787.016 279.945 786.172 278.789C785.328 277.633 784.688 276.273 784.25 274.711C783.828 273.133 783.617 271.422 783.617 269.578ZM790.367 269.086V269.578C790.367 270.625 790.453 271.609 790.625 272.531C790.797 273.438 791.07 274.242 791.445 274.945C791.836 275.648 792.336 276.203 792.945 276.609C793.555 277 794.305 277.195 795.195 277.195C796.43 277.195 797.422 276.93 798.172 276.398C798.938 275.852 799.5 275.109 799.859 274.172C800.234 273.234 800.453 272.164 800.516 270.961V267.891C800.469 266.906 800.336 266.023 800.117 265.242C799.914 264.445 799.602 263.766 799.18 263.203C798.773 262.641 798.242 262.211 797.586 261.914C796.945 261.602 796.164 261.445 795.242 261.445C794.367 261.445 793.617 261.641 792.992 262.031C792.367 262.422 791.859 262.969 791.469 263.672C791.094 264.359 790.812 265.164 790.625 266.086C790.453 267.008 790.367 268.008 790.367 269.086ZM826.766 275.93V256.641H833.516V282H827.164L826.766 275.93ZM827.516 270.727L829.508 270.68C829.508 272.367 829.312 273.938 828.922 275.391C828.531 276.828 827.945 278.078 827.164 279.141C826.383 280.188 825.398 281.008 824.211 281.602C823.023 282.18 821.625 282.469 820.016 282.469C818.781 282.469 817.641 282.297 816.594 281.953C815.562 281.594 814.672 281.039 813.922 280.289C813.188 279.523 812.609 278.547 812.188 277.359C811.781 276.156 811.578 274.711 811.578 273.023V256.641H818.328V273.07C818.328 273.82 818.414 274.453 818.586 274.969C818.773 275.484 819.031 275.906 819.359 276.234C819.688 276.562 820.07 276.797 820.508 276.938C820.961 277.078 821.461 277.148 822.008 277.148C823.398 277.148 824.492 276.867 825.289 276.305C826.102 275.742 826.672 274.977 827 274.008C827.344 273.023 827.516 271.93 827.516 270.727ZM850.344 282.469C848.375 282.469 846.609 282.156 845.047 281.531C843.484 280.891 842.156 280.008 841.062 278.883C839.984 277.758 839.156 276.453 838.578 274.969C838 273.469 837.711 271.875 837.711 270.188V269.25C837.711 267.328 837.984 265.57 838.531 263.977C839.078 262.383 839.859 261 840.875 259.828C841.906 258.656 843.156 257.758 844.625 257.133C846.094 256.492 847.75 256.172 849.594 256.172C851.391 256.172 852.984 256.469 854.375 257.062C855.766 257.656 856.93 258.5 857.867 259.594C858.82 260.688 859.539 262 860.023 263.531C860.508 265.047 860.75 266.734 860.75 268.594V271.406H840.594V266.906H854.117V266.391C854.117 265.453 853.945 264.617 853.602 263.883C853.273 263.133 852.773 262.539 852.102 262.102C851.43 261.664 850.57 261.445 849.523 261.445C848.633 261.445 847.867 261.641 847.227 262.031C846.586 262.422 846.062 262.969 845.656 263.672C845.266 264.375 844.969 265.203 844.766 266.156C844.578 267.094 844.484 268.125 844.484 269.25V270.188C844.484 271.203 844.625 272.141 844.906 273C845.203 273.859 845.617 274.602 846.148 275.227C846.695 275.852 847.352 276.336 848.117 276.68C848.898 277.023 849.781 277.195 850.766 277.195C851.984 277.195 853.117 276.961 854.164 276.492C855.227 276.008 856.141 275.281 856.906 274.312L860.188 277.875C859.656 278.641 858.93 279.375 858.008 280.078C857.102 280.781 856.008 281.359 854.727 281.812C853.445 282.25 851.984 282.469 850.344 282.469ZM878.305 274.992C878.305 274.508 878.164 274.07 877.883 273.68C877.602 273.289 877.078 272.93 876.312 272.602C875.562 272.258 874.477 271.945 873.055 271.664C871.773 271.383 870.578 271.031 869.469 270.609C868.375 270.172 867.422 269.648 866.609 269.039C865.812 268.43 865.188 267.711 864.734 266.883C864.281 266.039 864.055 265.078 864.055 264C864.055 262.938 864.281 261.938 864.734 261C865.203 260.062 865.867 259.234 866.727 258.516C867.602 257.781 868.664 257.211 869.914 256.805C871.18 256.383 872.602 256.172 874.18 256.172C876.383 256.172 878.273 256.523 879.852 257.227C881.445 257.93 882.664 258.898 883.508 260.133C884.367 261.352 884.797 262.742 884.797 264.305H878.047C878.047 263.648 877.906 263.062 877.625 262.547C877.359 262.016 876.938 261.602 876.359 261.305C875.797 260.992 875.062 260.836 874.156 260.836C873.406 260.836 872.758 260.969 872.211 261.234C871.664 261.484 871.242 261.828 870.945 262.266C870.664 262.688 870.523 263.156 870.523 263.672C870.523 264.062 870.602 264.414 870.758 264.727C870.93 265.023 871.203 265.297 871.578 265.547C871.953 265.797 872.438 266.031 873.031 266.25C873.641 266.453 874.391 266.641 875.281 266.812C877.109 267.188 878.742 267.68 880.18 268.289C881.617 268.883 882.758 269.695 883.602 270.727C884.445 271.742 884.867 273.078 884.867 274.734C884.867 275.859 884.617 276.891 884.117 277.828C883.617 278.766 882.898 279.586 881.961 280.289C881.023 280.977 879.898 281.516 878.586 281.906C877.289 282.281 875.828 282.469 874.203 282.469C871.844 282.469 869.844 282.047 868.203 281.203C866.578 280.359 865.344 279.289 864.5 277.992C863.672 276.68 863.258 275.336 863.258 273.961H869.656C869.688 274.883 869.922 275.625 870.359 276.188C870.812 276.75 871.383 277.156 872.07 277.406C872.773 277.656 873.531 277.781 874.344 277.781C875.219 277.781 875.945 277.664 876.523 277.43C877.102 277.18 877.539 276.852 877.836 276.445C878.148 276.023 878.305 275.539 878.305 274.992ZM901.672 256.641V261.422H886.906V256.641H901.672ZM890.562 250.383H897.312V274.359C897.312 275.094 897.406 275.656 897.594 276.047C897.797 276.438 898.094 276.711 898.484 276.867C898.875 277.008 899.367 277.078 899.961 277.078C900.383 277.078 900.758 277.062 901.086 277.031C901.43 276.984 901.719 276.938 901.953 276.891L901.977 281.859C901.398 282.047 900.773 282.195 900.102 282.305C899.43 282.414 898.688 282.469 897.875 282.469C896.391 282.469 895.094 282.227 893.984 281.742C892.891 281.242 892.047 280.445 891.453 279.352C890.859 278.258 890.562 276.82 890.562 275.039V250.383ZM932.445 276.469V246H939.242V282H933.125L932.445 276.469ZM916.414 269.625V269.133C916.414 267.195 916.633 265.438 917.07 263.859C917.508 262.266 918.148 260.898 918.992 259.758C919.836 258.617 920.875 257.734 922.109 257.109C923.344 256.484 924.75 256.172 926.328 256.172C927.812 256.172 929.109 256.484 930.219 257.109C931.344 257.734 932.297 258.625 933.078 259.781C933.875 260.922 934.516 262.273 935 263.836C935.484 265.383 935.836 267.078 936.055 268.922V270C935.836 271.766 935.484 273.406 935 274.922C934.516 276.438 933.875 277.766 933.078 278.906C932.297 280.031 931.344 280.906 930.219 281.531C929.094 282.156 927.781 282.469 926.281 282.469C924.703 282.469 923.297 282.148 922.062 281.508C920.844 280.867 919.812 279.969 918.969 278.812C918.141 277.656 917.508 276.297 917.07 274.734C916.633 273.172 916.414 271.469 916.414 269.625ZM923.164 269.133V269.625C923.164 270.672 923.242 271.648 923.398 272.555C923.57 273.461 923.844 274.266 924.219 274.969C924.609 275.656 925.109 276.195 925.719 276.586C926.344 276.961 927.102 277.148 927.992 277.148C929.148 277.148 930.102 276.891 930.852 276.375C931.602 275.844 932.172 275.117 932.562 274.195C932.969 273.273 933.203 272.211 933.266 271.008V267.938C933.219 266.953 933.078 266.07 932.844 265.289C932.625 264.492 932.297 263.812 931.859 263.25C931.438 262.688 930.906 262.25 930.266 261.938C929.641 261.625 928.898 261.469 928.039 261.469C927.164 261.469 926.414 261.672 925.789 262.078C925.164 262.469 924.656 263.008 924.266 263.695C923.891 264.383 923.609 265.195 923.422 266.133C923.25 267.055 923.164 268.055 923.164 269.133ZM951.641 256.641V282H944.867V256.641H951.641ZM944.445 250.031C944.445 249.047 944.789 248.234 945.477 247.594C946.164 246.953 947.086 246.633 948.242 246.633C949.383 246.633 950.297 246.953 950.984 247.594C951.688 248.234 952.039 249.047 952.039 250.031C952.039 251.016 951.688 251.828 950.984 252.469C950.297 253.109 949.383 253.43 948.242 253.43C947.086 253.43 946.164 253.109 945.477 252.469C944.789 251.828 944.445 251.016 944.445 250.031ZM605.094 320.164V333.688C604.562 334.328 603.742 335.023 602.633 335.773C601.523 336.508 600.094 337.141 598.344 337.672C596.594 338.203 594.477 338.469 591.992 338.469C589.789 338.469 587.781 338.109 585.969 337.391C584.156 336.656 582.594 335.586 581.281 334.18C579.984 332.773 578.984 331.055 578.281 329.023C577.578 326.977 577.227 324.641 577.227 322.016V319.883C577.227 317.258 577.562 314.922 578.234 312.875C578.922 310.828 579.898 309.102 581.164 307.695C582.43 306.289 583.938 305.219 585.688 304.484C587.438 303.75 589.383 303.383 591.523 303.383C594.492 303.383 596.93 303.867 598.836 304.836C600.742 305.789 602.195 307.117 603.195 308.82C604.211 310.508 604.836 312.445 605.07 314.633H598.25C598.078 313.477 597.75 312.469 597.266 311.609C596.781 310.75 596.086 310.078 595.18 309.594C594.289 309.109 593.133 308.867 591.711 308.867C590.539 308.867 589.492 309.109 588.57 309.594C587.664 310.062 586.898 310.758 586.273 311.68C585.648 312.602 585.172 313.742 584.844 315.102C584.516 316.461 584.352 318.039 584.352 319.836V322.016C584.352 323.797 584.523 325.375 584.867 326.75C585.211 328.109 585.719 329.258 586.391 330.195C587.078 331.117 587.922 331.812 588.922 332.281C589.922 332.75 591.086 332.984 592.414 332.984C593.523 332.984 594.445 332.891 595.18 332.703C595.93 332.516 596.531 332.289 596.984 332.023C597.453 331.742 597.812 331.477 598.062 331.227V325.18H591.641V320.164H605.094ZM617.469 312.641V338H610.695V312.641H617.469ZM610.273 306.031C610.273 305.047 610.617 304.234 611.305 303.594C611.992 302.953 612.914 302.633 614.07 302.633C615.211 302.633 616.125 302.953 616.812 303.594C617.516 304.234 617.867 305.047 617.867 306.031C617.867 307.016 617.516 307.828 616.812 308.469C616.125 309.109 615.211 309.43 614.07 309.43C612.914 309.43 611.992 309.109 611.305 308.469C610.617 307.828 610.273 307.016 610.273 306.031ZM635.469 312.641V317.422H620.703V312.641H635.469ZM624.359 306.383H631.109V330.359C631.109 331.094 631.203 331.656 631.391 332.047C631.594 332.438 631.891 332.711 632.281 332.867C632.672 333.008 633.164 333.078 633.758 333.078C634.18 333.078 634.555 333.062 634.883 333.031C635.227 332.984 635.516 332.938 635.75 332.891L635.773 337.859C635.195 338.047 634.57 338.195 633.898 338.305C633.227 338.414 632.484 338.469 631.672 338.469C630.188 338.469 628.891 338.227 627.781 337.742C626.688 337.242 625.844 336.445 625.25 335.352C624.656 334.258 624.359 332.82 624.359 331.039V306.383ZM661.672 332.516V338H644.492V332.516H661.672ZM646.766 303.875V338H639.734V303.875H646.766ZM678.969 332.281V320.984C678.969 320.172 678.836 319.477 678.57 318.898C678.305 318.305 677.891 317.844 677.328 317.516C676.781 317.188 676.07 317.023 675.195 317.023C674.445 317.023 673.797 317.156 673.25 317.422C672.703 317.672 672.281 318.039 671.984 318.523C671.688 318.992 671.539 319.547 671.539 320.188H664.789C664.789 319.109 665.039 318.086 665.539 317.117C666.039 316.148 666.766 315.297 667.719 314.562C668.672 313.812 669.805 313.227 671.117 312.805C672.445 312.383 673.93 312.172 675.57 312.172C677.539 312.172 679.289 312.5 680.82 313.156C682.352 313.812 683.555 314.797 684.43 316.109C685.32 317.422 685.766 319.062 685.766 321.031V331.883C685.766 333.273 685.852 334.414 686.023 335.305C686.195 336.18 686.445 336.945 686.773 337.602V338H679.953C679.625 337.312 679.375 336.453 679.203 335.422C679.047 334.375 678.969 333.328 678.969 332.281ZM679.859 322.555L679.906 326.375H676.133C675.242 326.375 674.469 326.477 673.812 326.68C673.156 326.883 672.617 327.172 672.195 327.547C671.773 327.906 671.461 328.328 671.258 328.812C671.07 329.297 670.977 329.828 670.977 330.406C670.977 330.984 671.109 331.508 671.375 331.977C671.641 332.43 672.023 332.789 672.523 333.055C673.023 333.305 673.609 333.43 674.281 333.43C675.297 333.43 676.18 333.227 676.93 332.82C677.68 332.414 678.258 331.914 678.664 331.32C679.086 330.727 679.305 330.164 679.32 329.633L681.102 332.492C680.852 333.133 680.508 333.797 680.07 334.484C679.648 335.172 679.109 335.82 678.453 336.43C677.797 337.023 677.008 337.516 676.086 337.906C675.164 338.281 674.07 338.469 672.805 338.469C671.195 338.469 669.734 338.148 668.422 337.508C667.125 336.852 666.094 335.953 665.328 334.812C664.578 333.656 664.203 332.344 664.203 330.875C664.203 329.547 664.453 328.367 664.953 327.336C665.453 326.305 666.188 325.438 667.156 324.734C668.141 324.016 669.367 323.477 670.836 323.117C672.305 322.742 674.008 322.555 675.945 322.555H679.859ZM690.969 302H697.719V332.188L697.039 338H690.969V302ZM713.773 325.062V325.555C713.773 327.445 713.57 329.18 713.164 330.758C712.773 332.336 712.164 333.703 711.336 334.859C710.508 336 709.477 336.891 708.242 337.531C707.023 338.156 705.586 338.469 703.93 338.469C702.383 338.469 701.039 338.156 699.898 337.531C698.773 336.906 697.828 336.023 697.062 334.883C696.297 333.742 695.68 332.406 695.211 330.875C694.742 329.344 694.391 327.672 694.156 325.859V324.781C694.391 322.969 694.742 321.297 695.211 319.766C695.68 318.234 696.297 316.898 697.062 315.758C697.828 314.617 698.773 313.734 699.898 313.109C701.023 312.484 702.352 312.172 703.883 312.172C705.555 312.172 707.008 312.492 708.242 313.133C709.492 313.758 710.523 314.648 711.336 315.805C712.164 316.945 712.773 318.305 713.164 319.883C713.57 321.445 713.773 323.172 713.773 325.062ZM707.023 325.555V325.062C707.023 324.031 706.945 323.062 706.789 322.156C706.648 321.234 706.398 320.43 706.039 319.742C705.68 319.039 705.188 318.484 704.562 318.078C703.953 317.672 703.164 317.469 702.195 317.469C701.273 317.469 700.492 317.625 699.852 317.938C699.211 318.25 698.68 318.688 698.258 319.25C697.852 319.812 697.547 320.484 697.344 321.266C697.141 322.031 697.016 322.875 696.969 323.797V326.867C697.016 328.102 697.219 329.195 697.578 330.148C697.953 331.086 698.516 331.828 699.266 332.375C700.031 332.906 701.023 333.172 702.242 333.172C703.195 333.172 703.984 332.984 704.609 332.609C705.234 332.234 705.719 331.703 706.062 331.016C706.422 330.328 706.672 329.523 706.812 328.602C706.953 327.664 707.023 326.648 707.023 325.555Z" fill="#FB6D27"/>
</g>
<path d="M179.672 323.562V336.594C179.188 337.234 178.43 337.938 177.398 338.703C176.383 339.453 175.031 340.102 173.344 340.648C171.656 341.195 169.555 341.469 167.039 341.469C164.898 341.469 162.938 341.109 161.156 340.391C159.375 339.656 157.836 338.586 156.539 337.18C155.258 335.773 154.266 334.062 153.562 332.047C152.859 330.016 152.508 327.703 152.508 325.109V322.742C152.508 320.164 152.828 317.867 153.469 315.852C154.125 313.82 155.062 312.102 156.281 310.695C157.5 309.289 158.969 308.227 160.688 307.508C162.422 306.773 164.383 306.406 166.57 306.406C169.367 306.406 171.68 306.875 173.508 307.812C175.352 308.734 176.773 310.016 177.773 311.656C178.773 313.297 179.406 315.172 179.672 317.281H173.906C173.719 316.094 173.352 315.031 172.805 314.094C172.273 313.156 171.508 312.422 170.508 311.891C169.523 311.344 168.242 311.07 166.664 311.07C165.305 311.07 164.109 311.328 163.078 311.844C162.047 312.359 161.188 313.117 160.5 314.117C159.828 315.117 159.32 316.336 158.977 317.773C158.633 319.211 158.461 320.852 158.461 322.695V325.109C158.461 326.984 158.656 328.648 159.047 330.102C159.453 331.555 160.031 332.781 160.781 333.781C161.547 334.781 162.477 335.539 163.57 336.055C164.664 336.555 165.898 336.805 167.273 336.805C168.617 336.805 169.719 336.695 170.578 336.477C171.438 336.242 172.117 335.969 172.617 335.656C173.133 335.328 173.531 335.016 173.812 334.719V327.945H166.711V323.562H179.672ZM191.672 315.641V341H186V315.641H191.672ZM185.625 308.984C185.625 308.125 185.906 307.414 186.469 306.852C187.047 306.273 187.844 305.984 188.859 305.984C189.859 305.984 190.648 306.273 191.227 306.852C191.805 307.414 192.094 308.125 192.094 308.984C192.094 309.828 191.805 310.531 191.227 311.094C190.648 311.656 189.859 311.938 188.859 311.938C187.844 311.938 187.047 311.656 186.469 311.094C185.906 310.531 185.625 309.828 185.625 308.984ZM209.484 315.641V319.766H195.188V315.641H209.484ZM199.312 309.43H204.961V333.992C204.961 334.773 205.07 335.375 205.289 335.797C205.523 336.203 205.844 336.477 206.25 336.617C206.656 336.758 207.133 336.828 207.68 336.828C208.07 336.828 208.445 336.805 208.805 336.758C209.164 336.711 209.453 336.664 209.672 336.617L209.695 340.93C209.227 341.07 208.68 341.195 208.055 341.305C207.445 341.414 206.742 341.469 205.945 341.469C204.648 341.469 203.5 341.242 202.5 340.789C201.5 340.32 200.719 339.562 200.156 338.516C199.594 337.469 199.312 336.078 199.312 334.344V309.43ZM235.781 336.336V341H218.648V336.336H235.781ZM220.289 306.875V341H214.406V306.875H220.289ZM254.062 335.914V323.82C254.062 322.914 253.898 322.133 253.57 321.477C253.242 320.82 252.742 320.312 252.07 319.953C251.414 319.594 250.586 319.414 249.586 319.414C248.664 319.414 247.867 319.57 247.195 319.883C246.523 320.195 246 320.617 245.625 321.148C245.25 321.68 245.062 322.281 245.062 322.953H239.438C239.438 321.953 239.68 320.984 240.164 320.047C240.648 319.109 241.352 318.273 242.273 317.539C243.195 316.805 244.297 316.227 245.578 315.805C246.859 315.383 248.297 315.172 249.891 315.172C251.797 315.172 253.484 315.492 254.953 316.133C256.438 316.773 257.602 317.742 258.445 319.039C259.305 320.32 259.734 321.93 259.734 323.867V335.141C259.734 336.297 259.812 337.336 259.969 338.258C260.141 339.164 260.383 339.953 260.695 340.625V341H254.906C254.641 340.391 254.43 339.617 254.273 338.68C254.133 337.727 254.062 336.805 254.062 335.914ZM254.883 325.578L254.93 329.07H250.875C249.828 329.07 248.906 329.172 248.109 329.375C247.312 329.562 246.648 329.844 246.117 330.219C245.586 330.594 245.188 331.047 244.922 331.578C244.656 332.109 244.523 332.711 244.523 333.383C244.523 334.055 244.68 334.672 244.992 335.234C245.305 335.781 245.758 336.211 246.352 336.523C246.961 336.836 247.695 336.992 248.555 336.992C249.711 336.992 250.719 336.758 251.578 336.289C252.453 335.805 253.141 335.219 253.641 334.531C254.141 333.828 254.406 333.164 254.438 332.539L256.266 335.047C256.078 335.688 255.758 336.375 255.305 337.109C254.852 337.844 254.258 338.547 253.523 339.219C252.805 339.875 251.938 340.414 250.922 340.836C249.922 341.258 248.766 341.469 247.453 341.469C245.797 341.469 244.32 341.141 243.023 340.484C241.727 339.812 240.711 338.914 239.977 337.789C239.242 336.648 238.875 335.359 238.875 333.922C238.875 332.578 239.125 331.391 239.625 330.359C240.141 329.312 240.891 328.438 241.875 327.734C242.875 327.031 244.094 326.5 245.531 326.141C246.969 325.766 248.609 325.578 250.453 325.578H254.883ZM265.664 305H271.312V335.586L270.773 341H265.664V305ZM287.859 328.086V328.578C287.859 330.453 287.648 332.18 287.227 333.758C286.82 335.32 286.195 336.68 285.352 337.836C284.523 338.992 283.492 339.891 282.258 340.531C281.039 341.156 279.625 341.469 278.016 341.469C276.438 341.469 275.062 341.172 273.891 340.578C272.719 339.984 271.734 339.141 270.938 338.047C270.156 336.953 269.523 335.648 269.039 334.133C268.555 332.617 268.211 330.945 268.008 329.117V327.547C268.211 325.703 268.555 324.031 269.039 322.531C269.523 321.016 270.156 319.711 270.938 318.617C271.734 317.508 272.711 316.656 273.867 316.062C275.039 315.469 276.406 315.172 277.969 315.172C279.594 315.172 281.023 315.484 282.258 316.109C283.508 316.734 284.547 317.625 285.375 318.781C286.203 319.922 286.82 321.281 287.227 322.859C287.648 324.438 287.859 326.18 287.859 328.086ZM282.211 328.578V328.086C282.211 326.945 282.117 325.875 281.93 324.875C281.742 323.859 281.43 322.969 280.992 322.203C280.57 321.438 279.992 320.836 279.258 320.398C278.539 319.945 277.641 319.719 276.562 319.719C275.562 319.719 274.703 319.891 273.984 320.234C273.266 320.578 272.664 321.047 272.18 321.641C271.695 322.234 271.312 322.922 271.031 323.703C270.766 324.484 270.586 325.328 270.492 326.234V330.477C270.633 331.648 270.93 332.727 271.383 333.711C271.852 334.68 272.508 335.461 273.352 336.055C274.195 336.633 275.281 336.922 276.609 336.922C277.656 336.922 278.539 336.711 279.258 336.289C279.977 335.867 280.547 335.281 280.969 334.531C281.406 333.766 281.719 332.875 281.906 331.859C282.109 330.844 282.211 329.75 282.211 328.578Z" fill="white"/>
</g>
<defs>
<filter id="filter0_d_8_2" x="572.016" y="190" width="385.023" height="158.469" filterUnits="userSpaceOnUse" color-interpolation-filters="sRGB">
<feFlood flood-opacity="0" result="BackgroundImageFix"/>
<feColorMatrix in="SourceAlpha" type="matrix" values="0 0 0 0 0 0 0 0 0 0 0 0 0 0 0 0 0 0 127 0" result="hardAlpha"/>
<feOffset dy="5"/>
<feGaussianBlur stdDeviation="2.5"/>
<feComposite in2="hardAlpha" operator="out"/>
<feColorMatrix type="matrix" values="0 0 0 0 0 0 0 0 0 0 0 0 0 0 0 0 0 0 0.25 0"/>
<feBlend mode="normal" in2="BackgroundImageFix" result="effect1_dropShadow_8_2"/>
<feBlend mode="normal" in="SourceGraphic" in2="effect1_dropShadow_8_2" result="shape"/>
</filter>
<linearGradient id="paint0_linear_8_2" x1="-6.00512e-06" y1="10.5" x2="1000" y2="500" gradientUnits="userSpaceOnUse">
<stop stop-color="#E14329"/>
<stop offset="1" stop-color="#FB6D27"/>
</linearGradient>
<clipPath id="clip0_8_2">
<rect width="1000" height="500" fill="white"/>
</clipPath>
</defs>
</svg>
