<svg width="1000" height="500" viewBox="0 0 1000 500" fill="none" xmlns="http://www.w3.org/2000/svg">
<g clip-path="url(#clip0_3_26)">
<rect width="1000" height="500" fill="url(#paint0_linear_3_26)"/>
<path d="M312.996 204L303.16 173.5C303.108 173.219 303.028 172.945 302.922 172.68L283.195 111.375C282.678 109.799 281.675 108.427 280.329 107.458C278.984 106.488 277.366 105.969 275.707 105.977C274.053 105.972 272.44 106.498 271.108 107.478C269.775 108.459 268.793 109.841 268.305 111.422L249.5 169.84H190.125L171.305 111.418C170.819 109.843 169.842 108.464 168.516 107.484C167.191 106.504 165.586 105.975 163.938 105.973H163.895C162.232 105.978 160.613 106.511 159.271 107.493C157.929 108.476 156.933 109.858 156.426 111.441L136.68 172.801C136.68 172.855 136.637 172.902 136.617 172.957L126.605 204.004C125.868 206.278 125.865 208.726 126.597 211.002C127.329 213.278 128.759 215.266 130.684 216.684L217.184 280.125C217.943 280.681 218.861 280.978 219.801 280.973C220.742 280.968 221.657 280.661 222.41 280.098L308.926 216.684C310.851 215.265 312.28 213.276 313.011 211C313.742 208.723 313.736 206.274 312.996 204ZM183.699 178.801L207.812 253.707L149.934 178.801M231.824 253.723L254.945 181.91L255.941 178.785H289.738L237.371 246.516M275.781 117.168L292.723 169.836H258.809M246.625 178.766L229.828 230.945L219.805 262.023L193.023 178.766M163.855 117.168L180.832 169.836H146.953M135.891 209.461C135.482 209.159 135.178 208.737 135.023 208.253C134.868 207.769 134.87 207.249 135.027 206.766L142.449 183.719L196.984 254.262M303.727 209.461L242.625 254.242L242.828 253.973L297.148 183.703L304.57 206.75C304.73 207.233 304.733 207.755 304.579 208.24C304.426 208.725 304.123 209.15 303.715 209.453" fill="#F7F7F7"/>
<rect x="365.682" y="-23.5099" width="418" height="818.138" transform="rotate(-28.3711 365.682 -23.5099)" fill="#F7F7F7"/>
<g filter="url(#filter0_d_3_26)">
<path d="M607.828 213.68H614.836C614.695 215.977 614.062 218.016 612.938 219.797C611.828 221.578 610.273 222.969 608.273 223.969C606.289 224.969 603.898 225.469 601.102 225.469C598.914 225.469 596.953 225.094 595.219 224.344C593.484 223.578 592 222.484 590.766 221.062C589.547 219.641 588.617 217.922 587.977 215.906C587.336 213.891 587.016 211.633 587.016 209.133V206.766C587.016 204.266 587.344 202.008 588 199.992C588.672 197.961 589.625 196.234 590.859 194.812C592.109 193.391 593.602 192.297 595.336 191.531C597.07 190.766 599.008 190.383 601.148 190.383C603.992 190.383 606.391 190.898 608.344 191.93C610.312 192.961 611.836 194.383 612.914 196.195C614.008 198.008 614.664 200.07 614.883 202.383H607.852C607.773 201.008 607.5 199.844 607.031 198.891C606.562 197.922 605.852 197.195 604.898 196.711C603.961 196.211 602.711 195.961 601.148 195.961C599.977 195.961 598.953 196.18 598.078 196.617C597.203 197.055 596.469 197.719 595.875 198.609C595.281 199.5 594.836 200.625 594.539 201.984C594.258 203.328 594.117 204.906 594.117 206.719V209.133C594.117 210.898 594.25 212.453 594.516 213.797C594.781 215.125 595.188 216.25 595.734 217.172C596.297 218.078 597.016 218.766 597.891 219.234C598.781 219.688 599.852 219.914 601.102 219.914C602.57 219.914 603.781 219.68 604.734 219.211C605.688 218.742 606.414 218.047 606.914 217.125C607.43 216.203 607.734 215.055 607.828 213.68ZM632.719 219.281V207.984C632.719 207.172 632.586 206.477 632.32 205.898C632.055 205.305 631.641 204.844 631.078 204.516C630.531 204.188 629.82 204.023 628.945 204.023C628.195 204.023 627.547 204.156 627 204.422C626.453 204.672 626.031 205.039 625.734 205.523C625.438 205.992 625.289 206.547 625.289 207.188H618.539C618.539 206.109 618.789 205.086 619.289 204.117C619.789 203.148 620.516 202.297 621.469 201.562C622.422 200.812 623.555 200.227 624.867 199.805C626.195 199.383 627.68 199.172 629.32 199.172C631.289 199.172 633.039 199.5 634.57 200.156C636.102 200.812 637.305 201.797 638.18 203.109C639.07 204.422 639.516 206.062 639.516 208.031V218.883C639.516 220.273 639.602 221.414 639.773 222.305C639.945 223.18 640.195 223.945 640.523 224.602V225H633.703C633.375 224.312 633.125 223.453 632.953 222.422C632.797 221.375 632.719 220.328 632.719 219.281ZM633.609 209.555L633.656 213.375H629.883C628.992 213.375 628.219 213.477 627.562 213.68C626.906 213.883 626.367 214.172 625.945 214.547C625.523 214.906 625.211 215.328 625.008 215.812C624.82 216.297 624.727 216.828 624.727 217.406C624.727 217.984 624.859 218.508 625.125 218.977C625.391 219.43 625.773 219.789 626.273 220.055C626.773 220.305 627.359 220.43 628.031 220.43C629.047 220.43 629.93 220.227 630.68 219.82C631.43 219.414 632.008 218.914 632.414 218.32C632.836 217.727 633.055 217.164 633.07 216.633L634.852 219.492C634.602 220.133 634.258 220.797 633.82 221.484C633.398 222.172 632.859 222.82 632.203 223.43C631.547 224.023 630.758 224.516 629.836 224.906C628.914 225.281 627.82 225.469 626.555 225.469C624.945 225.469 623.484 225.148 622.172 224.508C620.875 223.852 619.844 222.953 619.078 221.812C618.328 220.656 617.953 219.344 617.953 217.875C617.953 216.547 618.203 215.367 618.703 214.336C619.203 213.305 619.938 212.438 620.906 211.734C621.891 211.016 623.117 210.477 624.586 210.117C626.055 209.742 627.758 209.555 629.695 209.555H633.609ZM651.469 205.172V225H644.719V199.641H651.07L651.469 205.172ZM659.109 199.477L658.992 205.734C658.664 205.688 658.266 205.648 657.797 205.617C657.344 205.57 656.93 205.547 656.555 205.547C655.602 205.547 654.773 205.672 654.07 205.922C653.383 206.156 652.805 206.508 652.336 206.977C651.883 207.445 651.539 208.016 651.305 208.688C651.086 209.359 650.961 210.125 650.93 210.984L649.57 210.562C649.57 208.922 649.734 207.414 650.062 206.039C650.391 204.648 650.867 203.438 651.492 202.406C652.133 201.375 652.914 200.578 653.836 200.016C654.758 199.453 655.812 199.172 657 199.172C657.375 199.172 657.758 199.203 658.148 199.266C658.539 199.312 658.859 199.383 659.109 199.477ZM675.188 219.281V207.984C675.188 207.172 675.055 206.477 674.789 205.898C674.523 205.305 674.109 204.844 673.547 204.516C673 204.188 672.289 204.023 671.414 204.023C670.664 204.023 670.016 204.156 669.469 204.422C668.922 204.672 668.5 205.039 668.203 205.523C667.906 205.992 667.758 206.547 667.758 207.188H661.008C661.008 206.109 661.258 205.086 661.758 204.117C662.258 203.148 662.984 202.297 663.938 201.562C664.891 200.812 666.023 200.227 667.336 199.805C668.664 199.383 670.148 199.172 671.789 199.172C673.758 199.172 675.508 199.5 677.039 200.156C678.57 200.812 679.773 201.797 680.648 203.109C681.539 204.422 681.984 206.062 681.984 208.031V218.883C681.984 220.273 682.07 221.414 682.242 222.305C682.414 223.18 682.664 223.945 682.992 224.602V225H676.172C675.844 224.312 675.594 223.453 675.422 222.422C675.266 221.375 675.188 220.328 675.188 219.281ZM676.078 209.555L676.125 213.375H672.352C671.461 213.375 670.688 213.477 670.031 213.68C669.375 213.883 668.836 214.172 668.414 214.547C667.992 214.906 667.68 215.328 667.477 215.812C667.289 216.297 667.195 216.828 667.195 217.406C667.195 217.984 667.328 218.508 667.594 218.977C667.859 219.43 668.242 219.789 668.742 220.055C669.242 220.305 669.828 220.43 670.5 220.43C671.516 220.43 672.398 220.227 673.148 219.82C673.898 219.414 674.477 218.914 674.883 218.32C675.305 217.727 675.523 217.164 675.539 216.633L677.32 219.492C677.07 220.133 676.727 220.797 676.289 221.484C675.867 222.172 675.328 222.82 674.672 223.43C674.016 224.023 673.227 224.516 672.305 224.906C671.383 225.281 670.289 225.469 669.023 225.469C667.414 225.469 665.953 225.148 664.641 224.508C663.344 223.852 662.312 222.953 661.547 221.812C660.797 220.656 660.422 219.344 660.422 217.875C660.422 216.547 660.672 215.367 661.172 214.336C661.672 213.305 662.406 212.438 663.375 211.734C664.359 211.016 665.586 210.477 667.055 210.117C668.523 209.742 670.227 209.555 672.164 209.555H676.078ZM712.852 212.836H704.156V207.352H712.852C714.195 207.352 715.289 207.133 716.133 206.695C716.977 206.242 717.594 205.617 717.984 204.82C718.375 204.023 718.57 203.125 718.57 202.125C718.57 201.109 718.375 200.164 717.984 199.289C717.594 198.414 716.977 197.711 716.133 197.18C715.289 196.648 714.195 196.383 712.852 196.383H706.594V225H699.562V190.875H712.852C715.523 190.875 717.812 191.359 719.719 192.328C721.641 193.281 723.109 194.602 724.125 196.289C725.141 197.977 725.648 199.906 725.648 202.078C725.648 204.281 725.141 206.188 724.125 207.797C723.109 209.406 721.641 210.648 719.719 211.523C717.812 212.398 715.523 212.836 712.852 212.836ZM745.078 218.93V199.641H751.828V225H745.477L745.078 218.93ZM745.828 213.727L747.82 213.68C747.82 215.367 747.625 216.938 747.234 218.391C746.844 219.828 746.258 221.078 745.477 222.141C744.695 223.188 743.711 224.008 742.523 224.602C741.336 225.18 739.938 225.469 738.328 225.469C737.094 225.469 735.953 225.297 734.906 224.953C733.875 224.594 732.984 224.039 732.234 223.289C731.5 222.523 730.922 221.547 730.5 220.359C730.094 219.156 729.891 217.711 729.891 216.023V199.641H736.641V216.07C736.641 216.82 736.727 217.453 736.898 217.969C737.086 218.484 737.344 218.906 737.672 219.234C738 219.562 738.383 219.797 738.82 219.938C739.273 220.078 739.773 220.148 740.32 220.148C741.711 220.148 742.805 219.867 743.602 219.305C744.414 218.742 744.984 217.977 745.312 217.008C745.656 216.023 745.828 214.93 745.828 213.727ZM770.695 217.992C770.695 217.508 770.555 217.07 770.273 216.68C769.992 216.289 769.469 215.93 768.703 215.602C767.953 215.258 766.867 214.945 765.445 214.664C764.164 214.383 762.969 214.031 761.859 213.609C760.766 213.172 759.812 212.648 759 212.039C758.203 211.43 757.578 210.711 757.125 209.883C756.672 209.039 756.445 208.078 756.445 207C756.445 205.938 756.672 204.938 757.125 204C757.594 203.062 758.258 202.234 759.117 201.516C759.992 200.781 761.055 200.211 762.305 199.805C763.57 199.383 764.992 199.172 766.57 199.172C768.773 199.172 770.664 199.523 772.242 200.227C773.836 200.93 775.055 201.898 775.898 203.133C776.758 204.352 777.188 205.742 777.188 207.305H770.438C770.438 206.648 770.297 206.062 770.016 205.547C769.75 205.016 769.328 204.602 768.75 204.305C768.188 203.992 767.453 203.836 766.547 203.836C765.797 203.836 765.148 203.969 764.602 204.234C764.055 204.484 763.633 204.828 763.336 205.266C763.055 205.688 762.914 206.156 762.914 206.672C762.914 207.062 762.992 207.414 763.148 207.727C763.32 208.023 763.594 208.297 763.969 208.547C764.344 208.797 764.828 209.031 765.422 209.25C766.031 209.453 766.781 209.641 767.672 209.812C769.5 210.188 771.133 210.68 772.57 211.289C774.008 211.883 775.148 212.695 775.992 213.727C776.836 214.742 777.258 216.078 777.258 217.734C777.258 218.859 777.008 219.891 776.508 220.828C776.008 221.766 775.289 222.586 774.352 223.289C773.414 223.977 772.289 224.516 770.977 224.906C769.68 225.281 768.219 225.469 766.594 225.469C764.234 225.469 762.234 225.047 760.594 224.203C758.969 223.359 757.734 222.289 756.891 220.992C756.062 219.68 755.648 218.336 755.648 216.961H762.047C762.078 217.883 762.312 218.625 762.75 219.188C763.203 219.75 763.773 220.156 764.461 220.406C765.164 220.656 765.922 220.781 766.734 220.781C767.609 220.781 768.336 220.664 768.914 220.43C769.492 220.18 769.93 219.852 770.227 219.445C770.539 219.023 770.695 218.539 770.695 217.992ZM788.227 189V225H781.477V189H788.227ZM787.266 211.43H785.414C785.43 209.664 785.664 208.039 786.117 206.555C786.57 205.055 787.219 203.758 788.062 202.664C788.906 201.555 789.914 200.695 791.086 200.086C792.273 199.477 793.586 199.172 795.023 199.172C796.273 199.172 797.406 199.352 798.422 199.711C799.453 200.055 800.336 200.617 801.07 201.398C801.82 202.164 802.398 203.172 802.805 204.422C803.211 205.672 803.414 207.188 803.414 208.969V225H796.617V208.922C796.617 207.797 796.453 206.914 796.125 206.273C795.812 205.617 795.352 205.156 794.742 204.891C794.148 204.609 793.414 204.469 792.539 204.469C791.57 204.469 790.742 204.648 790.055 205.008C789.383 205.367 788.844 205.867 788.438 206.508C788.031 207.133 787.734 207.867 787.547 208.711C787.359 209.555 787.266 210.461 787.266 211.43ZM835.477 219.469V189H842.273V225H836.156L835.477 219.469ZM819.445 212.625V212.133C819.445 210.195 819.664 208.438 820.102 206.859C820.539 205.266 821.18 203.898 822.023 202.758C822.867 201.617 823.906 200.734 825.141 200.109C826.375 199.484 827.781 199.172 829.359 199.172C830.844 199.172 832.141 199.484 833.25 200.109C834.375 200.734 835.328 201.625 836.109 202.781C836.906 203.922 837.547 205.273 838.031 206.836C838.516 208.383 838.867 210.078 839.086 211.922V213C838.867 214.766 838.516 216.406 838.031 217.922C837.547 219.438 836.906 220.766 836.109 221.906C835.328 223.031 834.375 223.906 833.25 224.531C832.125 225.156 830.812 225.469 829.312 225.469C827.734 225.469 826.328 225.148 825.094 224.508C823.875 223.867 822.844 222.969 822 221.812C821.172 220.656 820.539 219.297 820.102 217.734C819.664 216.172 819.445 214.469 819.445 212.625ZM826.195 212.133V212.625C826.195 213.672 826.273 214.648 826.43 215.555C826.602 216.461 826.875 217.266 827.25 217.969C827.641 218.656 828.141 219.195 828.75 219.586C829.375 219.961 830.133 220.148 831.023 220.148C832.18 220.148 833.133 219.891 833.883 219.375C834.633 218.844 835.203 218.117 835.594 217.195C836 216.273 836.234 215.211 836.297 214.008V210.938C836.25 209.953 836.109 209.07 835.875 208.289C835.656 207.492 835.328 206.812 834.891 206.25C834.469 205.688 833.938 205.25 833.297 204.938C832.672 204.625 831.93 204.469 831.07 204.469C830.195 204.469 829.445 204.672 828.82 205.078C828.195 205.469 827.688 206.008 827.297 206.695C826.922 207.383 826.641 208.195 826.453 209.133C826.281 210.055 826.195 211.055 826.195 212.133ZM854.672 199.641V225H847.898V199.641H854.672ZM847.477 193.031C847.477 192.047 847.82 191.234 848.508 190.594C849.195 189.953 850.117 189.633 851.273 189.633C852.414 189.633 853.328 189.953 854.016 190.594C854.719 191.234 855.07 192.047 855.07 193.031C855.07 194.016 854.719 194.828 854.016 195.469C853.328 196.109 852.414 196.43 851.273 196.43C850.117 196.43 849.195 196.109 848.508 195.469C847.82 194.828 847.477 194.016 847.477 193.031ZM615.094 263.164V276.688C614.562 277.328 613.742 278.023 612.633 278.773C611.523 279.508 610.094 280.141 608.344 280.672C606.594 281.203 604.477 281.469 601.992 281.469C599.789 281.469 597.781 281.109 595.969 280.391C594.156 279.656 592.594 278.586 591.281 277.18C589.984 275.773 588.984 274.055 588.281 272.023C587.578 269.977 587.227 267.641 587.227 265.016V262.883C587.227 260.258 587.562 257.922 588.234 255.875C588.922 253.828 589.898 252.102 591.164 250.695C592.43 249.289 593.938 248.219 595.688 247.484C597.438 246.75 599.383 246.383 601.523 246.383C604.492 246.383 606.93 246.867 608.836 247.836C610.742 248.789 612.195 250.117 613.195 251.82C614.211 253.508 614.836 255.445 615.07 257.633H608.25C608.078 256.477 607.75 255.469 607.266 254.609C606.781 253.75 606.086 253.078 605.18 252.594C604.289 252.109 603.133 251.867 601.711 251.867C600.539 251.867 599.492 252.109 598.57 252.594C597.664 253.062 596.898 253.758 596.273 254.68C595.648 255.602 595.172 256.742 594.844 258.102C594.516 259.461 594.352 261.039 594.352 262.836V265.016C594.352 266.797 594.523 268.375 594.867 269.75C595.211 271.109 595.719 272.258 596.391 273.195C597.078 274.117 597.922 274.812 598.922 275.281C599.922 275.75 601.086 275.984 602.414 275.984C603.523 275.984 604.445 275.891 605.18 275.703C605.93 275.516 606.531 275.289 606.984 275.023C607.453 274.742 607.812 274.477 608.062 274.227V268.18H601.641V263.164H615.094ZM627.469 255.641V281H620.695V255.641H627.469ZM620.273 249.031C620.273 248.047 620.617 247.234 621.305 246.594C621.992 245.953 622.914 245.633 624.07 245.633C625.211 245.633 626.125 245.953 626.812 246.594C627.516 247.234 627.867 248.047 627.867 249.031C627.867 250.016 627.516 250.828 626.812 251.469C626.125 252.109 625.211 252.43 624.07 252.43C622.914 252.43 621.992 252.109 621.305 251.469C620.617 250.828 620.273 250.016 620.273 249.031ZM645.469 255.641V260.422H630.703V255.641H645.469ZM634.359 249.383H641.109V273.359C641.109 274.094 641.203 274.656 641.391 275.047C641.594 275.438 641.891 275.711 642.281 275.867C642.672 276.008 643.164 276.078 643.758 276.078C644.18 276.078 644.555 276.062 644.883 276.031C645.227 275.984 645.516 275.938 645.75 275.891L645.773 280.859C645.195 281.047 644.57 281.195 643.898 281.305C643.227 281.414 642.484 281.469 641.672 281.469C640.188 281.469 638.891 281.227 637.781 280.742C636.688 280.242 635.844 279.445 635.25 278.352C634.656 277.258 634.359 275.82 634.359 274.039V249.383ZM671.672 275.516V281H654.492V275.516H671.672ZM656.766 246.875V281H649.734V246.875H656.766ZM688.969 275.281V263.984C688.969 263.172 688.836 262.477 688.57 261.898C688.305 261.305 687.891 260.844 687.328 260.516C686.781 260.188 686.07 260.023 685.195 260.023C684.445 260.023 683.797 260.156 683.25 260.422C682.703 260.672 682.281 261.039 681.984 261.523C681.688 261.992 681.539 262.547 681.539 263.188H674.789C674.789 262.109 675.039 261.086 675.539 260.117C676.039 259.148 676.766 258.297 677.719 257.562C678.672 256.812 679.805 256.227 681.117 255.805C682.445 255.383 683.93 255.172 685.57 255.172C687.539 255.172 689.289 255.5 690.82 256.156C692.352 256.812 693.555 257.797 694.43 259.109C695.32 260.422 695.766 262.062 695.766 264.031V274.883C695.766 276.273 695.852 277.414 696.023 278.305C696.195 279.18 696.445 279.945 696.773 280.602V281H689.953C689.625 280.312 689.375 279.453 689.203 278.422C689.047 277.375 688.969 276.328 688.969 275.281ZM689.859 265.555L689.906 269.375H686.133C685.242 269.375 684.469 269.477 683.812 269.68C683.156 269.883 682.617 270.172 682.195 270.547C681.773 270.906 681.461 271.328 681.258 271.812C681.07 272.297 680.977 272.828 680.977 273.406C680.977 273.984 681.109 274.508 681.375 274.977C681.641 275.43 682.023 275.789 682.523 276.055C683.023 276.305 683.609 276.43 684.281 276.43C685.297 276.43 686.18 276.227 686.93 275.82C687.68 275.414 688.258 274.914 688.664 274.32C689.086 273.727 689.305 273.164 689.32 272.633L691.102 275.492C690.852 276.133 690.508 276.797 690.07 277.484C689.648 278.172 689.109 278.82 688.453 279.43C687.797 280.023 687.008 280.516 686.086 280.906C685.164 281.281 684.07 281.469 682.805 281.469C681.195 281.469 679.734 281.148 678.422 280.508C677.125 279.852 676.094 278.953 675.328 277.812C674.578 276.656 674.203 275.344 674.203 273.875C674.203 272.547 674.453 271.367 674.953 270.336C675.453 269.305 676.188 268.438 677.156 267.734C678.141 267.016 679.367 266.477 680.836 266.117C682.305 265.742 684.008 265.555 685.945 265.555H689.859ZM700.969 245H707.719V275.188L707.039 281H700.969V245ZM723.773 268.062V268.555C723.773 270.445 723.57 272.18 723.164 273.758C722.773 275.336 722.164 276.703 721.336 277.859C720.508 279 719.477 279.891 718.242 280.531C717.023 281.156 715.586 281.469 713.93 281.469C712.383 281.469 711.039 281.156 709.898 280.531C708.773 279.906 707.828 279.023 707.062 277.883C706.297 276.742 705.68 275.406 705.211 273.875C704.742 272.344 704.391 270.672 704.156 268.859V267.781C704.391 265.969 704.742 264.297 705.211 262.766C705.68 261.234 706.297 259.898 707.062 258.758C707.828 257.617 708.773 256.734 709.898 256.109C711.023 255.484 712.352 255.172 713.883 255.172C715.555 255.172 717.008 255.492 718.242 256.133C719.492 256.758 720.523 257.648 721.336 258.805C722.164 259.945 722.773 261.305 723.164 262.883C723.57 264.445 723.773 266.172 723.773 268.062ZM717.023 268.555V268.062C717.023 267.031 716.945 266.062 716.789 265.156C716.648 264.234 716.398 263.43 716.039 262.742C715.68 262.039 715.188 261.484 714.562 261.078C713.953 260.672 713.164 260.469 712.195 260.469C711.273 260.469 710.492 260.625 709.852 260.938C709.211 261.25 708.68 261.688 708.258 262.25C707.852 262.812 707.547 263.484 707.344 264.266C707.141 265.031 707.016 265.875 706.969 266.797V269.867C707.016 271.102 707.219 272.195 707.578 273.148C707.953 274.086 708.516 274.828 709.266 275.375C710.031 275.906 711.023 276.172 712.242 276.172C713.195 276.172 713.984 275.984 714.609 275.609C715.234 275.234 715.719 274.703 716.062 274.016C716.422 273.328 716.672 272.523 716.812 271.602C716.953 270.664 717.023 269.648 717.023 268.555Z" fill="#FB6D27"/>
</g>
<path d="M179.672 323.562V336.594C179.188 337.234 178.43 337.938 177.398 338.703C176.383 339.453 175.031 340.102 173.344 340.648C171.656 341.195 169.555 341.469 167.039 341.469C164.898 341.469 162.938 341.109 161.156 340.391C159.375 339.656 157.836 338.586 156.539 337.18C155.258 335.773 154.266 334.062 153.562 332.047C152.859 330.016 152.508 327.703 152.508 325.109V322.742C152.508 320.164 152.828 317.867 153.469 315.852C154.125 313.82 155.062 312.102 156.281 310.695C157.5 309.289 158.969 308.227 160.688 307.508C162.422 306.773 164.383 306.406 166.57 306.406C169.367 306.406 171.68 306.875 173.508 307.812C175.352 308.734 176.773 310.016 177.773 311.656C178.773 313.297 179.406 315.172 179.672 317.281H173.906C173.719 316.094 173.352 315.031 172.805 314.094C172.273 313.156 171.508 312.422 170.508 311.891C169.523 311.344 168.242 311.07 166.664 311.07C165.305 311.07 164.109 311.328 163.078 311.844C162.047 312.359 161.188 313.117 160.5 314.117C159.828 315.117 159.32 316.336 158.977 317.773C158.633 319.211 158.461 320.852 158.461 322.695V325.109C158.461 326.984 158.656 328.648 159.047 330.102C159.453 331.555 160.031 332.781 160.781 333.781C161.547 334.781 162.477 335.539 163.57 336.055C164.664 336.555 165.898 336.805 167.273 336.805C168.617 336.805 169.719 336.695 170.578 336.477C171.438 336.242 172.117 335.969 172.617 335.656C173.133 335.328 173.531 335.016 173.812 334.719V327.945H166.711V323.562H179.672ZM191.672 315.641V341H186V315.641H191.672ZM185.625 308.984C185.625 308.125 185.906 307.414 186.469 306.852C187.047 306.273 187.844 305.984 188.859 305.984C189.859 305.984 190.648 306.273 191.227 306.852C191.805 307.414 192.094 308.125 192.094 308.984C192.094 309.828 191.805 310.531 191.227 311.094C190.648 311.656 189.859 311.938 188.859 311.938C187.844 311.938 187.047 311.656 186.469 311.094C185.906 310.531 185.625 309.828 185.625 308.984ZM209.484 315.641V319.766H195.188V315.641H209.484ZM199.312 309.43H204.961V333.992C204.961 334.773 205.07 335.375 205.289 335.797C205.523 336.203 205.844 336.477 206.25 336.617C206.656 336.758 207.133 336.828 207.68 336.828C208.07 336.828 208.445 336.805 208.805 336.758C209.164 336.711 209.453 336.664 209.672 336.617L209.695 340.93C209.227 341.07 208.68 341.195 208.055 341.305C207.445 341.414 206.742 341.469 205.945 341.469C204.648 341.469 203.5 341.242 202.5 340.789C201.5 340.32 200.719 339.562 200.156 338.516C199.594 337.469 199.312 336.078 199.312 334.344V309.43ZM235.781 336.336V341H218.648V336.336H235.781ZM220.289 306.875V341H214.406V306.875H220.289ZM254.062 335.914V323.82C254.062 322.914 253.898 322.133 253.57 321.477C253.242 320.82 252.742 320.312 252.07 319.953C251.414 319.594 250.586 319.414 249.586 319.414C248.664 319.414 247.867 319.57 247.195 319.883C246.523 320.195 246 320.617 245.625 321.148C245.25 321.68 245.062 322.281 245.062 322.953H239.438C239.438 321.953 239.68 320.984 240.164 320.047C240.648 319.109 241.352 318.273 242.273 317.539C243.195 316.805 244.297 316.227 245.578 315.805C246.859 315.383 248.297 315.172 249.891 315.172C251.797 315.172 253.484 315.492 254.953 316.133C256.438 316.773 257.602 317.742 258.445 319.039C259.305 320.32 259.734 321.93 259.734 323.867V335.141C259.734 336.297 259.812 337.336 259.969 338.258C260.141 339.164 260.383 339.953 260.695 340.625V341H254.906C254.641 340.391 254.43 339.617 254.273 338.68C254.133 337.727 254.062 336.805 254.062 335.914ZM254.883 325.578L254.93 329.07H250.875C249.828 329.07 248.906 329.172 248.109 329.375C247.312 329.562 246.648 329.844 246.117 330.219C245.586 330.594 245.188 331.047 244.922 331.578C244.656 332.109 244.523 332.711 244.523 333.383C244.523 334.055 244.68 334.672 244.992 335.234C245.305 335.781 245.758 336.211 246.352 336.523C246.961 336.836 247.695 336.992 248.555 336.992C249.711 336.992 250.719 336.758 251.578 336.289C252.453 335.805 253.141 335.219 253.641 334.531C254.141 333.828 254.406 333.164 254.438 332.539L256.266 335.047C256.078 335.688 255.758 336.375 255.305 337.109C254.852 337.844 254.258 338.547 253.523 339.219C252.805 339.875 251.938 340.414 250.922 340.836C249.922 341.258 248.766 341.469 247.453 341.469C245.797 341.469 244.32 341.141 243.023 340.484C241.727 339.812 240.711 338.914 239.977 337.789C239.242 336.648 238.875 335.359 238.875 333.922C238.875 332.578 239.125 331.391 239.625 330.359C240.141 329.312 240.891 328.438 241.875 327.734C242.875 327.031 244.094 326.5 245.531 326.141C246.969 325.766 248.609 325.578 250.453 325.578H254.883ZM265.664 305H271.312V335.586L270.773 341H265.664V305ZM287.859 328.086V328.578C287.859 330.453 287.648 332.18 287.227 333.758C286.82 335.32 286.195 336.68 285.352 337.836C284.523 338.992 283.492 339.891 282.258 340.531C281.039 341.156 279.625 341.469 278.016 341.469C276.438 341.469 275.062 341.172 273.891 340.578C272.719 339.984 271.734 339.141 270.938 338.047C270.156 336.953 269.523 335.648 269.039 334.133C268.555 332.617 268.211 330.945 268.008 329.117V327.547C268.211 325.703 268.555 324.031 269.039 322.531C269.523 321.016 270.156 319.711 270.938 318.617C271.734 317.508 272.711 316.656 273.867 316.062C275.039 315.469 276.406 315.172 277.969 315.172C279.594 315.172 281.023 315.484 282.258 316.109C283.508 316.734 284.547 317.625 285.375 318.781C286.203 319.922 286.82 321.281 287.227 322.859C287.648 324.438 287.859 326.18 287.859 328.086ZM282.211 328.578V328.086C282.211 326.945 282.117 325.875 281.93 324.875C281.742 323.859 281.43 322.969 280.992 322.203C280.57 321.438 279.992 320.836 279.258 320.398C278.539 319.945 277.641 319.719 276.562 319.719C275.562 319.719 274.703 319.891 273.984 320.234C273.266 320.578 272.664 321.047 272.18 321.641C271.695 322.234 271.312 322.922 271.031 323.703C270.766 324.484 270.586 325.328 270.492 326.234V330.477C270.633 331.648 270.93 332.727 271.383 333.711C271.852 334.68 272.508 335.461 273.352 336.055C274.195 336.633 275.281 336.922 276.609 336.922C277.656 336.922 278.539 336.711 279.258 336.289C279.977 335.867 280.547 335.281 280.969 334.531C281.406 333.766 281.719 332.875 281.906 331.859C282.109 330.844 282.211 329.75 282.211 328.578Z" fill="white"/>
</g>
<defs>
<filter id="filter0_d_3_26" x="582.016" y="189" width="278.055" height="102.469" filterUnits="userSpaceOnUse" color-interpolation-filters="sRGB">
<feFlood flood-opacity="0" result="BackgroundImageFix"/>
<feColorMatrix in="SourceAlpha" type="matrix" values="0 0 0 0 0 0 0 0 0 0 0 0 0 0 0 0 0 0 127 0" result="hardAlpha"/>
<feOffset dy="5"/>
<feGaussianBlur stdDeviation="2.5"/>
<feComposite in2="hardAlpha" operator="out"/>
<feColorMatrix type="matrix" values="0 0 0 0 0 0 0 0 0 0 0 0 0 0 0 0 0 0 0.25 0"/>
<feBlend mode="normal" in2="BackgroundImageFix" result="effect1_dropShadow_3_26"/>
<feBlend mode="normal" in="SourceGraphic" in2="effect1_dropShadow_3_26" result="shape"/>
</filter>
<linearGradient id="paint0_linear_3_26" x1="-6.00512e-06" y1="10.5" x2="1000" y2="500" gradientUnits="userSpaceOnUse">
<stop stop-color="#E14329"/>
<stop offset="1" stop-color="#FB6D27"/>
</linearGradient>
<clipPath id="clip0_3_26">
<rect width="1000" height="500" fill="white"/>
</clipPath>
</defs>
</svg>
