<svg width="1000" height="500" viewBox="0 0 1000 500" fill="none" xmlns="http://www.w3.org/2000/svg">
<g clip-path="url(#clip0_1_2)">
<rect width="1000" height="500" fill="url(#paint0_linear_1_2)"/>
<path d="M312.996 204L303.16 173.5C303.108 173.219 303.028 172.945 302.922 172.68L283.195 111.375C282.678 109.799 281.675 108.427 280.329 107.458C278.984 106.488 277.366 105.969 275.707 105.977C274.053 105.972 272.44 106.498 271.108 107.478C269.775 108.459 268.793 109.841 268.305 111.422L249.5 169.84H190.125L171.305 111.418C170.819 109.843 169.842 108.464 168.516 107.484C167.191 106.504 165.586 105.975 163.938 105.973H163.895C162.232 105.978 160.613 106.511 159.271 107.493C157.929 108.476 156.933 109.858 156.426 111.441L136.68 172.801C136.68 172.855 136.637 172.902 136.617 172.957L126.605 204.004C125.868 206.278 125.865 208.726 126.597 211.002C127.329 213.278 128.759 215.266 130.684 216.684L217.184 280.125C217.943 280.681 218.861 280.978 219.801 280.973C220.742 280.968 221.657 280.661 222.41 280.098L308.926 216.684C310.851 215.265 312.28 213.276 313.011 211C313.742 208.723 313.736 206.274 312.996 204ZM183.699 178.801L207.812 253.707L149.934 178.801M231.824 253.723L254.945 181.91L255.941 178.785H289.738L237.371 246.516M275.781 117.168L292.723 169.836H258.809M246.625 178.766L229.828 230.945L219.805 262.023L193.023 178.766M163.855 117.168L180.832 169.836H146.953M135.891 209.461C135.482 209.159 135.178 208.737 135.023 208.253C134.868 207.769 134.87 207.249 135.027 206.766L142.449 183.719L196.984 254.262M303.727 209.461L242.625 254.242L242.828 253.973L297.148 183.703L304.57 206.75C304.73 207.233 304.733 207.755 304.579 208.24C304.426 208.725 304.123 209.15 303.715 209.453" fill="#F7F7F7"/>
<rect x="365.682" y="-23.51" width="418" height="818.138" transform="rotate(-28.3711 365.682 -23.51)" fill="#F7F7F7"/>
<g filter="url(#filter0_d_1_2)">
<path d="M609.828 226.68H616.836C616.695 228.977 616.062 231.016 614.938 232.797C613.828 234.578 612.273 235.969 610.273 236.969C608.289 237.969 605.898 238.469 603.102 238.469C600.914 238.469 598.953 238.094 597.219 237.344C595.484 236.578 594 235.484 592.766 234.062C591.547 232.641 590.617 230.922 589.977 228.906C589.336 226.891 589.016 224.633 589.016 222.133V219.766C589.016 217.266 589.344 215.008 590 212.992C590.672 210.961 591.625 209.234 592.859 207.812C594.109 206.391 595.602 205.297 597.336 204.531C599.07 203.766 601.008 203.383 603.148 203.383C605.992 203.383 608.391 203.898 610.344 204.93C612.312 205.961 613.836 207.383 614.914 209.195C616.008 211.008 616.664 213.07 616.883 215.383H609.852C609.773 214.008 609.5 212.844 609.031 211.891C608.562 210.922 607.852 210.195 606.898 209.711C605.961 209.211 604.711 208.961 603.148 208.961C601.977 208.961 600.953 209.18 600.078 209.617C599.203 210.055 598.469 210.719 597.875 211.609C597.281 212.5 596.836 213.625 596.539 214.984C596.258 216.328 596.117 217.906 596.117 219.719V222.133C596.117 223.898 596.25 225.453 596.516 226.797C596.781 228.125 597.188 229.25 597.734 230.172C598.297 231.078 599.016 231.766 599.891 232.234C600.781 232.688 601.852 232.914 603.102 232.914C604.57 232.914 605.781 232.68 606.734 232.211C607.688 231.742 608.414 231.047 608.914 230.125C609.43 229.203 609.734 228.055 609.828 226.68ZM634.719 232.281V220.984C634.719 220.172 634.586 219.477 634.32 218.898C634.055 218.305 633.641 217.844 633.078 217.516C632.531 217.188 631.82 217.023 630.945 217.023C630.195 217.023 629.547 217.156 629 217.422C628.453 217.672 628.031 218.039 627.734 218.523C627.438 218.992 627.289 219.547 627.289 220.188H620.539C620.539 219.109 620.789 218.086 621.289 217.117C621.789 216.148 622.516 215.297 623.469 214.562C624.422 213.812 625.555 213.227 626.867 212.805C628.195 212.383 629.68 212.172 631.32 212.172C633.289 212.172 635.039 212.5 636.57 213.156C638.102 213.812 639.305 214.797 640.18 216.109C641.07 217.422 641.516 219.062 641.516 221.031V231.883C641.516 233.273 641.602 234.414 641.773 235.305C641.945 236.18 642.195 236.945 642.523 237.602V238H635.703C635.375 237.312 635.125 236.453 634.953 235.422C634.797 234.375 634.719 233.328 634.719 232.281ZM635.609 222.555L635.656 226.375H631.883C630.992 226.375 630.219 226.477 629.562 226.68C628.906 226.883 628.367 227.172 627.945 227.547C627.523 227.906 627.211 228.328 627.008 228.812C626.82 229.297 626.727 229.828 626.727 230.406C626.727 230.984 626.859 231.508 627.125 231.977C627.391 232.43 627.773 232.789 628.273 233.055C628.773 233.305 629.359 233.43 630.031 233.43C631.047 233.43 631.93 233.227 632.68 232.82C633.43 232.414 634.008 231.914 634.414 231.32C634.836 230.727 635.055 230.164 635.07 229.633L636.852 232.492C636.602 233.133 636.258 233.797 635.82 234.484C635.398 235.172 634.859 235.82 634.203 236.43C633.547 237.023 632.758 237.516 631.836 237.906C630.914 238.281 629.82 238.469 628.555 238.469C626.945 238.469 625.484 238.148 624.172 237.508C622.875 236.852 621.844 235.953 621.078 234.812C620.328 233.656 619.953 232.344 619.953 230.875C619.953 229.547 620.203 228.367 620.703 227.336C621.203 226.305 621.938 225.438 622.906 224.734C623.891 224.016 625.117 223.477 626.586 223.117C628.055 222.742 629.758 222.555 631.695 222.555H635.609ZM653.469 218.172V238H646.719V212.641H653.07L653.469 218.172ZM661.109 212.477L660.992 218.734C660.664 218.688 660.266 218.648 659.797 218.617C659.344 218.57 658.93 218.547 658.555 218.547C657.602 218.547 656.773 218.672 656.07 218.922C655.383 219.156 654.805 219.508 654.336 219.977C653.883 220.445 653.539 221.016 653.305 221.688C653.086 222.359 652.961 223.125 652.93 223.984L651.57 223.562C651.57 221.922 651.734 220.414 652.062 219.039C652.391 217.648 652.867 216.438 653.492 215.406C654.133 214.375 654.914 213.578 655.836 213.016C656.758 212.453 657.812 212.172 659 212.172C659.375 212.172 659.758 212.203 660.148 212.266C660.539 212.312 660.859 212.383 661.109 212.477ZM677.188 232.281V220.984C677.188 220.172 677.055 219.477 676.789 218.898C676.523 218.305 676.109 217.844 675.547 217.516C675 217.188 674.289 217.023 673.414 217.023C672.664 217.023 672.016 217.156 671.469 217.422C670.922 217.672 670.5 218.039 670.203 218.523C669.906 218.992 669.758 219.547 669.758 220.188H663.008C663.008 219.109 663.258 218.086 663.758 217.117C664.258 216.148 664.984 215.297 665.938 214.562C666.891 213.812 668.023 213.227 669.336 212.805C670.664 212.383 672.148 212.172 673.789 212.172C675.758 212.172 677.508 212.5 679.039 213.156C680.57 213.812 681.773 214.797 682.648 216.109C683.539 217.422 683.984 219.062 683.984 221.031V231.883C683.984 233.273 684.07 234.414 684.242 235.305C684.414 236.18 684.664 236.945 684.992 237.602V238H678.172C677.844 237.312 677.594 236.453 677.422 235.422C677.266 234.375 677.188 233.328 677.188 232.281ZM678.078 222.555L678.125 226.375H674.352C673.461 226.375 672.688 226.477 672.031 226.68C671.375 226.883 670.836 227.172 670.414 227.547C669.992 227.906 669.68 228.328 669.477 228.812C669.289 229.297 669.195 229.828 669.195 230.406C669.195 230.984 669.328 231.508 669.594 231.977C669.859 232.43 670.242 232.789 670.742 233.055C671.242 233.305 671.828 233.43 672.5 233.43C673.516 233.43 674.398 233.227 675.148 232.82C675.898 232.414 676.477 231.914 676.883 231.32C677.305 230.727 677.523 230.164 677.539 229.633L679.32 232.492C679.07 233.133 678.727 233.797 678.289 234.484C677.867 235.172 677.328 235.82 676.672 236.43C676.016 237.023 675.227 237.516 674.305 237.906C673.383 238.281 672.289 238.469 671.023 238.469C669.414 238.469 667.953 238.148 666.641 237.508C665.344 236.852 664.312 235.953 663.547 234.812C662.797 233.656 662.422 232.344 662.422 230.875C662.422 229.547 662.672 228.367 663.172 227.336C663.672 226.305 664.406 225.438 665.375 224.734C666.359 224.016 667.586 223.477 669.055 223.117C670.523 222.742 672.227 222.555 674.164 222.555H678.078ZM704.773 203.875H710.727L719.492 228.93L728.258 203.875H734.211L721.883 238H717.102L704.773 203.875ZM701.562 203.875H707.492L708.57 228.297V238H701.562V203.875ZM731.492 203.875H737.445V238H730.414V228.297L731.492 203.875ZM754.859 238.469C752.891 238.469 751.125 238.156 749.562 237.531C748 236.891 746.672 236.008 745.578 234.883C744.5 233.758 743.672 232.453 743.094 230.969C742.516 229.469 742.227 227.875 742.227 226.188V225.25C742.227 223.328 742.5 221.57 743.047 219.977C743.594 218.383 744.375 217 745.391 215.828C746.422 214.656 747.672 213.758 749.141 213.133C750.609 212.492 752.266 212.172 754.109 212.172C755.906 212.172 757.5 212.469 758.891 213.062C760.281 213.656 761.445 214.5 762.383 215.594C763.336 216.688 764.055 218 764.539 219.531C765.023 221.047 765.266 222.734 765.266 224.594V227.406H745.109V222.906H758.633V222.391C758.633 221.453 758.461 220.617 758.117 219.883C757.789 219.133 757.289 218.539 756.617 218.102C755.945 217.664 755.086 217.445 754.039 217.445C753.148 217.445 752.383 217.641 751.742 218.031C751.102 218.422 750.578 218.969 750.172 219.672C749.781 220.375 749.484 221.203 749.281 222.156C749.094 223.094 749 224.125 749 225.25V226.188C749 227.203 749.141 228.141 749.422 229C749.719 229.859 750.133 230.602 750.664 231.227C751.211 231.852 751.867 232.336 752.633 232.68C753.414 233.023 754.297 233.195 755.281 233.195C756.5 233.195 757.633 232.961 758.68 232.492C759.742 232.008 760.656 231.281 761.422 230.312L764.703 233.875C764.172 234.641 763.445 235.375 762.523 236.078C761.617 236.781 760.523 237.359 759.242 237.812C757.961 238.25 756.5 238.469 754.859 238.469ZM775.719 218.055V238H768.969V212.641H775.297L775.719 218.055ZM774.734 224.43H772.906C772.906 222.555 773.148 220.867 773.633 219.367C774.117 217.852 774.797 216.562 775.672 215.5C776.547 214.422 777.586 213.602 778.789 213.039C780.008 212.461 781.367 212.172 782.867 212.172C784.055 212.172 785.141 212.344 786.125 212.688C787.109 213.031 787.953 213.578 788.656 214.328C789.375 215.078 789.922 216.07 790.297 217.305C790.688 218.539 790.883 220.047 790.883 221.828V238H784.086V221.805C784.086 220.68 783.93 219.805 783.617 219.18C783.305 218.555 782.844 218.117 782.234 217.867C781.641 217.602 780.906 217.469 780.031 217.469C779.125 217.469 778.336 217.648 777.664 218.008C777.008 218.367 776.461 218.867 776.023 219.508C775.602 220.133 775.281 220.867 775.062 221.711C774.844 222.555 774.734 223.461 774.734 224.43ZM810.992 232.469V202H817.789V238H811.672L810.992 232.469ZM794.961 225.625V225.133C794.961 223.195 795.18 221.438 795.617 219.859C796.055 218.266 796.695 216.898 797.539 215.758C798.383 214.617 799.422 213.734 800.656 213.109C801.891 212.484 803.297 212.172 804.875 212.172C806.359 212.172 807.656 212.484 808.766 213.109C809.891 213.734 810.844 214.625 811.625 215.781C812.422 216.922 813.062 218.273 813.547 219.836C814.031 221.383 814.383 223.078 814.602 224.922V226C814.383 227.766 814.031 229.406 813.547 230.922C813.062 232.438 812.422 233.766 811.625 234.906C810.844 236.031 809.891 236.906 808.766 237.531C807.641 238.156 806.328 238.469 804.828 238.469C803.25 238.469 801.844 238.148 800.609 237.508C799.391 236.867 798.359 235.969 797.516 234.812C796.688 233.656 796.055 232.297 795.617 230.734C795.18 229.172 794.961 227.469 794.961 225.625ZM801.711 225.133V225.625C801.711 226.672 801.789 227.648 801.945 228.555C802.117 229.461 802.391 230.266 802.766 230.969C803.156 231.656 803.656 232.195 804.266 232.586C804.891 232.961 805.648 233.148 806.539 233.148C807.695 233.148 808.648 232.891 809.398 232.375C810.148 231.844 810.719 231.117 811.109 230.195C811.516 229.273 811.75 228.211 811.812 227.008V223.938C811.766 222.953 811.625 222.07 811.391 221.289C811.172 220.492 810.844 219.812 810.406 219.25C809.984 218.688 809.453 218.25 808.812 217.938C808.188 217.625 807.445 217.469 806.586 217.469C805.711 217.469 804.961 217.672 804.336 218.078C803.711 218.469 803.203 219.008 802.812 219.695C802.438 220.383 802.156 221.195 801.969 222.133C801.797 223.055 801.711 224.055 801.711 225.133ZM836.75 232.281V220.984C836.75 220.172 836.617 219.477 836.352 218.898C836.086 218.305 835.672 217.844 835.109 217.516C834.562 217.188 833.852 217.023 832.977 217.023C832.227 217.023 831.578 217.156 831.031 217.422C830.484 217.672 830.062 218.039 829.766 218.523C829.469 218.992 829.32 219.547 829.32 220.188H822.57C822.57 219.109 822.82 218.086 823.32 217.117C823.82 216.148 824.547 215.297 825.5 214.562C826.453 213.812 827.586 213.227 828.898 212.805C830.227 212.383 831.711 212.172 833.352 212.172C835.32 212.172 837.07 212.5 838.602 213.156C840.133 213.812 841.336 214.797 842.211 216.109C843.102 217.422 843.547 219.062 843.547 221.031V231.883C843.547 233.273 843.633 234.414 843.805 235.305C843.977 236.18 844.227 236.945 844.555 237.602V238H837.734C837.406 237.312 837.156 236.453 836.984 235.422C836.828 234.375 836.75 233.328 836.75 232.281ZM837.641 222.555L837.688 226.375H833.914C833.023 226.375 832.25 226.477 831.594 226.68C830.938 226.883 830.398 227.172 829.977 227.547C829.555 227.906 829.242 228.328 829.039 228.812C828.852 229.297 828.758 229.828 828.758 230.406C828.758 230.984 828.891 231.508 829.156 231.977C829.422 232.43 829.805 232.789 830.305 233.055C830.805 233.305 831.391 233.43 832.062 233.43C833.078 233.43 833.961 233.227 834.711 232.82C835.461 232.414 836.039 231.914 836.445 231.32C836.867 230.727 837.086 230.164 837.102 229.633L838.883 232.492C838.633 233.133 838.289 233.797 837.852 234.484C837.43 235.172 836.891 235.82 836.234 236.43C835.578 237.023 834.789 237.516 833.867 237.906C832.945 238.281 831.852 238.469 830.586 238.469C828.977 238.469 827.516 238.148 826.203 237.508C824.906 236.852 823.875 235.953 823.109 234.812C822.359 233.656 821.984 232.344 821.984 230.875C821.984 229.547 822.234 228.367 822.734 227.336C823.234 226.305 823.969 225.438 824.938 224.734C825.922 224.016 827.148 223.477 828.617 223.117C830.086 222.742 831.789 222.555 833.727 222.555H837.641ZM857.352 238H850.555V210.391C850.555 208.469 850.93 206.852 851.68 205.539C852.445 204.211 853.516 203.211 854.891 202.539C856.281 201.852 857.93 201.508 859.836 201.508C860.461 201.508 861.062 201.555 861.641 201.648C862.219 201.727 862.781 201.828 863.328 201.953L863.258 207.039C862.961 206.961 862.648 206.906 862.32 206.875C861.992 206.844 861.609 206.828 861.172 206.828C860.359 206.828 859.664 206.969 859.086 207.25C858.523 207.516 858.094 207.914 857.797 208.445C857.5 208.977 857.352 209.625 857.352 210.391V238ZM862.414 212.641V217.422H846.781V212.641H862.414ZM878.375 212.641V217.422H863.609V212.641H878.375ZM867.266 206.383H874.016V230.359C874.016 231.094 874.109 231.656 874.297 232.047C874.5 232.438 874.797 232.711 875.188 232.867C875.578 233.008 876.07 233.078 876.664 233.078C877.086 233.078 877.461 233.062 877.789 233.031C878.133 232.984 878.422 232.938 878.656 232.891L878.68 237.859C878.102 238.047 877.477 238.195 876.805 238.305C876.133 238.414 875.391 238.469 874.578 238.469C873.094 238.469 871.797 238.227 870.688 237.742C869.594 237.242 868.75 236.445 868.156 235.352C867.562 234.258 867.266 232.82 867.266 231.039V206.383ZM895.906 232.281V220.984C895.906 220.172 895.773 219.477 895.508 218.898C895.242 218.305 894.828 217.844 894.266 217.516C893.719 217.188 893.008 217.023 892.133 217.023C891.383 217.023 890.734 217.156 890.188 217.422C889.641 217.672 889.219 218.039 888.922 218.523C888.625 218.992 888.477 219.547 888.477 220.188H881.727C881.727 219.109 881.977 218.086 882.477 217.117C882.977 216.148 883.703 215.297 884.656 214.562C885.609 213.812 886.742 213.227 888.055 212.805C889.383 212.383 890.867 212.172 892.508 212.172C894.477 212.172 896.227 212.5 897.758 213.156C899.289 213.812 900.492 214.797 901.367 216.109C902.258 217.422 902.703 219.062 902.703 221.031V231.883C902.703 233.273 902.789 234.414 902.961 235.305C903.133 236.18 903.383 236.945 903.711 237.602V238H896.891C896.562 237.312 896.312 236.453 896.141 235.422C895.984 234.375 895.906 233.328 895.906 232.281ZM896.797 222.555L896.844 226.375H893.07C892.18 226.375 891.406 226.477 890.75 226.68C890.094 226.883 889.555 227.172 889.133 227.547C888.711 227.906 888.398 228.328 888.195 228.812C888.008 229.297 887.914 229.828 887.914 230.406C887.914 230.984 888.047 231.508 888.312 231.977C888.578 232.43 888.961 232.789 889.461 233.055C889.961 233.305 890.547 233.43 891.219 233.43C892.234 233.43 893.117 233.227 893.867 232.82C894.617 232.414 895.195 231.914 895.602 231.32C896.023 230.727 896.242 230.164 896.258 229.633L898.039 232.492C897.789 233.133 897.445 233.797 897.008 234.484C896.586 235.172 896.047 235.82 895.391 236.43C894.734 237.023 893.945 237.516 893.023 237.906C892.102 238.281 891.008 238.469 889.742 238.469C888.133 238.469 886.672 238.148 885.359 237.508C884.062 236.852 883.031 235.953 882.266 234.812C881.516 233.656 881.141 232.344 881.141 230.875C881.141 229.547 881.391 228.367 881.891 227.336C882.391 226.305 883.125 225.438 884.094 224.734C885.078 224.016 886.305 223.477 887.773 223.117C889.242 222.742 890.945 222.555 892.883 222.555H896.797ZM914.656 218.172V238H907.906V212.641H914.258L914.656 218.172ZM922.297 212.477L922.18 218.734C921.852 218.688 921.453 218.648 920.984 218.617C920.531 218.57 920.117 218.547 919.742 218.547C918.789 218.547 917.961 218.672 917.258 218.922C916.57 219.156 915.992 219.508 915.523 219.977C915.07 220.445 914.727 221.016 914.492 221.688C914.273 222.359 914.148 223.125 914.117 223.984L912.758 223.562C912.758 221.922 912.922 220.414 913.25 219.039C913.578 217.648 914.055 216.438 914.68 215.406C915.32 214.375 916.102 213.578 917.023 213.016C917.945 212.453 919 212.172 920.188 212.172C920.562 212.172 920.945 212.203 921.336 212.266C921.727 212.312 922.047 212.383 922.297 212.477ZM604.602 288.469V258H611.398V294H605.281L604.602 288.469ZM588.57 281.625V281.133C588.57 279.195 588.789 277.438 589.227 275.859C589.664 274.266 590.305 272.898 591.148 271.758C591.992 270.617 593.031 269.734 594.266 269.109C595.5 268.484 596.906 268.172 598.484 268.172C599.969 268.172 601.266 268.484 602.375 269.109C603.5 269.734 604.453 270.625 605.234 271.781C606.031 272.922 606.672 274.273 607.156 275.836C607.641 277.383 607.992 279.078 608.211 280.922V282C607.992 283.766 607.641 285.406 607.156 286.922C606.672 288.438 606.031 289.766 605.234 290.906C604.453 292.031 603.5 292.906 602.375 293.531C601.25 294.156 599.938 294.469 598.438 294.469C596.859 294.469 595.453 294.148 594.219 293.508C593 292.867 591.969 291.969 591.125 290.812C590.297 289.656 589.664 288.297 589.227 286.734C588.789 285.172 588.57 283.469 588.57 281.625ZM595.32 281.133V281.625C595.32 282.672 595.398 283.648 595.555 284.555C595.727 285.461 596 286.266 596.375 286.969C596.766 287.656 597.266 288.195 597.875 288.586C598.5 288.961 599.258 289.148 600.148 289.148C601.305 289.148 602.258 288.891 603.008 288.375C603.758 287.844 604.328 287.117 604.719 286.195C605.125 285.273 605.359 284.211 605.422 283.008V279.938C605.375 278.953 605.234 278.07 605 277.289C604.781 276.492 604.453 275.812 604.016 275.25C603.594 274.688 603.062 274.25 602.422 273.938C601.797 273.625 601.055 273.469 600.195 273.469C599.32 273.469 598.57 273.672 597.945 274.078C597.32 274.469 596.812 275.008 596.422 275.695C596.047 276.383 595.766 277.195 595.578 278.133C595.406 279.055 595.32 280.055 595.32 281.133ZM623.797 268.641V294H617.023V268.641H623.797ZM616.602 262.031C616.602 261.047 616.945 260.234 617.633 259.594C618.32 258.953 619.242 258.633 620.398 258.633C621.539 258.633 622.453 258.953 623.141 259.594C623.844 260.234 624.195 261.047 624.195 262.031C624.195 263.016 623.844 263.828 623.141 264.469C622.453 265.109 621.539 265.43 620.398 265.43C619.242 265.43 618.32 265.109 617.633 264.469C616.945 263.828 616.602 263.016 616.602 262.031ZM668.797 276.164V289.688C668.266 290.328 667.445 291.023 666.336 291.773C665.227 292.508 663.797 293.141 662.047 293.672C660.297 294.203 658.18 294.469 655.695 294.469C653.492 294.469 651.484 294.109 649.672 293.391C647.859 292.656 646.297 291.586 644.984 290.18C643.688 288.773 642.688 287.055 641.984 285.023C641.281 282.977 640.93 280.641 640.93 278.016V275.883C640.93 273.258 641.266 270.922 641.938 268.875C642.625 266.828 643.602 265.102 644.867 263.695C646.133 262.289 647.641 261.219 649.391 260.484C651.141 259.75 653.086 259.383 655.227 259.383C658.195 259.383 660.633 259.867 662.539 260.836C664.445 261.789 665.898 263.117 666.898 264.82C667.914 266.508 668.539 268.445 668.773 270.633H661.953C661.781 269.477 661.453 268.469 660.969 267.609C660.484 266.75 659.789 266.078 658.883 265.594C657.992 265.109 656.836 264.867 655.414 264.867C654.242 264.867 653.195 265.109 652.273 265.594C651.367 266.062 650.602 266.758 649.977 267.68C649.352 268.602 648.875 269.742 648.547 271.102C648.219 272.461 648.055 274.039 648.055 275.836V278.016C648.055 279.797 648.227 281.375 648.57 282.75C648.914 284.109 649.422 285.258 650.094 286.195C650.781 287.117 651.625 287.812 652.625 288.281C653.625 288.75 654.789 288.984 656.117 288.984C657.227 288.984 658.148 288.891 658.883 288.703C659.633 288.516 660.234 288.289 660.688 288.023C661.156 287.742 661.516 287.477 661.766 287.227V281.18H655.344V276.164H668.797ZM681.172 268.641V294H674.398V268.641H681.172ZM673.977 262.031C673.977 261.047 674.32 260.234 675.008 259.594C675.695 258.953 676.617 258.633 677.773 258.633C678.914 258.633 679.828 258.953 680.516 259.594C681.219 260.234 681.57 261.047 681.57 262.031C681.57 263.016 681.219 263.828 680.516 264.469C679.828 265.109 678.914 265.43 677.773 265.43C676.617 265.43 675.695 265.109 675.008 264.469C674.32 263.828 673.977 263.016 673.977 262.031ZM699.172 268.641V273.422H684.406V268.641H699.172ZM688.062 262.383H694.812V286.359C694.812 287.094 694.906 287.656 695.094 288.047C695.297 288.438 695.594 288.711 695.984 288.867C696.375 289.008 696.867 289.078 697.461 289.078C697.883 289.078 698.258 289.062 698.586 289.031C698.93 288.984 699.219 288.938 699.453 288.891L699.477 293.859C698.898 294.047 698.273 294.195 697.602 294.305C696.93 294.414 696.188 294.469 695.375 294.469C693.891 294.469 692.594 294.227 691.484 293.742C690.391 293.242 689.547 292.445 688.953 291.352C688.359 290.258 688.062 288.82 688.062 287.039V262.383ZM725.375 288.516V294H708.195V288.516H725.375ZM710.469 259.875V294H703.438V259.875H710.469ZM742.672 288.281V276.984C742.672 276.172 742.539 275.477 742.273 274.898C742.008 274.305 741.594 273.844 741.031 273.516C740.484 273.188 739.773 273.023 738.898 273.023C738.148 273.023 737.5 273.156 736.953 273.422C736.406 273.672 735.984 274.039 735.688 274.523C735.391 274.992 735.242 275.547 735.242 276.188H728.492C728.492 275.109 728.742 274.086 729.242 273.117C729.742 272.148 730.469 271.297 731.422 270.562C732.375 269.812 733.508 269.227 734.82 268.805C736.148 268.383 737.633 268.172 739.273 268.172C741.242 268.172 742.992 268.5 744.523 269.156C746.055 269.812 747.258 270.797 748.133 272.109C749.023 273.422 749.469 275.062 749.469 277.031V287.883C749.469 289.273 749.555 290.414 749.727 291.305C749.898 292.18 750.148 292.945 750.477 293.602V294H743.656C743.328 293.312 743.078 292.453 742.906 291.422C742.75 290.375 742.672 289.328 742.672 288.281ZM743.562 278.555L743.609 282.375H739.836C738.945 282.375 738.172 282.477 737.516 282.68C736.859 282.883 736.32 283.172 735.898 283.547C735.477 283.906 735.164 284.328 734.961 284.812C734.773 285.297 734.68 285.828 734.68 286.406C734.68 286.984 734.812 287.508 735.078 287.977C735.344 288.43 735.727 288.789 736.227 289.055C736.727 289.305 737.312 289.43 737.984 289.43C739 289.43 739.883 289.227 740.633 288.82C741.383 288.414 741.961 287.914 742.367 287.32C742.789 286.727 743.008 286.164 743.023 285.633L744.805 288.492C744.555 289.133 744.211 289.797 743.773 290.484C743.352 291.172 742.812 291.82 742.156 292.43C741.5 293.023 740.711 293.516 739.789 293.906C738.867 294.281 737.773 294.469 736.508 294.469C734.898 294.469 733.438 294.148 732.125 293.508C730.828 292.852 729.797 291.953 729.031 290.812C728.281 289.656 727.906 288.344 727.906 286.875C727.906 285.547 728.156 284.367 728.656 283.336C729.156 282.305 729.891 281.438 730.859 280.734C731.844 280.016 733.07 279.477 734.539 279.117C736.008 278.742 737.711 278.555 739.648 278.555H743.562ZM754.672 258H761.422V288.188L760.742 294H754.672V258ZM777.477 281.062V281.555C777.477 283.445 777.273 285.18 776.867 286.758C776.477 288.336 775.867 289.703 775.039 290.859C774.211 292 773.18 292.891 771.945 293.531C770.727 294.156 769.289 294.469 767.633 294.469C766.086 294.469 764.742 294.156 763.602 293.531C762.477 292.906 761.531 292.023 760.766 290.883C760 289.742 759.383 288.406 758.914 286.875C758.445 285.344 758.094 283.672 757.859 281.859V280.781C758.094 278.969 758.445 277.297 758.914 275.766C759.383 274.234 760 272.898 760.766 271.758C761.531 270.617 762.477 269.734 763.602 269.109C764.727 268.484 766.055 268.172 767.586 268.172C769.258 268.172 770.711 268.492 771.945 269.133C773.195 269.758 774.227 270.648 775.039 271.805C775.867 272.945 776.477 274.305 776.867 275.883C777.273 277.445 777.477 279.172 777.477 281.062ZM770.727 281.555V281.062C770.727 280.031 770.648 279.062 770.492 278.156C770.352 277.234 770.102 276.43 769.742 275.742C769.383 275.039 768.891 274.484 768.266 274.078C767.656 273.672 766.867 273.469 765.898 273.469C764.977 273.469 764.195 273.625 763.555 273.938C762.914 274.25 762.383 274.688 761.961 275.25C761.555 275.812 761.25 276.484 761.047 277.266C760.844 278.031 760.719 278.875 760.672 279.797V282.867C760.719 284.102 760.922 285.195 761.281 286.148C761.656 287.086 762.219 287.828 762.969 288.375C763.734 288.906 764.727 289.172 765.945 289.172C766.898 289.172 767.688 288.984 768.312 288.609C768.938 288.234 769.422 287.703 769.766 287.016C770.125 286.328 770.375 285.523 770.516 284.602C770.656 283.664 770.727 282.648 770.727 281.555Z" fill="#FB6D27"/>
</g>
<path d="M179.672 323.562V336.594C179.188 337.234 178.43 337.938 177.398 338.703C176.383 339.453 175.031 340.102 173.344 340.648C171.656 341.195 169.555 341.469 167.039 341.469C164.898 341.469 162.938 341.109 161.156 340.391C159.375 339.656 157.836 338.586 156.539 337.18C155.258 335.773 154.266 334.062 153.562 332.047C152.859 330.016 152.508 327.703 152.508 325.109V322.742C152.508 320.164 152.828 317.867 153.469 315.852C154.125 313.82 155.062 312.102 156.281 310.695C157.5 309.289 158.969 308.227 160.688 307.508C162.422 306.773 164.383 306.406 166.57 306.406C169.367 306.406 171.68 306.875 173.508 307.812C175.352 308.734 176.773 310.016 177.773 311.656C178.773 313.297 179.406 315.172 179.672 317.281H173.906C173.719 316.094 173.352 315.031 172.805 314.094C172.273 313.156 171.508 312.422 170.508 311.891C169.523 311.344 168.242 311.07 166.664 311.07C165.305 311.07 164.109 311.328 163.078 311.844C162.047 312.359 161.188 313.117 160.5 314.117C159.828 315.117 159.32 316.336 158.977 317.773C158.633 319.211 158.461 320.852 158.461 322.695V325.109C158.461 326.984 158.656 328.648 159.047 330.102C159.453 331.555 160.031 332.781 160.781 333.781C161.547 334.781 162.477 335.539 163.57 336.055C164.664 336.555 165.898 336.805 167.273 336.805C168.617 336.805 169.719 336.695 170.578 336.477C171.438 336.242 172.117 335.969 172.617 335.656C173.133 335.328 173.531 335.016 173.812 334.719V327.945H166.711V323.562H179.672ZM191.672 315.641V341H186V315.641H191.672ZM185.625 308.984C185.625 308.125 185.906 307.414 186.469 306.852C187.047 306.273 187.844 305.984 188.859 305.984C189.859 305.984 190.648 306.273 191.227 306.852C191.805 307.414 192.094 308.125 192.094 308.984C192.094 309.828 191.805 310.531 191.227 311.094C190.648 311.656 189.859 311.938 188.859 311.938C187.844 311.938 187.047 311.656 186.469 311.094C185.906 310.531 185.625 309.828 185.625 308.984ZM209.484 315.641V319.766H195.188V315.641H209.484ZM199.312 309.43H204.961V333.992C204.961 334.773 205.07 335.375 205.289 335.797C205.523 336.203 205.844 336.477 206.25 336.617C206.656 336.758 207.133 336.828 207.68 336.828C208.07 336.828 208.445 336.805 208.805 336.758C209.164 336.711 209.453 336.664 209.672 336.617L209.695 340.93C209.227 341.07 208.68 341.195 208.055 341.305C207.445 341.414 206.742 341.469 205.945 341.469C204.648 341.469 203.5 341.242 202.5 340.789C201.5 340.32 200.719 339.562 200.156 338.516C199.594 337.469 199.312 336.078 199.312 334.344V309.43ZM235.781 336.336V341H218.648V336.336H235.781ZM220.289 306.875V341H214.406V306.875H220.289ZM254.062 335.914V323.82C254.062 322.914 253.898 322.133 253.57 321.477C253.242 320.82 252.742 320.312 252.07 319.953C251.414 319.594 250.586 319.414 249.586 319.414C248.664 319.414 247.867 319.57 247.195 319.883C246.523 320.195 246 320.617 245.625 321.148C245.25 321.68 245.062 322.281 245.062 322.953H239.438C239.438 321.953 239.68 320.984 240.164 320.047C240.648 319.109 241.352 318.273 242.273 317.539C243.195 316.805 244.297 316.227 245.578 315.805C246.859 315.383 248.297 315.172 249.891 315.172C251.797 315.172 253.484 315.492 254.953 316.133C256.438 316.773 257.602 317.742 258.445 319.039C259.305 320.32 259.734 321.93 259.734 323.867V335.141C259.734 336.297 259.812 337.336 259.969 338.258C260.141 339.164 260.383 339.953 260.695 340.625V341H254.906C254.641 340.391 254.43 339.617 254.273 338.68C254.133 337.727 254.062 336.805 254.062 335.914ZM254.883 325.578L254.93 329.07H250.875C249.828 329.07 248.906 329.172 248.109 329.375C247.312 329.562 246.648 329.844 246.117 330.219C245.586 330.594 245.188 331.047 244.922 331.578C244.656 332.109 244.523 332.711 244.523 333.383C244.523 334.055 244.68 334.672 244.992 335.234C245.305 335.781 245.758 336.211 246.352 336.523C246.961 336.836 247.695 336.992 248.555 336.992C249.711 336.992 250.719 336.758 251.578 336.289C252.453 335.805 253.141 335.219 253.641 334.531C254.141 333.828 254.406 333.164 254.438 332.539L256.266 335.047C256.078 335.688 255.758 336.375 255.305 337.109C254.852 337.844 254.258 338.547 253.523 339.219C252.805 339.875 251.938 340.414 250.922 340.836C249.922 341.258 248.766 341.469 247.453 341.469C245.797 341.469 244.32 341.141 243.023 340.484C241.727 339.812 240.711 338.914 239.977 337.789C239.242 336.648 238.875 335.359 238.875 333.922C238.875 332.578 239.125 331.391 239.625 330.359C240.141 329.312 240.891 328.438 241.875 327.734C242.875 327.031 244.094 326.5 245.531 326.141C246.969 325.766 248.609 325.578 250.453 325.578H254.883ZM265.664 305H271.312V335.586L270.773 341H265.664V305ZM287.859 328.086V328.578C287.859 330.453 287.648 332.18 287.227 333.758C286.82 335.32 286.195 336.68 285.352 337.836C284.523 338.992 283.492 339.891 282.258 340.531C281.039 341.156 279.625 341.469 278.016 341.469C276.438 341.469 275.062 341.172 273.891 340.578C272.719 339.984 271.734 339.141 270.938 338.047C270.156 336.953 269.523 335.648 269.039 334.133C268.555 332.617 268.211 330.945 268.008 329.117V327.547C268.211 325.703 268.555 324.031 269.039 322.531C269.523 321.016 270.156 319.711 270.938 318.617C271.734 317.508 272.711 316.656 273.867 316.062C275.039 315.469 276.406 315.172 277.969 315.172C279.594 315.172 281.023 315.484 282.258 316.109C283.508 316.734 284.547 317.625 285.375 318.781C286.203 319.922 286.82 321.281 287.227 322.859C287.648 324.438 287.859 326.18 287.859 328.086ZM282.211 328.578V328.086C282.211 326.945 282.117 325.875 281.93 324.875C281.742 323.859 281.43 322.969 280.992 322.203C280.57 321.438 279.992 320.836 279.258 320.398C278.539 319.945 277.641 319.719 276.562 319.719C275.562 319.719 274.703 319.891 273.984 320.234C273.266 320.578 272.664 321.047 272.18 321.641C271.695 322.234 271.312 322.922 271.031 323.703C270.766 324.484 270.586 325.328 270.492 326.234V330.477C270.633 331.648 270.93 332.727 271.383 333.711C271.852 334.68 272.508 335.461 273.352 336.055C274.195 336.633 275.281 336.922 276.609 336.922C277.656 336.922 278.539 336.711 279.258 336.289C279.977 335.867 280.547 335.281 280.969 334.531C281.406 333.766 281.719 332.875 281.906 331.859C282.109 330.844 282.211 329.75 282.211 328.578Z" fill="white"/>
</g>
<defs>
<filter id="filter0_d_1_2" x="583.57" y="201.508" width="343.727" height="102.961" filterUnits="userSpaceOnUse" color-interpolation-filters="sRGB">
<feFlood flood-opacity="0" result="BackgroundImageFix"/>
<feColorMatrix in="SourceAlpha" type="matrix" values="0 0 0 0 0 0 0 0 0 0 0 0 0 0 0 0 0 0 127 0" result="hardAlpha"/>
<feOffset dy="5"/>
<feGaussianBlur stdDeviation="2.5"/>
<feComposite in2="hardAlpha" operator="out"/>
<feColorMatrix type="matrix" values="0 0 0 0 0 0 0 0 0 0 0 0 0 0 0 0 0 0 0.25 0"/>
<feBlend mode="normal" in2="BackgroundImageFix" result="effect1_dropShadow_1_2"/>
<feBlend mode="normal" in="SourceGraphic" in2="effect1_dropShadow_1_2" result="shape"/>
</filter>
<linearGradient id="paint0_linear_1_2" x1="-6.00512e-06" y1="10.5" x2="1000" y2="500" gradientUnits="userSpaceOnUse">
<stop stop-color="#E14329"/>
<stop offset="1" stop-color="#FB6D27"/>
</linearGradient>
<clipPath id="clip0_1_2">
<rect width="1000" height="500" fill="white"/>
</clipPath>
</defs>
</svg>
