<svg width="1000" height="500" viewBox="0 0 1000 500" fill="none" xmlns="http://www.w3.org/2000/svg">
<g clip-path="url(#clip0_3_50)">
<rect width="1000" height="500" fill="url(#paint0_linear_3_50)"/>
<path d="M312.996 204L303.16 173.5C303.108 173.219 303.028 172.945 302.922 172.68L283.195 111.375C282.678 109.799 281.675 108.427 280.329 107.458C278.984 106.488 277.366 105.969 275.707 105.977C274.053 105.972 272.44 106.498 271.108 107.478C269.775 108.459 268.792 109.841 268.305 111.422L249.5 169.84H190.125L171.305 111.418C170.819 109.843 169.842 108.464 168.516 107.484C167.191 106.504 165.586 105.975 163.937 105.973H163.894C162.231 105.978 160.613 106.511 159.271 107.493C157.929 108.476 156.933 109.858 156.426 111.441L136.68 172.801C136.68 172.855 136.637 172.902 136.617 172.957L126.605 204.004C125.868 206.278 125.865 208.726 126.597 211.002C127.329 213.278 128.759 215.266 130.684 216.684L217.184 280.125C217.943 280.681 218.86 280.978 219.801 280.973C220.742 280.968 221.657 280.661 222.41 280.098L308.926 216.684C310.851 215.265 312.28 213.276 313.011 211C313.741 208.723 313.736 206.274 312.996 204ZM183.699 178.801L207.812 253.707L149.934 178.801M231.824 253.723L254.945 181.91L255.941 178.785H289.738L237.371 246.516M275.781 117.168L292.723 169.836H258.809M246.625 178.766L229.828 230.945L219.805 262.023L193.023 178.766M163.855 117.168L180.832 169.836H146.953M135.891 209.461C135.482 209.159 135.178 208.737 135.023 208.253C134.868 207.769 134.87 207.249 135.027 206.766L142.449 183.719L196.984 254.262M303.727 209.461L242.625 254.242L242.828 253.973L297.148 183.703L304.57 206.75C304.73 207.233 304.733 207.755 304.579 208.24C304.426 208.725 304.123 209.15 303.715 209.453" fill="#F7F7F7"/>
<rect x="365.682" y="-23.5099" width="418" height="818.138" transform="rotate(-28.3711 365.682 -23.5099)" fill="#F7F7F7"/>
<g filter="url(#filter0_d_3_50)">
<path d="M597.828 214.68H604.836C604.695 216.977 604.062 219.016 602.938 220.797C601.828 222.578 600.273 223.969 598.273 224.969C596.289 225.969 593.898 226.469 591.102 226.469C588.914 226.469 586.953 226.094 585.219 225.344C583.484 224.578 582 223.484 580.766 222.062C579.547 220.641 578.617 218.922 577.977 216.906C577.336 214.891 577.016 212.633 577.016 210.133V207.766C577.016 205.266 577.344 203.008 578 200.992C578.672 198.961 579.625 197.234 580.859 195.812C582.109 194.391 583.602 193.297 585.336 192.531C587.07 191.766 589.008 191.383 591.148 191.383C593.992 191.383 596.391 191.898 598.344 192.93C600.312 193.961 601.836 195.383 602.914 197.195C604.008 199.008 604.664 201.07 604.883 203.383H597.852C597.773 202.008 597.5 200.844 597.031 199.891C596.562 198.922 595.852 198.195 594.898 197.711C593.961 197.211 592.711 196.961 591.148 196.961C589.977 196.961 588.953 197.18 588.078 197.617C587.203 198.055 586.469 198.719 585.875 199.609C585.281 200.5 584.836 201.625 584.539 202.984C584.258 204.328 584.117 205.906 584.117 207.719V210.133C584.117 211.898 584.25 213.453 584.516 214.797C584.781 216.125 585.188 217.25 585.734 218.172C586.297 219.078 587.016 219.766 587.891 220.234C588.781 220.688 589.852 220.914 591.102 220.914C592.57 220.914 593.781 220.68 594.734 220.211C595.688 219.742 596.414 219.047 596.914 218.125C597.43 217.203 597.734 216.055 597.828 214.68ZM622.719 220.281V208.984C622.719 208.172 622.586 207.477 622.32 206.898C622.055 206.305 621.641 205.844 621.078 205.516C620.531 205.188 619.82 205.023 618.945 205.023C618.195 205.023 617.547 205.156 617 205.422C616.453 205.672 616.031 206.039 615.734 206.523C615.438 206.992 615.289 207.547 615.289 208.188H608.539C608.539 207.109 608.789 206.086 609.289 205.117C609.789 204.148 610.516 203.297 611.469 202.562C612.422 201.812 613.555 201.227 614.867 200.805C616.195 200.383 617.68 200.172 619.32 200.172C621.289 200.172 623.039 200.5 624.57 201.156C626.102 201.812 627.305 202.797 628.18 204.109C629.07 205.422 629.516 207.062 629.516 209.031V219.883C629.516 221.273 629.602 222.414 629.773 223.305C629.945 224.18 630.195 224.945 630.523 225.602V226H623.703C623.375 225.312 623.125 224.453 622.953 223.422C622.797 222.375 622.719 221.328 622.719 220.281ZM623.609 210.555L623.656 214.375H619.883C618.992 214.375 618.219 214.477 617.562 214.68C616.906 214.883 616.367 215.172 615.945 215.547C615.523 215.906 615.211 216.328 615.008 216.812C614.82 217.297 614.727 217.828 614.727 218.406C614.727 218.984 614.859 219.508 615.125 219.977C615.391 220.43 615.773 220.789 616.273 221.055C616.773 221.305 617.359 221.43 618.031 221.43C619.047 221.43 619.93 221.227 620.68 220.82C621.43 220.414 622.008 219.914 622.414 219.32C622.836 218.727 623.055 218.164 623.07 217.633L624.852 220.492C624.602 221.133 624.258 221.797 623.82 222.484C623.398 223.172 622.859 223.82 622.203 224.43C621.547 225.023 620.758 225.516 619.836 225.906C618.914 226.281 617.82 226.469 616.555 226.469C614.945 226.469 613.484 226.148 612.172 225.508C610.875 224.852 609.844 223.953 609.078 222.812C608.328 221.656 607.953 220.344 607.953 218.875C607.953 217.547 608.203 216.367 608.703 215.336C609.203 214.305 609.938 213.438 610.906 212.734C611.891 212.016 613.117 211.477 614.586 211.117C616.055 210.742 617.758 210.555 619.695 210.555H623.609ZM641.469 206.172V226H634.719V200.641H641.07L641.469 206.172ZM649.109 200.477L648.992 206.734C648.664 206.688 648.266 206.648 647.797 206.617C647.344 206.57 646.93 206.547 646.555 206.547C645.602 206.547 644.773 206.672 644.07 206.922C643.383 207.156 642.805 207.508 642.336 207.977C641.883 208.445 641.539 209.016 641.305 209.688C641.086 210.359 640.961 211.125 640.93 211.984L639.57 211.562C639.57 209.922 639.734 208.414 640.062 207.039C640.391 205.648 640.867 204.438 641.492 203.406C642.133 202.375 642.914 201.578 643.836 201.016C644.758 200.453 645.812 200.172 647 200.172C647.375 200.172 647.758 200.203 648.148 200.266C648.539 200.312 648.859 200.383 649.109 200.477ZM665.188 220.281V208.984C665.188 208.172 665.055 207.477 664.789 206.898C664.523 206.305 664.109 205.844 663.547 205.516C663 205.188 662.289 205.023 661.414 205.023C660.664 205.023 660.016 205.156 659.469 205.422C658.922 205.672 658.5 206.039 658.203 206.523C657.906 206.992 657.758 207.547 657.758 208.188H651.008C651.008 207.109 651.258 206.086 651.758 205.117C652.258 204.148 652.984 203.297 653.938 202.562C654.891 201.812 656.023 201.227 657.336 200.805C658.664 200.383 660.148 200.172 661.789 200.172C663.758 200.172 665.508 200.5 667.039 201.156C668.57 201.812 669.773 202.797 670.648 204.109C671.539 205.422 671.984 207.062 671.984 209.031V219.883C671.984 221.273 672.07 222.414 672.242 223.305C672.414 224.18 672.664 224.945 672.992 225.602V226H666.172C665.844 225.312 665.594 224.453 665.422 223.422C665.266 222.375 665.188 221.328 665.188 220.281ZM666.078 210.555L666.125 214.375H662.352C661.461 214.375 660.688 214.477 660.031 214.68C659.375 214.883 658.836 215.172 658.414 215.547C657.992 215.906 657.68 216.328 657.477 216.812C657.289 217.297 657.195 217.828 657.195 218.406C657.195 218.984 657.328 219.508 657.594 219.977C657.859 220.43 658.242 220.789 658.742 221.055C659.242 221.305 659.828 221.43 660.5 221.43C661.516 221.43 662.398 221.227 663.148 220.82C663.898 220.414 664.477 219.914 664.883 219.32C665.305 218.727 665.523 218.164 665.539 217.633L667.32 220.492C667.07 221.133 666.727 221.797 666.289 222.484C665.867 223.172 665.328 223.82 664.672 224.43C664.016 225.023 663.227 225.516 662.305 225.906C661.383 226.281 660.289 226.469 659.023 226.469C657.414 226.469 655.953 226.148 654.641 225.508C653.344 224.852 652.312 223.953 651.547 222.812C650.797 221.656 650.422 220.344 650.422 218.875C650.422 217.547 650.672 216.367 651.172 215.336C651.672 214.305 652.406 213.438 653.375 212.734C654.359 212.016 655.586 211.477 657.055 211.117C658.523 210.742 660.227 210.555 662.164 210.555H666.078ZM689.562 191.875H702.289C704.898 191.875 707.141 192.266 709.016 193.047C710.906 193.828 712.359 194.984 713.375 196.516C714.391 198.047 714.898 199.93 714.898 202.164C714.898 203.992 714.586 205.562 713.961 206.875C713.352 208.172 712.484 209.258 711.359 210.133C710.25 210.992 708.945 211.68 707.445 212.195L705.219 213.367H694.156L694.109 207.883H702.336C703.57 207.883 704.594 207.664 705.406 207.227C706.219 206.789 706.828 206.18 707.234 205.398C707.656 204.617 707.867 203.711 707.867 202.68C707.867 201.586 707.664 200.641 707.258 199.844C706.852 199.047 706.234 198.438 705.406 198.016C704.578 197.594 703.539 197.383 702.289 197.383H696.594V226H689.562V191.875ZM708.641 226L700.859 210.789L708.289 210.742L716.164 225.672V226H708.641ZM731.562 226.469C729.594 226.469 727.828 226.156 726.266 225.531C724.703 224.891 723.375 224.008 722.281 222.883C721.203 221.758 720.375 220.453 719.797 218.969C719.219 217.469 718.93 215.875 718.93 214.188V213.25C718.93 211.328 719.203 209.57 719.75 207.977C720.297 206.383 721.078 205 722.094 203.828C723.125 202.656 724.375 201.758 725.844 201.133C727.312 200.492 728.969 200.172 730.812 200.172C732.609 200.172 734.203 200.469 735.594 201.062C736.984 201.656 738.148 202.5 739.086 203.594C740.039 204.688 740.758 206 741.242 207.531C741.727 209.047 741.969 210.734 741.969 212.594V215.406H721.812V210.906H735.336V210.391C735.336 209.453 735.164 208.617 734.82 207.883C734.492 207.133 733.992 206.539 733.32 206.102C732.648 205.664 731.789 205.445 730.742 205.445C729.852 205.445 729.086 205.641 728.445 206.031C727.805 206.422 727.281 206.969 726.875 207.672C726.484 208.375 726.188 209.203 725.984 210.156C725.797 211.094 725.703 212.125 725.703 213.25V214.188C725.703 215.203 725.844 216.141 726.125 217C726.422 217.859 726.836 218.602 727.367 219.227C727.914 219.852 728.57 220.336 729.336 220.68C730.117 221.023 731 221.195 731.984 221.195C733.203 221.195 734.336 220.961 735.383 220.492C736.445 220.008 737.359 219.281 738.125 218.312L741.406 221.875C740.875 222.641 740.148 223.375 739.227 224.078C738.32 224.781 737.227 225.359 735.945 225.812C734.664 226.25 733.203 226.469 731.562 226.469ZM759.523 218.992C759.523 218.508 759.383 218.07 759.102 217.68C758.82 217.289 758.297 216.93 757.531 216.602C756.781 216.258 755.695 215.945 754.273 215.664C752.992 215.383 751.797 215.031 750.688 214.609C749.594 214.172 748.641 213.648 747.828 213.039C747.031 212.43 746.406 211.711 745.953 210.883C745.5 210.039 745.273 209.078 745.273 208C745.273 206.938 745.5 205.938 745.953 205C746.422 204.062 747.086 203.234 747.945 202.516C748.82 201.781 749.883 201.211 751.133 200.805C752.398 200.383 753.82 200.172 755.398 200.172C757.602 200.172 759.492 200.523 761.07 201.227C762.664 201.93 763.883 202.898 764.727 204.133C765.586 205.352 766.016 206.742 766.016 208.305H759.266C759.266 207.648 759.125 207.062 758.844 206.547C758.578 206.016 758.156 205.602 757.578 205.305C757.016 204.992 756.281 204.836 755.375 204.836C754.625 204.836 753.977 204.969 753.43 205.234C752.883 205.484 752.461 205.828 752.164 206.266C751.883 206.688 751.742 207.156 751.742 207.672C751.742 208.062 751.82 208.414 751.977 208.727C752.148 209.023 752.422 209.297 752.797 209.547C753.172 209.797 753.656 210.031 754.25 210.25C754.859 210.453 755.609 210.641 756.5 210.812C758.328 211.188 759.961 211.68 761.398 212.289C762.836 212.883 763.977 213.695 764.82 214.727C765.664 215.742 766.086 217.078 766.086 218.734C766.086 219.859 765.836 220.891 765.336 221.828C764.836 222.766 764.117 223.586 763.18 224.289C762.242 224.977 761.117 225.516 759.805 225.906C758.508 226.281 757.047 226.469 755.422 226.469C753.062 226.469 751.062 226.047 749.422 225.203C747.797 224.359 746.562 223.289 745.719 221.992C744.891 220.68 744.477 219.336 744.477 217.961H750.875C750.906 218.883 751.141 219.625 751.578 220.188C752.031 220.75 752.602 221.156 753.289 221.406C753.992 221.656 754.75 221.781 755.562 221.781C756.438 221.781 757.164 221.664 757.742 221.43C758.32 221.18 758.758 220.852 759.055 220.445C759.367 220.023 759.523 219.539 759.523 218.992ZM769.391 213.578V213.086C769.391 211.227 769.656 209.516 770.188 207.953C770.719 206.375 771.492 205.008 772.508 203.852C773.523 202.695 774.773 201.797 776.258 201.156C777.742 200.5 779.445 200.172 781.367 200.172C783.289 200.172 785 200.5 786.5 201.156C788 201.797 789.258 202.695 790.273 203.852C791.305 205.008 792.086 206.375 792.617 207.953C793.148 209.516 793.414 211.227 793.414 213.086V213.578C793.414 215.422 793.148 217.133 792.617 218.711C792.086 220.273 791.305 221.641 790.273 222.812C789.258 223.969 788.008 224.867 786.523 225.508C785.039 226.148 783.336 226.469 781.414 226.469C779.492 226.469 777.781 226.148 776.281 225.508C774.797 224.867 773.539 223.969 772.508 222.812C771.492 221.641 770.719 220.273 770.188 218.711C769.656 217.133 769.391 215.422 769.391 213.578ZM776.141 213.086V213.578C776.141 214.641 776.234 215.633 776.422 216.555C776.609 217.477 776.906 218.289 777.312 218.992C777.734 219.68 778.281 220.219 778.953 220.609C779.625 221 780.445 221.195 781.414 221.195C782.352 221.195 783.156 221 783.828 220.609C784.5 220.219 785.039 219.68 785.445 218.992C785.852 218.289 786.148 217.477 786.336 216.555C786.539 215.633 786.641 214.641 786.641 213.578V213.086C786.641 212.055 786.539 211.086 786.336 210.18C786.148 209.258 785.844 208.445 785.422 207.742C785.016 207.023 784.477 206.461 783.805 206.055C783.133 205.648 782.32 205.445 781.367 205.445C780.414 205.445 779.602 205.648 778.93 206.055C778.273 206.461 777.734 207.023 777.312 207.742C776.906 208.445 776.609 209.258 776.422 210.18C776.234 211.086 776.141 212.055 776.141 213.086ZM804.688 190V226H797.914V190H804.688ZM818.891 221.078L824.516 200.641H831.57L823.016 226H818.75L818.891 221.078ZM815.023 200.641L820.672 221.102L820.789 226H816.5L807.945 200.641H815.023ZM845.938 226.469C843.969 226.469 842.203 226.156 840.641 225.531C839.078 224.891 837.75 224.008 836.656 222.883C835.578 221.758 834.75 220.453 834.172 218.969C833.594 217.469 833.305 215.875 833.305 214.188V213.25C833.305 211.328 833.578 209.57 834.125 207.977C834.672 206.383 835.453 205 836.469 203.828C837.5 202.656 838.75 201.758 840.219 201.133C841.688 200.492 843.344 200.172 845.188 200.172C846.984 200.172 848.578 200.469 849.969 201.062C851.359 201.656 852.523 202.5 853.461 203.594C854.414 204.688 855.133 206 855.617 207.531C856.102 209.047 856.344 210.734 856.344 212.594V215.406H836.188V210.906H849.711V210.391C849.711 209.453 849.539 208.617 849.195 207.883C848.867 207.133 848.367 206.539 847.695 206.102C847.023 205.664 846.164 205.445 845.117 205.445C844.227 205.445 843.461 205.641 842.82 206.031C842.18 206.422 841.656 206.969 841.25 207.672C840.859 208.375 840.562 209.203 840.359 210.156C840.172 211.094 840.078 212.125 840.078 213.25V214.188C840.078 215.203 840.219 216.141 840.5 217C840.797 217.859 841.211 218.602 841.742 219.227C842.289 219.852 842.945 220.336 843.711 220.68C844.492 221.023 845.375 221.195 846.359 221.195C847.578 221.195 848.711 220.961 849.758 220.492C850.82 220.008 851.734 219.281 852.5 218.312L855.781 221.875C855.25 222.641 854.523 223.375 853.602 224.078C852.695 224.781 851.602 225.359 850.32 225.812C849.039 226.25 847.578 226.469 845.938 226.469ZM597.828 270.68H604.836C604.695 272.977 604.062 275.016 602.938 276.797C601.828 278.578 600.273 279.969 598.273 280.969C596.289 281.969 593.898 282.469 591.102 282.469C588.914 282.469 586.953 282.094 585.219 281.344C583.484 280.578 582 279.484 580.766 278.062C579.547 276.641 578.617 274.922 577.977 272.906C577.336 270.891 577.016 268.633 577.016 266.133V263.766C577.016 261.266 577.344 259.008 578 256.992C578.672 254.961 579.625 253.234 580.859 251.812C582.109 250.391 583.602 249.297 585.336 248.531C587.07 247.766 589.008 247.383 591.148 247.383C593.992 247.383 596.391 247.898 598.344 248.93C600.312 249.961 601.836 251.383 602.914 253.195C604.008 255.008 604.664 257.07 604.883 259.383H597.852C597.773 258.008 597.5 256.844 597.031 255.891C596.562 254.922 595.852 254.195 594.898 253.711C593.961 253.211 592.711 252.961 591.148 252.961C589.977 252.961 588.953 253.18 588.078 253.617C587.203 254.055 586.469 254.719 585.875 255.609C585.281 256.5 584.836 257.625 584.539 258.984C584.258 260.328 584.117 261.906 584.117 263.719V266.133C584.117 267.898 584.25 269.453 584.516 270.797C584.781 272.125 585.188 273.25 585.734 274.172C586.297 275.078 587.016 275.766 587.891 276.234C588.781 276.688 589.852 276.914 591.102 276.914C592.57 276.914 593.781 276.68 594.734 276.211C595.688 275.742 596.414 275.047 596.914 274.125C597.43 273.203 597.734 272.055 597.828 270.68ZM607.953 269.578V269.086C607.953 267.227 608.219 265.516 608.75 263.953C609.281 262.375 610.055 261.008 611.07 259.852C612.086 258.695 613.336 257.797 614.82 257.156C616.305 256.5 618.008 256.172 619.93 256.172C621.852 256.172 623.562 256.5 625.062 257.156C626.562 257.797 627.82 258.695 628.836 259.852C629.867 261.008 630.648 262.375 631.18 263.953C631.711 265.516 631.977 267.227 631.977 269.086V269.578C631.977 271.422 631.711 273.133 631.18 274.711C630.648 276.273 629.867 277.641 628.836 278.812C627.82 279.969 626.57 280.867 625.086 281.508C623.602 282.148 621.898 282.469 619.977 282.469C618.055 282.469 616.344 282.148 614.844 281.508C613.359 280.867 612.102 279.969 611.07 278.812C610.055 277.641 609.281 276.273 608.75 274.711C608.219 273.133 607.953 271.422 607.953 269.578ZM614.703 269.086V269.578C614.703 270.641 614.797 271.633 614.984 272.555C615.172 273.477 615.469 274.289 615.875 274.992C616.297 275.68 616.844 276.219 617.516 276.609C618.188 277 619.008 277.195 619.977 277.195C620.914 277.195 621.719 277 622.391 276.609C623.062 276.219 623.602 275.68 624.008 274.992C624.414 274.289 624.711 273.477 624.898 272.555C625.102 271.633 625.203 270.641 625.203 269.578V269.086C625.203 268.055 625.102 267.086 624.898 266.18C624.711 265.258 624.406 264.445 623.984 263.742C623.578 263.023 623.039 262.461 622.367 262.055C621.695 261.648 620.883 261.445 619.93 261.445C618.977 261.445 618.164 261.648 617.492 262.055C616.836 262.461 616.297 263.023 615.875 263.742C615.469 264.445 615.172 265.258 614.984 266.18C614.797 267.086 614.703 268.055 614.703 269.086ZM642.734 262.055V282H635.984V256.641H642.312L642.734 262.055ZM641.75 268.43H639.922C639.922 266.555 640.164 264.867 640.648 263.367C641.133 261.852 641.812 260.562 642.688 259.5C643.562 258.422 644.602 257.602 645.805 257.039C647.023 256.461 648.383 256.172 649.883 256.172C651.07 256.172 652.156 256.344 653.141 256.688C654.125 257.031 654.969 257.578 655.672 258.328C656.391 259.078 656.938 260.07 657.312 261.305C657.703 262.539 657.898 264.047 657.898 265.828V282H651.102V265.805C651.102 264.68 650.945 263.805 650.633 263.18C650.32 262.555 649.859 262.117 649.25 261.867C648.656 261.602 647.922 261.469 647.047 261.469C646.141 261.469 645.352 261.648 644.68 262.008C644.023 262.367 643.477 262.867 643.039 263.508C642.617 264.133 642.297 264.867 642.078 265.711C641.859 266.555 641.75 267.461 641.75 268.43ZM671.633 282H664.836V254.695C664.836 252.711 665.25 251.039 666.078 249.68C666.906 248.305 668.102 247.266 669.664 246.562C671.227 245.859 673.109 245.508 675.312 245.508C676.234 245.508 677.383 245.555 678.758 245.648C680.148 245.727 681.562 245.828 683 245.953C684.453 246.062 685.727 246.18 686.82 246.305L684.008 251.625C682.602 251.375 681.25 251.18 679.953 251.039C678.656 250.898 677.422 250.828 676.25 250.828C675.25 250.828 674.406 250.977 673.719 251.273C673.031 251.57 672.508 252.008 672.148 252.586C671.805 253.148 671.633 253.852 671.633 254.695V282ZM680.07 282V246.305H686.82V282H680.07ZM676.695 256.641V261.422H661.062V256.641H676.695ZM699.594 256.641V282H692.82V256.641H699.594ZM692.398 250.031C692.398 249.047 692.742 248.234 693.43 247.594C694.117 246.953 695.039 246.633 696.195 246.633C697.336 246.633 698.25 246.953 698.938 247.594C699.641 248.234 699.992 249.047 699.992 250.031C699.992 251.016 699.641 251.828 698.938 252.469C698.25 253.109 697.336 253.43 696.195 253.43C695.039 253.43 694.117 253.109 693.43 252.469C692.742 251.828 692.398 251.016 692.398 250.031ZM715.648 277.195C716.477 277.195 717.211 277.039 717.852 276.727C718.492 276.398 718.992 275.945 719.352 275.367C719.727 274.773 719.922 274.078 719.938 273.281H726.289C726.273 275.062 725.797 276.648 724.859 278.039C723.922 279.414 722.664 280.5 721.086 281.297C719.508 282.078 717.742 282.469 715.789 282.469C713.82 282.469 712.102 282.141 710.633 281.484C709.18 280.828 707.969 279.922 707 278.766C706.031 277.594 705.305 276.234 704.82 274.688C704.336 273.125 704.094 271.453 704.094 269.672V268.992C704.094 267.195 704.336 265.523 704.82 263.977C705.305 262.414 706.031 261.055 707 259.898C707.969 258.727 709.18 257.812 710.633 257.156C712.086 256.5 713.789 256.172 715.742 256.172C717.82 256.172 719.641 256.57 721.203 257.367C722.781 258.164 724.016 259.305 724.906 260.789C725.812 262.258 726.273 264 726.289 266.016H719.938C719.922 265.172 719.742 264.406 719.398 263.719C719.07 263.031 718.586 262.484 717.945 262.078C717.32 261.656 716.547 261.445 715.625 261.445C714.641 261.445 713.836 261.656 713.211 262.078C712.586 262.484 712.102 263.047 711.758 263.766C711.414 264.469 711.172 265.273 711.031 266.18C710.906 267.07 710.844 268.008 710.844 268.992V269.672C710.844 270.656 710.906 271.602 711.031 272.508C711.156 273.414 711.391 274.219 711.734 274.922C712.094 275.625 712.586 276.18 713.211 276.586C713.836 276.992 714.648 277.195 715.648 277.195ZM742.625 256.641V261.422H727.859V256.641H742.625ZM731.516 250.383H738.266V274.359C738.266 275.094 738.359 275.656 738.547 276.047C738.75 276.438 739.047 276.711 739.438 276.867C739.828 277.008 740.32 277.078 740.914 277.078C741.336 277.078 741.711 277.062 742.039 277.031C742.383 276.984 742.672 276.938 742.906 276.891L742.93 281.859C742.352 282.047 741.727 282.195 741.055 282.305C740.383 282.414 739.641 282.469 738.828 282.469C737.344 282.469 736.047 282.227 734.938 281.742C733.844 281.242 733 280.445 732.406 279.352C731.812 278.258 731.516 276.82 731.516 275.039V250.383ZM773.398 276.469V246H780.195V282H774.078L773.398 276.469ZM757.367 269.625V269.133C757.367 267.195 757.586 265.438 758.023 263.859C758.461 262.266 759.102 260.898 759.945 259.758C760.789 258.617 761.828 257.734 763.062 257.109C764.297 256.484 765.703 256.172 767.281 256.172C768.766 256.172 770.062 256.484 771.172 257.109C772.297 257.734 773.25 258.625 774.031 259.781C774.828 260.922 775.469 262.273 775.953 263.836C776.438 265.383 776.789 267.078 777.008 268.922V270C776.789 271.766 776.438 273.406 775.953 274.922C775.469 276.438 774.828 277.766 774.031 278.906C773.25 280.031 772.297 280.906 771.172 281.531C770.047 282.156 768.734 282.469 767.234 282.469C765.656 282.469 764.25 282.148 763.016 281.508C761.797 280.867 760.766 279.969 759.922 278.812C759.094 277.656 758.461 276.297 758.023 274.734C757.586 273.172 757.367 271.469 757.367 269.625ZM764.117 269.133V269.625C764.117 270.672 764.195 271.648 764.352 272.555C764.523 273.461 764.797 274.266 765.172 274.969C765.562 275.656 766.062 276.195 766.672 276.586C767.297 276.961 768.055 277.148 768.945 277.148C770.102 277.148 771.055 276.891 771.805 276.375C772.555 275.844 773.125 275.117 773.516 274.195C773.922 273.273 774.156 272.211 774.219 271.008V267.938C774.172 266.953 774.031 266.07 773.797 265.289C773.578 264.492 773.25 263.812 772.812 263.25C772.391 262.688 771.859 262.25 771.219 261.938C770.594 261.625 769.852 261.469 768.992 261.469C768.117 261.469 767.367 261.672 766.742 262.078C766.117 262.469 765.609 263.008 765.219 263.695C764.844 264.383 764.562 265.195 764.375 266.133C764.203 267.055 764.117 268.055 764.117 269.133ZM792.594 256.641V282H785.82V256.641H792.594ZM785.398 250.031C785.398 249.047 785.742 248.234 786.43 247.594C787.117 246.953 788.039 246.633 789.195 246.633C790.336 246.633 791.25 246.953 791.938 247.594C792.641 248.234 792.992 249.047 792.992 250.031C792.992 251.016 792.641 251.828 791.938 252.469C791.25 253.109 790.336 253.43 789.195 253.43C788.039 253.43 787.117 253.109 786.43 252.469C785.742 251.828 785.398 251.016 785.398 250.031ZM837.594 264.164V277.688C837.062 278.328 836.242 279.023 835.133 279.773C834.023 280.508 832.594 281.141 830.844 281.672C829.094 282.203 826.977 282.469 824.492 282.469C822.289 282.469 820.281 282.109 818.469 281.391C816.656 280.656 815.094 279.586 813.781 278.18C812.484 276.773 811.484 275.055 810.781 273.023C810.078 270.977 809.727 268.641 809.727 266.016V263.883C809.727 261.258 810.062 258.922 810.734 256.875C811.422 254.828 812.398 253.102 813.664 251.695C814.93 250.289 816.438 249.219 818.188 248.484C819.938 247.75 821.883 247.383 824.023 247.383C826.992 247.383 829.43 247.867 831.336 248.836C833.242 249.789 834.695 251.117 835.695 252.82C836.711 254.508 837.336 256.445 837.57 258.633H830.75C830.578 257.477 830.25 256.469 829.766 255.609C829.281 254.75 828.586 254.078 827.68 253.594C826.789 253.109 825.633 252.867 824.211 252.867C823.039 252.867 821.992 253.109 821.07 253.594C820.164 254.062 819.398 254.758 818.773 255.68C818.148 256.602 817.672 257.742 817.344 259.102C817.016 260.461 816.852 262.039 816.852 263.836V266.016C816.852 267.797 817.023 269.375 817.367 270.75C817.711 272.109 818.219 273.258 818.891 274.195C819.578 275.117 820.422 275.812 821.422 276.281C822.422 276.75 823.586 276.984 824.914 276.984C826.023 276.984 826.945 276.891 827.68 276.703C828.43 276.516 829.031 276.289 829.484 276.023C829.953 275.742 830.312 275.477 830.562 275.227V269.18H824.141V264.164H837.594ZM849.969 256.641V282H843.195V256.641H849.969ZM842.773 250.031C842.773 249.047 843.117 248.234 843.805 247.594C844.492 246.953 845.414 246.633 846.57 246.633C847.711 246.633 848.625 246.953 849.312 247.594C850.016 248.234 850.367 249.047 850.367 250.031C850.367 251.016 850.016 251.828 849.312 252.469C848.625 253.109 847.711 253.43 846.57 253.43C845.414 253.43 844.492 253.109 843.805 252.469C843.117 251.828 842.773 251.016 842.773 250.031ZM867.969 256.641V261.422H853.203V256.641H867.969ZM856.859 250.383H863.609V274.359C863.609 275.094 863.703 275.656 863.891 276.047C864.094 276.438 864.391 276.711 864.781 276.867C865.172 277.008 865.664 277.078 866.258 277.078C866.68 277.078 867.055 277.062 867.383 277.031C867.727 276.984 868.016 276.938 868.25 276.891L868.273 281.859C867.695 282.047 867.07 282.195 866.398 282.305C865.727 282.414 864.984 282.469 864.172 282.469C862.688 282.469 861.391 282.227 860.281 281.742C859.188 281.242 858.344 280.445 857.75 279.352C857.156 278.258 856.859 276.82 856.859 275.039V250.383ZM894.172 276.516V282H876.992V276.516H894.172ZM879.266 247.875V282H872.234V247.875H879.266ZM911.469 276.281V264.984C911.469 264.172 911.336 263.477 911.07 262.898C910.805 262.305 910.391 261.844 909.828 261.516C909.281 261.188 908.57 261.023 907.695 261.023C906.945 261.023 906.297 261.156 905.75 261.422C905.203 261.672 904.781 262.039 904.484 262.523C904.188 262.992 904.039 263.547 904.039 264.188H897.289C897.289 263.109 897.539 262.086 898.039 261.117C898.539 260.148 899.266 259.297 900.219 258.562C901.172 257.812 902.305 257.227 903.617 256.805C904.945 256.383 906.43 256.172 908.07 256.172C910.039 256.172 911.789 256.5 913.32 257.156C914.852 257.812 916.055 258.797 916.93 260.109C917.82 261.422 918.266 263.062 918.266 265.031V275.883C918.266 277.273 918.352 278.414 918.523 279.305C918.695 280.18 918.945 280.945 919.273 281.602V282H912.453C912.125 281.312 911.875 280.453 911.703 279.422C911.547 278.375 911.469 277.328 911.469 276.281ZM912.359 266.555L912.406 270.375H908.633C907.742 270.375 906.969 270.477 906.312 270.68C905.656 270.883 905.117 271.172 904.695 271.547C904.273 271.906 903.961 272.328 903.758 272.812C903.57 273.297 903.477 273.828 903.477 274.406C903.477 274.984 903.609 275.508 903.875 275.977C904.141 276.43 904.523 276.789 905.023 277.055C905.523 277.305 906.109 277.43 906.781 277.43C907.797 277.43 908.68 277.227 909.43 276.82C910.18 276.414 910.758 275.914 911.164 275.32C911.586 274.727 911.805 274.164 911.82 273.633L913.602 276.492C913.352 277.133 913.008 277.797 912.57 278.484C912.148 279.172 911.609 279.82 910.953 280.43C910.297 281.023 909.508 281.516 908.586 281.906C907.664 282.281 906.57 282.469 905.305 282.469C903.695 282.469 902.234 282.148 900.922 281.508C899.625 280.852 898.594 279.953 897.828 278.812C897.078 277.656 896.703 276.344 896.703 274.875C896.703 273.547 896.953 272.367 897.453 271.336C897.953 270.305 898.688 269.438 899.656 268.734C900.641 268.016 901.867 267.477 903.336 267.117C904.805 266.742 906.508 266.555 908.445 266.555H912.359ZM923.469 246H930.219V276.188L929.539 282H923.469V246ZM946.273 269.062V269.555C946.273 271.445 946.07 273.18 945.664 274.758C945.273 276.336 944.664 277.703 943.836 278.859C943.008 280 941.977 280.891 940.742 281.531C939.523 282.156 938.086 282.469 936.43 282.469C934.883 282.469 933.539 282.156 932.398 281.531C931.273 280.906 930.328 280.023 929.562 278.883C928.797 277.742 928.18 276.406 927.711 274.875C927.242 273.344 926.891 271.672 926.656 269.859V268.781C926.891 266.969 927.242 265.297 927.711 263.766C928.18 262.234 928.797 260.898 929.562 259.758C930.328 258.617 931.273 257.734 932.398 257.109C933.523 256.484 934.852 256.172 936.383 256.172C938.055 256.172 939.508 256.492 940.742 257.133C941.992 257.758 943.023 258.648 943.836 259.805C944.664 260.945 945.273 262.305 945.664 263.883C946.07 265.445 946.273 267.172 946.273 269.062ZM939.523 269.555V269.062C939.523 268.031 939.445 267.062 939.289 266.156C939.148 265.234 938.898 264.43 938.539 263.742C938.18 263.039 937.688 262.484 937.062 262.078C936.453 261.672 935.664 261.469 934.695 261.469C933.773 261.469 932.992 261.625 932.352 261.938C931.711 262.25 931.18 262.688 930.758 263.25C930.352 263.812 930.047 264.484 929.844 265.266C929.641 266.031 929.516 266.875 929.469 267.797V270.867C929.516 272.102 929.719 273.195 930.078 274.148C930.453 275.086 931.016 275.828 931.766 276.375C932.531 276.906 933.523 277.172 934.742 277.172C935.695 277.172 936.484 276.984 937.109 276.609C937.734 276.234 938.219 275.703 938.562 275.016C938.922 274.328 939.172 273.523 939.312 272.602C939.453 271.664 939.523 270.648 939.523 269.555Z" fill="#FB6D27"/>
</g>
<path d="M179.672 323.562V336.594C179.188 337.234 178.43 337.938 177.398 338.703C176.383 339.453 175.031 340.102 173.344 340.648C171.656 341.195 169.555 341.469 167.039 341.469C164.898 341.469 162.938 341.109 161.156 340.391C159.375 339.656 157.836 338.586 156.539 337.18C155.258 335.773 154.266 334.062 153.562 332.047C152.859 330.016 152.508 327.703 152.508 325.109V322.742C152.508 320.164 152.828 317.867 153.469 315.852C154.125 313.82 155.062 312.102 156.281 310.695C157.5 309.289 158.969 308.227 160.688 307.508C162.422 306.773 164.383 306.406 166.57 306.406C169.367 306.406 171.68 306.875 173.508 307.812C175.352 308.734 176.773 310.016 177.773 311.656C178.773 313.297 179.406 315.172 179.672 317.281H173.906C173.719 316.094 173.352 315.031 172.805 314.094C172.273 313.156 171.508 312.422 170.508 311.891C169.523 311.344 168.242 311.07 166.664 311.07C165.305 311.07 164.109 311.328 163.078 311.844C162.047 312.359 161.188 313.117 160.5 314.117C159.828 315.117 159.32 316.336 158.977 317.773C158.633 319.211 158.461 320.852 158.461 322.695V325.109C158.461 326.984 158.656 328.648 159.047 330.102C159.453 331.555 160.031 332.781 160.781 333.781C161.547 334.781 162.477 335.539 163.57 336.055C164.664 336.555 165.898 336.805 167.273 336.805C168.617 336.805 169.719 336.695 170.578 336.477C171.438 336.242 172.117 335.969 172.617 335.656C173.133 335.328 173.531 335.016 173.812 334.719V327.945H166.711V323.562H179.672ZM191.672 315.641V341H186V315.641H191.672ZM185.625 308.984C185.625 308.125 185.906 307.414 186.469 306.852C187.047 306.273 187.844 305.984 188.859 305.984C189.859 305.984 190.648 306.273 191.227 306.852C191.805 307.414 192.094 308.125 192.094 308.984C192.094 309.828 191.805 310.531 191.227 311.094C190.648 311.656 189.859 311.938 188.859 311.938C187.844 311.938 187.047 311.656 186.469 311.094C185.906 310.531 185.625 309.828 185.625 308.984ZM209.484 315.641V319.766H195.188V315.641H209.484ZM199.312 309.43H204.961V333.992C204.961 334.773 205.07 335.375 205.289 335.797C205.523 336.203 205.844 336.477 206.25 336.617C206.656 336.758 207.133 336.828 207.68 336.828C208.07 336.828 208.445 336.805 208.805 336.758C209.164 336.711 209.453 336.664 209.672 336.617L209.695 340.93C209.227 341.07 208.68 341.195 208.055 341.305C207.445 341.414 206.742 341.469 205.945 341.469C204.648 341.469 203.5 341.242 202.5 340.789C201.5 340.32 200.719 339.562 200.156 338.516C199.594 337.469 199.312 336.078 199.312 334.344V309.43ZM235.781 336.336V341H218.648V336.336H235.781ZM220.289 306.875V341H214.406V306.875H220.289ZM254.062 335.914V323.82C254.062 322.914 253.898 322.133 253.57 321.477C253.242 320.82 252.742 320.312 252.07 319.953C251.414 319.594 250.586 319.414 249.586 319.414C248.664 319.414 247.867 319.57 247.195 319.883C246.523 320.195 246 320.617 245.625 321.148C245.25 321.68 245.062 322.281 245.062 322.953H239.438C239.438 321.953 239.68 320.984 240.164 320.047C240.648 319.109 241.352 318.273 242.273 317.539C243.195 316.805 244.297 316.227 245.578 315.805C246.859 315.383 248.297 315.172 249.891 315.172C251.797 315.172 253.484 315.492 254.953 316.133C256.438 316.773 257.602 317.742 258.445 319.039C259.305 320.32 259.734 321.93 259.734 323.867V335.141C259.734 336.297 259.812 337.336 259.969 338.258C260.141 339.164 260.383 339.953 260.695 340.625V341H254.906C254.641 340.391 254.43 339.617 254.273 338.68C254.133 337.727 254.062 336.805 254.062 335.914ZM254.883 325.578L254.93 329.07H250.875C249.828 329.07 248.906 329.172 248.109 329.375C247.312 329.562 246.648 329.844 246.117 330.219C245.586 330.594 245.188 331.047 244.922 331.578C244.656 332.109 244.523 332.711 244.523 333.383C244.523 334.055 244.68 334.672 244.992 335.234C245.305 335.781 245.758 336.211 246.352 336.523C246.961 336.836 247.695 336.992 248.555 336.992C249.711 336.992 250.719 336.758 251.578 336.289C252.453 335.805 253.141 335.219 253.641 334.531C254.141 333.828 254.406 333.164 254.438 332.539L256.266 335.047C256.078 335.688 255.758 336.375 255.305 337.109C254.852 337.844 254.258 338.547 253.523 339.219C252.805 339.875 251.938 340.414 250.922 340.836C249.922 341.258 248.766 341.469 247.453 341.469C245.797 341.469 244.32 341.141 243.023 340.484C241.727 339.812 240.711 338.914 239.977 337.789C239.242 336.648 238.875 335.359 238.875 333.922C238.875 332.578 239.125 331.391 239.625 330.359C240.141 329.312 240.891 328.438 241.875 327.734C242.875 327.031 244.094 326.5 245.531 326.141C246.969 325.766 248.609 325.578 250.453 325.578H254.883ZM265.664 305H271.312V335.586L270.773 341H265.664V305ZM287.859 328.086V328.578C287.859 330.453 287.648 332.18 287.227 333.758C286.82 335.32 286.195 336.68 285.352 337.836C284.523 338.992 283.492 339.891 282.258 340.531C281.039 341.156 279.625 341.469 278.016 341.469C276.438 341.469 275.062 341.172 273.891 340.578C272.719 339.984 271.734 339.141 270.938 338.047C270.156 336.953 269.523 335.648 269.039 334.133C268.555 332.617 268.211 330.945 268.008 329.117V327.547C268.211 325.703 268.555 324.031 269.039 322.531C269.523 321.016 270.156 319.711 270.938 318.617C271.734 317.508 272.711 316.656 273.867 316.062C275.039 315.469 276.406 315.172 277.969 315.172C279.594 315.172 281.023 315.484 282.258 316.109C283.508 316.734 284.547 317.625 285.375 318.781C286.203 319.922 286.82 321.281 287.227 322.859C287.648 324.438 287.859 326.18 287.859 328.086ZM282.211 328.578V328.086C282.211 326.945 282.117 325.875 281.93 324.875C281.742 323.859 281.43 322.969 280.992 322.203C280.57 321.438 279.992 320.836 279.258 320.398C278.539 319.945 277.641 319.719 276.562 319.719C275.562 319.719 274.703 319.891 273.984 320.234C273.266 320.578 272.664 321.047 272.18 321.641C271.695 322.234 271.312 322.922 271.031 323.703C270.766 324.484 270.586 325.328 270.492 326.234V330.477C270.633 331.648 270.93 332.727 271.383 333.711C271.852 334.68 272.508 335.461 273.352 336.055C274.195 336.633 275.281 336.922 276.609 336.922C277.656 336.922 278.539 336.711 279.258 336.289C279.977 335.867 280.547 335.281 280.969 334.531C281.406 333.766 281.719 332.875 281.906 331.859C282.109 330.844 282.211 329.75 282.211 328.578Z" fill="white"/>
</g>
<defs>
<filter id="filter0_d_3_50" x="572.016" y="190" width="379.258" height="102.469" filterUnits="userSpaceOnUse" color-interpolation-filters="sRGB">
<feFlood flood-opacity="0" result="BackgroundImageFix"/>
<feColorMatrix in="SourceAlpha" type="matrix" values="0 0 0 0 0 0 0 0 0 0 0 0 0 0 0 0 0 0 127 0" result="hardAlpha"/>
<feOffset dy="5"/>
<feGaussianBlur stdDeviation="2.5"/>
<feComposite in2="hardAlpha" operator="out"/>
<feColorMatrix type="matrix" values="0 0 0 0 0 0 0 0 0 0 0 0 0 0 0 0 0 0 0.25 0"/>
<feBlend mode="normal" in2="BackgroundImageFix" result="effect1_dropShadow_3_50"/>
<feBlend mode="normal" in="SourceGraphic" in2="effect1_dropShadow_3_50" result="shape"/>
</filter>
<linearGradient id="paint0_linear_3_50" x1="-6.00512e-06" y1="10.5" x2="1000" y2="500" gradientUnits="userSpaceOnUse">
<stop stop-color="#E14329"/>
<stop offset="1" stop-color="#FB6D27"/>
</linearGradient>
<clipPath id="clip0_3_50">
<rect width="1000" height="500" fill="white"/>
</clipPath>
</defs>
</svg>
